<?xml version="1.0" encoding="UTF-8"?>
<svg id="Layer_2" data-name="Layer 2" xmlns="http://www.w3.org/2000/svg" viewBox="0 0 188 158.96">
  <defs>
    <style>
      .cls-1 {
        fill: #662d91;
        fill-rule: evenodd;
      }

      .cls-2 {
        fill: #ed1e79;
      }
    </style>
  </defs>
  <g id="Layer_1-2" data-name="Layer 1">
    <g id="Group_47570" data-name="Group 47570">
      <path id="Path_4864" data-name="Path 4864" class="cls-2" d="M77.7,98.13h-18.93v4.46h18.93v-4.46Z"/>
      <path id="Path_4865" data-name="Path 4865" class="cls-2" d="M77.7,125.44h-18.93v3.45h18.93v-3.45Z"/>
      <path id="Path_4866" data-name="Path 4866" class="cls-2" d="M87.76,67.54h-5.92v5.47h5.92v-5.47Z"/>
      <path id="Path_4867" data-name="Path 4867" class="cls-2" d="M110.84,67.29h-5.92v5.72h5.92v-5.72Z"/>
      <path id="Path_4868" data-name="Path 4868" class="cls-2" d="M64.69,67.54h-5.92v5.47h5.92v-5.47Z"/>
      <path id="Path_4869" data-name="Path 4869" d="M129.68,142.19H51.47c-2.53,0-4.58-2.05-4.59-4.58V34.23c0-2.53,2.06-4.58,4.59-4.58h78.21c2.53,0,4.58,2.05,4.59,4.58v103.37c0,2.53-2.05,4.58-4.59,4.59ZM51.47,31.22c-1.66,0-3,1.34-3.01,3v103.38c0,1.66,1.35,3,3.01,3h78.21c1.66,0,3-1.34,3.01-3V34.23c0-1.66-1.35-3-3.01-3H51.47Z"/>
      <path id="Path_4870" data-name="Path 4870" d="M139.43,132.86h-4.82c-.44,0-.79-.35-.79-.79s.35-.79,.79-.79h4.82c1.5,0,2.71-1.21,2.71-2.71V24.6c0-1.5-1.22-2.71-2.71-2.71H60.63c-1.5,0-2.71,1.21-2.71,2.71v5.8c-.02,.44-.38,.78-.82,.76-.41-.01-.75-.35-.76-.76v-5.8c0-2.37,1.92-4.28,4.29-4.29h78.79c2.37,0,4.29,1.92,4.29,4.29v103.97c0,2.37-1.92,4.29-4.29,4.29h0Z"/>
      <path id="Path_4871" data-name="Path 4871" d="M125.57,135.71H55.58c-1.85,0-3.35-1.5-3.35-3.35V39.47c0-1.85,1.5-3.34,3.35-3.35H125.57c1.85,0,3.35,1.5,3.35,3.35v53.65c-.02,.44-.38,.78-.82,.76-.41-.01-.75-.35-.76-.76V39.47c0-.98-.79-1.77-1.77-1.77H55.58c-.98,0-1.77,.79-1.77,1.77v92.89c0,.98,.79,1.77,1.77,1.77H125.57c.98,0,1.77-.79,1.77-1.77v-12.03c.02-.44,.38-.78,.82-.76,.41,.01,.75,.35,.76,.76v12.03c0,1.85-1.5,3.34-3.35,3.35Z"/>
      <path id="Path_4872" data-name="Path 4872" d="M64.69,73.8h-5.92c-.44,0-.79-.35-.79-.79h0v-21.29c0-.44,.35-.79,.79-.79h5.92c.44,0,.79,.35,.79,.79h0v21.29c0,.44-.35,.79-.79,.79Zm-5.13-1.58h4.34v-19.71h-4.34v19.71Z"/>
      <path id="Path_4873" data-name="Path 4873" d="M76.23,73.8h-5.92c-.44,0-.79-.35-.79-.79h0v-10.94c0-.44,.35-.79,.79-.79h5.92c.44,0,.79,.35,.79,.79h0v10.94c0,.44-.35,.79-.79,.79Zm-5.13-1.58h4.34v-9.36h-4.34v9.36Z"/>
      <path id="Path_4874" data-name="Path 4874" d="M87.76,73.8h-5.92c-.44,0-.79-.35-.79-.79h0v-24.25c0-.44,.35-.79,.79-.79h5.92c.44,0,.79,.35,.79,.79h0v24.25c0,.44-.35,.79-.79,.79Zm-5.13-1.58h4.34v-22.67h-4.34v22.67Z"/>
      <path id="Path_4875" data-name="Path 4875" d="M99.3,73.8h-5.92c-.44,0-.79-.35-.79-.79h0v-12.42c0-.44,.35-.79,.79-.79h5.92c.44,0,.79,.35,.79,.79h0v12.42c0,.43-.35,.79-.79,.79Zm-5.13-1.58h4.34v-10.84h-4.34v10.84Z"/>
      <path id="Path_4876" data-name="Path 4876" d="M110.84,73.8h-5.92c-.44,0-.79-.35-.79-.79h0v-18.33c0-.44,.35-.79,.79-.79h5.92c.44,0,.79,.35,.79,.79h0v18.33c0,.44-.35,.79-.79,.79Zm-5.13-1.58h4.34v-16.75h-4.34v16.75Z"/>
      <path id="Path_4877" data-name="Path 4877" d="M122.38,73.8h-5.92c-.44,0-.79-.35-.79-.79h0v-24.25c0-.44,.35-.79,.79-.79h5.92c.44,0,.79,.35,.79,.79h0v24.25c0,.44-.35,.79-.79,.79Zm-5.13-1.58h4.34v-22.67h-4.34v22.67Z"/>
      <path id="Path_4878" data-name="Path 4878" d="M77.7,103.37h-18.93c-.44,0-.79-.35-.79-.79h0v-18.93c0-.44,.35-.79,.79-.79h18.93c.44,0,.79,.35,.79,.79h0v18.93c0,.44-.35,.79-.79,.79h0Zm-18.14-1.57h17.35v-17.35h-17.35v17.35Z"/>
      <path id="Path_4879" data-name="Path 4879" d="M77.7,129.69h-18.93c-.44,0-.79-.35-.79-.79h0v-18.93c0-.44,.35-.79,.79-.79h18.93c.44,0,.79,.35,.79,.79h0v18.92c0,.44-.35,.79-.79,.79h0Zm-18.14-1.58h17.35v-17.35h-17.35v17.35Z"/>
      <path id="Path_4880" data-name="Path 4880" d="M101.88,88.66h-16.4c-.44,0-.79-.35-.79-.79s.35-.79,.79-.79h16.4c.44,0,.79,.35,.79,.79s-.35,.79-.79,.79h0Z"/>
      <path id="Path_4881" data-name="Path 4881" d="M111.84,94h-26.36c-.44,0-.79-.35-.79-.79s.35-.79,.79-.79h26.36c.44,0,.79,.35,.79,.79s-.35,.79-.79,.79Z"/>
      <path id="Path_4882" data-name="Path 4882" d="M111.84,99.22h-26.36c-.44,0-.79-.35-.79-.79s.35-.79,.79-.79h26.36c.44,0,.79,.35,.79,.79s-.35,.79-.79,.79Z"/>
      <path id="Path_4883" data-name="Path 4883" d="M101.88,115h-16.4c-.44,0-.79-.35-.79-.79s.35-.79,.79-.79h16.4c.44,0,.79,.35,.79,.79s-.35,.79-.79,.79h0Z"/>
      <path id="Path_4884" data-name="Path 4884" d="M111.84,120.22h-26.36c-.44,0-.79-.35-.79-.79s.35-.79,.79-.79h26.36c.44,0,.79,.35,.79,.79s-.35,.79-.79,.79Z"/>
      <path id="Path_4885" data-name="Path 4885" d="M111.84,125.44h-26.36c-.44,0-.79-.35-.79-.79s.35-.79,.79-.79h26.36c.44,0,.79,.35,.79,.79s-.35,.79-.79,.79Z"/>
      <path id="Path_4886" data-name="Path 4886" d="M15.51,41.43c-.47,0-.85-.38-.85-.85,0,0,0,0,0,0v-1.58c0-.47,.38-.85,.85-.85,.47,0,.85,.38,.85,.85v1.58c0,.47-.38,.85-.85,.85h0Z"/>
      <path id="Path_4887" data-name="Path 4887" d="M15.51,92.42c-.47,0-.85-.38-.85-.85v-3.03c0-.47,.38-.85,.85-.85,.47,0,.85,.38,.85,.85v3.03c0,.47-.38,.85-.85,.85Zm0-8.5c-.47,0-.85-.38-.85-.85,0,0,0,0,0,0v-3.03c0-.47,.38-.85,.85-.85,.47,0,.85,.38,.85,.85v3.04c0,.47-.38,.85-.85,.85h0Zm0-8.5c-.47,0-.85-.38-.85-.85,0,0,0,0,0,0v-3.03c0-.47,.38-.85,.85-.85,.47,0,.85,.38,.85,.85v3.04c0,.47-.38,.85-.85,.85h0Zm0-8.5c-.47,0-.85-.38-.85-.85,0,0,0,0,0,0v-3.03c0-.47,.38-.85,.85-.85,.47,0,.85,.38,.85,.85v3.03c0,.47-.38,.85-.85,.85h0Zm0-8.5c-.47,0-.85-.38-.85-.85,0,0,0,0,0,0v-3.03c0-.47,.38-.85,.85-.85,.47,0,.85,.38,.85,.85v3.03c0,.47-.38,.85-.85,.85h0Zm0-8.5c-.47,0-.85-.38-.85-.85v-3.03c0-.47,.38-.85,.85-.85,.47,0,.85,.38,.85,.85v3.03c0,.47-.38,.85-.85,.85h0Z"/>
      <path id="Path_4888" data-name="Path 4888" d="M16.96,99.46h-1.46c-.47,0-.85-.38-.85-.85,0,0,0,0,0,0v-1.46c0-.47,.38-.85,.85-.85,.47,0,.85,.38,.85,.85v.61h.61c.47,0,.85,.38,.85,.85,0,.47-.38,.85-.85,.85h0Z"/>
      <path id="Path_4889" data-name="Path 4889" d="M33.24,99.46h-2.92c-.47,0-.85-.38-.85-.85,0-.47,.38-.85,.85-.85h2.92c.47,0,.85,.38,.85,.85,0,.47-.38,.85-.85,.85h0Zm-8.14,0h-2.92c-.47,0-.85-.38-.85-.85,0-.47,.38-.85,.85-.85h2.92c.47,0,.85,.38,.85,.85,0,.47-.38,.85-.85,.85h0Z"/>
      <path id="Path_4890" data-name="Path 4890" d="M39.92,99.46h-1.58c-.47,0-.85-.38-.85-.85,0-.47,.38-.85,.85-.85h1.58c.47,0,.85,.38,.85,.85,0,.47-.38,.85-.85,.85h0Z"/>
      <path id="Path_4891" data-name="Path 4891" d="M4.21,113.55c-.47,0-.85-.38-.85-.85,0,0,0,0,0,0v-5.46c0-.47,.38-.85,.85-.85,.47,0,.85,.38,.85,.85v5.47c0,.47-.38,.85-.85,.85Z"/>
      <path id="Path_4892" data-name="Path 4892" d="M7,110.88H1.54c-.47,0-.85-.38-.85-.85,0-.47,.38-.85,.85-.85H7c.47,0,.85,.38,.85,.85,0,.47-.38,.85-.85,.85h0Z"/>
      <path id="Path_4893" data-name="Path 4893" d="M84.75,154.46c-.47,0-.85-.38-.85-.85h0v-5.46c0-.47,.38-.85,.85-.85,.47,0,.85,.38,.85,.85v5.46c0,.47-.38,.85-.85,.85h0Z"/>
      <path id="Path_4894" data-name="Path 4894" d="M87.54,151.79h-5.47c-.47,0-.85-.38-.85-.85,0-.47,.38-.85,.85-.85h5.47c.47,0,.85,.38,.85,.85,0,.47-.38,.85-.85,.85h0Z"/>
      <path id="Path_4895" data-name="Path 4895" d="M181.56,102.5c-.47,0-.85-.38-.85-.85h0v-5.47c.02-.47,.42-.83,.89-.81,.44,.02,.79,.37,.81,.81v5.46c0,.47-.38,.85-.85,.85,0,0,0,0,0,0Z"/>
      <path id="Path_4896" data-name="Path 4896" d="M184.36,99.83h-5.47c-.47,0-.85-.38-.85-.85,0-.47,.38-.85,.85-.85h5.47c.47,0,.85,.38,.85,.85,0,.47-.38,.85-.85,.85h0Z"/>
      <path id="Path_4897" data-name="Path 4897" d="M10.03,157.8c0-.67,.55-1.21,1.22-1.21,.64,0,1.17,.5,1.21,1.15,.02,.65-.49,1.2-1.15,1.22-.01,0-.02,0-.04,0h-.03c-.65,.01-1.2-.5-1.21-1.16Zm-3.6-.66c-.48-.46-.5-1.23-.04-1.72,.46-.48,1.23-.5,1.72-.04,.48,.46,.5,1.23,.04,1.72-.23,.24-.54,.37-.87,.37-.32,0-.62-.11-.84-.34h0Zm7.87-.19c-.49-.46-.52-1.23-.06-1.72,.46-.49,1.23-.52,1.72-.06,.49,.46,.52,1.23,.06,1.72-.23,.25-.55,.38-.89,.38-.31,0-.6-.12-.83-.33h0Zm-9.93-4.55c0-.67,.55-1.21,1.22-1.2,.67,0,1.21,.55,1.2,1.22,0,.66-.54,1.19-1.19,1.2h-.02c-.67-.01-1.21-.56-1.21-1.23h0Zm11.04-.29c0-.67,.53-1.22,1.2-1.23,.64,0,1.18,.49,1.23,1.13,.03,.66-.47,1.21-1.13,1.24-.01,0-.03,0-.04,0h-.05c-.65,0-1.18-.5-1.21-1.15h0Zm-9.09-2.83c-.48-.47-.48-1.24,0-1.72s1.24-.48,1.72,0,.48,1.24,0,1.72c-.23,.23-.54,.36-.86,.36-.32,0-.62-.13-.85-.35h0Zm7.69-.16c-.5-.45-.53-1.22-.08-1.72,.45-.5,1.22-.53,1.72-.08,.5,.45,.53,1.22,.08,1.72-.23,.25-.56,.39-.9,.39-.3,0-.6-.12-.82-.33h0Zm-4.12-2.34c0-.67,.54-1.22,1.21-1.22,.67,0,1.22,.54,1.22,1.21,0,.67-.54,1.22-1.21,1.22h0c-.67,0-1.21-.55-1.21-1.22h0s0,0,0,0Z"/>
      <path id="Path_4898" data-name="Path 4898" d="M32.14,52.77c0-.67,.55-1.21,1.22-1.21,.64,0,1.17,.5,1.21,1.15,.02,.66-.49,1.2-1.15,1.22-.01,0-.02,0-.03,0h-.03c-.65,.01-1.2-.5-1.21-1.16Zm-3.6-.67c-.48-.47-.5-1.23-.03-1.72,.47-.48,1.23-.5,1.72-.03,.48,.47,.5,1.23,.03,1.72-.23,.24-.54,.37-.87,.37-.31,0-.62-.12-.84-.34h0Zm7.87-.18c-.49-.46-.51-1.23-.05-1.72s1.23-.51,1.72-.05c.49,.46,.51,1.23,.05,1.72-.23,.24-.55,.38-.89,.38-.31,0-.61-.12-.83-.33h0Zm-9.93-4.55c0-.67,.55-1.21,1.23-1.2,.67,0,1.21,.55,1.2,1.23,0,.66-.54,1.2-1.2,1.2h-.01c-.67-.01-1.21-.56-1.22-1.23h0Zm11.04-.29c0-.67,.53-1.22,1.2-1.23,.64,0,1.18,.49,1.22,1.13,.03,.66-.47,1.21-1.13,1.24-.01,0-.03,0-.04,0h-.05c-.65,0-1.19-.5-1.21-1.15h0Zm-9.09-2.83c-.48-.47-.48-1.24-.01-1.72,.47-.48,1.24-.48,1.72-.01,.48,.47,.48,1.24,.01,1.72-.23,.23-.54,.36-.87,.36-.32,0-.63-.13-.85-.35Zm7.69-.16c-.5-.45-.53-1.22-.08-1.72,.45-.5,1.22-.53,1.72-.08,.5,.45,.53,1.22,.08,1.72-.23,.25-.56,.39-.9,.39-.3,0-.6-.11-.82-.32Zm-4.11-2.34c0-.67,.53-1.21,1.2-1.21,0,0,0,0,0,0,.67,0,1.22,.54,1.22,1.21-.02,.66-.54,1.19-1.2,1.21,0,0-1.23-.54-1.23-1.21h0Z"/>
      <path id="Path_4899" data-name="Path 4899" d="M155.07,75.48c0-.67,.55-1.21,1.22-1.21,.64,0,1.17,.5,1.21,1.15,.02,.66-.49,1.2-1.15,1.22-.01,0-.02,0-.03,0h-.03c-.65,.01-1.19-.5-1.21-1.16h0Zm-3.6-.67c-.48-.47-.5-1.23-.03-1.72,.47-.48,1.23-.5,1.72-.03,.48,.47,.5,1.23,.03,1.72-.23,.24-.54,.37-.87,.37-.31,0-.61-.12-.84-.34h0Zm7.87-.19c-.49-.46-.51-1.23-.05-1.72,.46-.49,1.23-.51,1.72-.05,.49,.46,.51,1.23,.05,1.72-.23,.24-.55,.38-.89,.38-.31,0-.61-.12-.83-.33h0Zm-9.93-4.55c0-.67,.55-1.21,1.23-1.2,.67,0,1.21,.55,1.2,1.23,0,.66-.54,1.2-1.2,1.2h-.02c-.67-.01-1.21-.56-1.21-1.23h0Zm11.04-.27c-.02-.67,.5-1.23,1.17-1.26s1.23,.5,1.26,1.17c.02,.67-.5,1.23-1.17,1.26,0,0,0,0,0,0h-.05c-.65,0-1.19-.52-1.21-1.17h0Zm-9.09-2.85c-.48-.47-.48-1.24,0-1.72,.47-.48,1.24-.48,1.72,0s.48,1.24,0,1.72c-.23,.23-.54,.36-.86,.36-.32,0-.63-.13-.85-.35Zm7.69-.16c-.5-.45-.53-1.22-.08-1.72,.45-.5,1.22-.53,1.72-.08,.5,.45,.53,1.22,.08,1.72-.23,.25-.56,.39-.9,.39-.3,0-.6-.11-.82-.32Zm-4.12-2.34c0-.67,.54-1.21,1.21-1.21,.67,0,1.21,.54,1.21,1.21,0,.67-.54,1.21-1.21,1.21-.67,0-1.21-.54-1.21-1.21h0Z"/>
      <path id="Path_4900" data-name="Path 4900" d="M184.36,15.2c-.47,0-.85-.38-.85-.85h0v-5.46c0-.47,.38-.85,.85-.85,.47,0,.85,.38,.85,.85v5.46c0,.47-.38,.85-.85,.85,0,0,0,0,0,0Z"/>
      <path id="Path_4901" data-name="Path 4901" d="M187.15,12.53h-5.47c-.47,0-.85-.38-.85-.85,0-.47,.38-.85,.85-.85h5.47c.47,0,.85,.38,.85,.85,0,.47-.38,.85-.85,.85h0Z"/>
      <path id="Path_4902" data-name="Path 4902" d="M29.31,12.73c-.27-.38-.49-.8-.65-1.24-.09-.48-.11-.97-.07-1.45,.11-.85-.02-1.71-.37-2.48-.5-.7-1.19-1.25-1.98-1.58-.44-.2-.84-.46-1.21-.77-.31-.36-.57-.77-.77-1.21-.33-.8-.87-1.49-1.58-1.98-.78-.36-1.64-.49-2.48-.37-.49,.05-.97,.02-1.45-.07-.44-.16-.86-.37-1.24-.65-.69-.54-1.52-.86-2.39-.94-.87,.08-1.7,.4-2.39,.94-.38,.27-.8,.49-1.24,.65-.48,.09-.97,.11-1.45,.07-.85-.11-1.71,.02-2.48,.37-.7,.5-1.25,1.19-1.58,1.98-.2,.44-.46,.84-.77,1.21-.36,.31-.77,.57-1.21,.77-.8,.33-1.49,.87-1.98,1.58-.36,.78-.49,1.64-.37,2.48,.05,.49,.02,.98-.07,1.46-.16,.44-.37,.86-.65,1.24-.53,.69-.86,1.52-.94,2.39,.08,.87,.4,1.7,.94,2.39,.27,.38,.49,.8,.65,1.24,.09,.48,.11,.97,.07,1.45-.11,.85,.02,1.71,.37,2.48,.5,.7,1.19,1.25,1.98,1.58,.44,.2,.84,.46,1.21,.77,.31,.36,.57,.77,.77,1.21,.19,.39,.42,.77,.67,1.13l-3.86,10.61c-.13,.36,.06,.75,.41,.88,.15,.05,.31,.05,.45,0l3.65-1.23,2,3.29c.12,.2,.35,.33,.59,.33h.07c.26-.03,.49-.2,.58-.45l3.88-10.65c.46,.13,.95,.13,1.41,0l3.88,10.64c.09,.25,.32,.42,.58,.45h.07c.24,0,.46-.13,.59-.33l2-3.29,3.65,1.23c.36,.12,.75-.07,.87-.43,.05-.15,.05-.31,0-.46l-3.85-10.6c.25-.36,.47-.74,.67-1.13,.2-.44,.46-.84,.77-1.21,.36-.31,.77-.57,1.21-.77,.8-.33,1.49-.87,1.98-1.58,.36-.78,.49-1.64,.37-2.48-.05-.49-.02-.97,.07-1.45,.16-.44,.37-.86,.65-1.24,.54-.69,.86-1.52,.94-2.39-.08-.87-.4-1.7-.94-2.39h0ZM9.74,38.98l-1.54-2.54c-.17-.27-.5-.4-.81-.29l-2.82,.95,3.19-8.77c.73,.27,1.51,.36,2.28,.27,.49-.05,.97-.02,1.45,.07,.44,.16,.86,.37,1.24,.65,.14,.09,.28,.18,.43,.27l-3.42,9.41Zm13.12-2.83c-.3-.1-.64,.02-.81,.29l-1.55,2.54-3.42-9.4c.15-.09,.29-.18,.43-.27,.38-.27,.8-.49,1.24-.65,.48-.09,.97-.11,1.45-.07,.77,.09,1.55,0,2.28-.27l3.19,8.77-2.82-.95Zm5.29-19.37c-.35,.5-.63,1.04-.81,1.62-.13,.61-.17,1.24-.11,1.86,.09,.59,.02,1.18-.19,1.74-.38,.47-.87,.83-1.43,1.05-.56,.26-1.08,.6-1.54,1.01-.42,.46-.76,.98-1.02,1.54-.22,.56-.58,1.05-1.05,1.43-.55,.21-1.15,.28-1.74,.19-.62-.06-1.25-.02-1.86,.11-.58,.19-1.12,.46-1.62,.81-.48,.38-1.05,.63-1.65,.72-.61-.09-1.18-.34-1.65-.72-.5-.35-1.04-.63-1.62-.81-.39-.1-.78-.14-1.18-.13-.23,0-.46,0-.69,.02-.59,.09-1.18,.02-1.74-.19-.47-.38-.83-.87-1.05-1.43-.26-.56-.6-1.08-1.01-1.54-.46-.42-.98-.76-1.54-1.02-.56-.22-1.05-.58-1.43-1.05-.21-.55-.28-1.15-.19-1.74,.06-.62,.02-1.25-.11-1.86-.19-.58-.46-1.12-.81-1.62-.38-.48-.63-1.05-.72-1.65,.09-.61,.34-1.18,.72-1.65,.35-.5,.63-1.04,.81-1.62,.13-.61,.17-1.24,.11-1.86-.09-.59-.02-1.18,.19-1.74,.38-.47,.87-.83,1.43-1.05,.56-.26,1.08-.6,1.54-1.01,.41-.46,.76-.98,1.01-1.54,.22-.56,.58-1.05,1.05-1.43,.55-.21,1.15-.28,1.74-.19,.62,.06,1.25,.02,1.86-.11,.58-.19,1.12-.46,1.62-.81,.48-.38,1.05-.63,1.65-.72,.61,.09,1.18,.34,1.65,.72,.5,.35,1.04,.63,1.62,.81,.61,.13,1.24,.17,1.86,.11,.59-.09,1.18-.02,1.74,.19,.47,.38,.83,.87,1.05,1.43,.26,.56,.6,1.08,1.01,1.54,.46,.41,.98,.76,1.55,1.01,.56,.22,1.05,.58,1.43,1.05,.21,.55,.28,1.15,.19,1.74-.06,.62-.02,1.25,.11,1.86,.19,.58,.46,1.12,.81,1.62,.38,.48,.63,1.05,.72,1.65-.09,.61-.34,1.18-.72,1.65h0Z"/>
      <path id="Path_4903" data-name="Path 4903" d="M15.12,4.12c-6.08,0-11.02,4.92-11.03,11,0,6.08,4.92,11.02,11,11.03,6.08,0,11.02-4.92,11.03-11,0-2.93-1.16-5.73-3.23-7.8-2.06-2.06-4.86-3.22-7.77-3.23h0Zm0,20.62c-5.32,0-9.64-4.3-9.65-9.62,0-5.32,4.3-9.64,9.62-9.65,5.32,0,9.64,4.3,9.65,9.62,0,2.56-1.01,5.02-2.82,6.83-1.8,1.8-4.25,2.82-6.8,2.82Z"/>
      <path id="Path_4904" data-name="Path 4904" class="cls-1" d="M15.51,10.42l1.15,2.32,2.56,.37c.23,.03,.39,.25,.36,.48-.01,.09-.06,.18-.12,.24l-1.85,1.81,.44,2.55c.04,.23-.11,.45-.35,.49-.09,.02-.19,0-.27-.04l-2.29-1.21-2.29,1.21c-.21,.11-.47,.03-.58-.18-.04-.08-.06-.18-.04-.27l.44-2.55-1.85-1.81c-.17-.17-.17-.44,0-.6,.06-.07,.15-.11,.24-.12l2.56-.37,1.15-2.32c.12-.21,.4-.28,.61-.16,.07,.04,.12,.09,.16,.16h0Z"/>
    </g>
  </g>
</svg>