<?xml version="1.0" encoding="UTF-8"?>
<svg id="Layer_2" data-name="Layer 2" xmlns="http://www.w3.org/2000/svg" viewBox="0 0 168.98 151">
  <defs>
    <style>
      .cls-1 {
        fill: none;
        stroke-width: 1.5px;
      }

      .cls-1, .cls-2 {
        stroke: #000;
      }

      .cls-2 {
        stroke-width: 2px;
      }

      .cls-2, .cls-3 {
        fill: #6c3099;
      }

      .cls-4 {
        fill: #1e243a;
      }

      .cls-5 {
        fill: #ed1e79;
      }
    </style>
  </defs>
  <g id="Layer_1-2" data-name="Layer 1">
    <g id="Group_47565" data-name="Group 47565">
      <path id="Path_4644" data-name="Path 4644" class="cls-4" d="M139.74,79.8H18.39c-.47-.02-.83-.42-.81-.89,.02-.44,.37-.79,.81-.81h121.35c.47,.02,.83,.42,.81,.89-.02,.44-.37,.79-.81,.81Z"/>
      <path id="Path_4645" data-name="Path 4645" class="cls-4" d="M46.51,78.95c-.47,0-.85-.38-.85-.85,0,0,0,0,0,0v-9.24c0-.47,.38-.85,.85-.85s.85,.38,.85,.85v9.24c0,.47-.38,.85-.85,.85h0Z"/>
      <path id="Path_4646" data-name="Path 4646" class="cls-4" d="M26.32,75.96c-1.39,0-2.52-1.12-2.53-2.51,0-1.39,1.12-2.52,2.51-2.53,1.39,0,2.52,1.12,2.53,2.51,0,0,0,0,0,0,0,1.39-1.12,2.52-2.51,2.52Zm0-3.34c-.45,0-.82,.36-.82,.82,0,.45,.36,.82,.82,.82s.82-.36,.82-.82c0,0,0,0,0,0,0-.45-.37-.82-.82-.82h0Z"/>
      <path id="Path_4647" data-name="Path 4647" class="cls-4" d="M32.56,75.96c-1.39,0-2.52-1.12-2.53-2.51,0-1.39,1.12-2.52,2.51-2.53,1.39,0,2.52,1.12,2.53,2.51,0,0,0,0,0,0,0,1.39-1.12,2.52-2.51,2.52Zm0-3.34c-.45,0-.82,.36-.82,.82,0,.45,.36,.82,.82,.82,.45,0,.82-.36,.82-.82,0,0,0,0,0,0,0-.45-.37-.82-.82-.82h0Z"/>
      <path id="Path_4648" data-name="Path 4648" class="cls-4" d="M38.79,75.96c-1.39,0-2.52-1.12-2.53-2.51,0-1.39,1.12-2.52,2.51-2.53,1.39,0,2.52,1.12,2.53,2.51,0,0,0,0,0,0,0,1.39-1.12,2.52-2.51,2.52Zm0-3.34c-.45,0-.82,.36-.82,.82s.36,.82,.82,.82c.45,0,.82-.36,.82-.82,0,0,0,0,0,0,0-.45-.37-.82-.82-.82h0Z"/>
      <path id="Path_4649" data-name="Path 4649" class="cls-4" d="M81.79,72.75h-30.55c-.47-.02-.83-.42-.81-.89,.02-.44,.37-.79,.81-.81h30.55c.47,.02,.83,.42,.81,.89-.02,.44-.37,.79-.81,.81Z"/>
      <path id="Path_4650" data-name="Path 4650" class="cls-4" d="M111.25,76.16H51.24c-.47-.02-.83-.42-.81-.89,.02-.44,.37-.79,.81-.81h60.01c.47,.02,.83,.42,.81,.89-.02,.44-.37,.79-.81,.81Z"/>
      <path id="Path_4651" data-name="Path 4651" class="cls-3" d="M128,115H24v1h104v-1Z"/>
      <path id="Path_4652" data-name="Path 4652" class="cls-3" d="M128,132H24v1h104v-1Z"/>
      <path id="Path_4653" data-name="Path 4653" class="cls-4" d="M162.59,81.44c-.5,0-.91-.41-.91-.91v-1.58c-.02-.5,.38-.92,.88-.94,.5-.02,.92,.38,.94,.88,0,.02,0,.04,0,.06v1.58c0,.5-.41,.91-.91,.91Z"/>
      <path id="Path_4654" data-name="Path 4654" class="cls-4" d="M162.59,74.4c-.5,0-.91-.41-.91-.91h0v-1.58c0-.5,.4-.91,.91-.91,.5,0,.91,.4,.91,.91h0v1.58c0,.5-.41,.91-.91,.91h0Z"/>
      <path id="Path_4655" data-name="Path 4655" class="cls-4" d="M162.59,67.37c-.5,0-.91-.41-.91-.91h0v-1.58c0-.5,.4-.91,.91-.91,.5,0,.91,.4,.91,.91h0v1.58c0,.5-.41,.91-.91,.91h0Z"/>
      <path id="Path_4656" data-name="Path 4656" class="cls-4" d="M162.59,60.33c-.5,0-.91-.41-.91-.91h0v-1.58c0-.5,.4-.91,.91-.91,.5,0,.91,.4,.91,.91h0v1.58c0,.5-.41,.91-.91,.91h0Z"/>
      <path id="Path_4657" data-name="Path 4657" class="cls-4" d="M162.59,53.29c-.5,0-.91-.41-.91-.91v-1.58c0-.5,.4-.91,.91-.91,.5,0,.91,.4,.91,.91h0v1.58c0,.5-.41,.91-.91,.91Z"/>
      <path id="Path_4658" data-name="Path 4658" class="cls-4" d="M162.59,46.25c-.5,0-.91-.41-.91-.91v-1.58c0-.5,.4-.91,.91-.91,.5,0,.91,.4,.91,.91h0v1.58c0,.5-.41,.91-.91,.91Z"/>
      <path id="Path_4659" data-name="Path 4659" class="cls-4" d="M162.59,39.21c-.5,0-.91-.41-.91-.91h0v-1.58c0-.5,.4-.91,.91-.91,.5,0,.91,.4,.91,.91h0v1.58c0,.5-.41,.91-.91,.91Z"/>
      <path id="Path_4660" data-name="Path 4660" class="cls-4" d="M162.59,32.17c-.5,0-.91-.41-.91-.91h0v-1.58c0-.5,.4-.91,.91-.91,.5,0,.91,.4,.91,.91h0v1.58c0,.5-.41,.91-.91,.91,0,0,0,0,0,0Z"/>
      <path id="Path_4661" data-name="Path 4661" class="cls-4" d="M158.4,27.91c0,.5-.41,.91-.91,.91h-1.58c-.5,0-.91-.41-.91-.91s.41-.91,.91-.91h1.58c.5,0,.91,.41,.91,.91Z"/>
      <path id="Path_4662" data-name="Path 4662" class="cls-4" d="M150.4,27.91c0,.5-.41,.91-.91,.91h-1.58c-.5,0-.91-.41-.91-.91s.41-.91,.91-.91h1.58c.5,0,.91,.41,.91,.91Z"/>
      <path id="Path_4663" data-name="Path 4663" class="cls-4" d="M162.59,125.8c-.5,0-.91-.41-.91-.91v-3.16c-.02-.5,.38-.92,.88-.94,.5-.02,.92,.38,.94,.88,0,.02,0,.04,0,.06v3.16c0,.5-.41,.91-.91,.91Zm0-8.87c-.5,0-.91-.41-.91-.91v-3.16c-.02-.5,.38-.92,.88-.94,.5-.02,.92,.38,.94,.88,0,.02,0,.04,0,.06v3.16c0,.5-.4,.91-.91,.91,0,0,0,0,0,0h0Zm0-8.88c-.5,0-.91-.41-.91-.91v-3.16c-.02-.5,.38-.92,.88-.94,.5-.02,.92,.38,.94,.88,0,.02,0,.04,0,.06v3.16c0,.5-.4,.91-.91,.92,0,0,0,0,0,0h0Zm0-8.88c-.5,0-.91-.41-.91-.91v-3.16c-.02-.5,.38-.92,.88-.94,.5-.02,.92,.38,.94,.88,0,.02,0,.04,0,.06v3.16c0,.5-.4,.91-.91,.91,0,0,0,0,0,0h0Zm0-8.88c-.5,0-.91-.41-.91-.91v-3.16c-.02-.5,.38-.92,.88-.94,.5-.02,.92,.38,.94,.88,0,.02,0,.04,0,.06v3.16c0,.5-.4,.91-.91,.91,0,0,0,0,0,0h0Z"/>
      <path id="Path_4664" data-name="Path 4664" class="cls-4" d="M162.59,133.28h-1.51c-.5-.02-.9-.44-.88-.94,.02-.48,.4-.87,.88-.88h.61v-.61c0-.5,.4-.91,.91-.91,.5,0,.91,.4,.91,.91h0v1.52c0,.5-.41,.91-.91,.91Z"/>
      <path id="Path_4665" data-name="Path 4665" class="cls-4" d="M155.38,133.28h-3.15c-.5-.02-.9-.44-.88-.94,.02-.48,.4-.87,.88-.88h3.15c.5,.02,.9,.44,.88,.94-.02,.48-.4,.87-.88,.88Z"/>
      <path id="Path_4666" data-name="Path 4666" class="cls-4" d="M146.4,133.28h-1.45c-.5-.02-.9-.44-.88-.94,.02-.48,.4-.87,.88-.88h1.45c.5,.02,.9,.44,.88,.94-.02,.48-.4,.87-.88,.88Z"/>
      <path id="Path_4667" data-name="Path 4667" class="cls-4" d="M56.03,45.22c-.5,0-.91-.41-.91-.91v-5.47c0-.5,.41-.91,.91-.91s.91,.41,.91,.91v5.47c0,.5-.41,.91-.91,.91Z"/>
      <path id="Path_4668" data-name="Path 4668" class="cls-4" d="M58.88,42.61h-5.45c-.5-.02-.9-.44-.88-.94,.02-.48,.4-.87,.88-.88h5.45c.5,.02,.9,.44,.88,.94-.02,.48-.4,.87-.88,.88Z"/>
      <path id="Path_4669" data-name="Path 4669" class="cls-4" d="M165.26,21.04c-.5,0-.91-.41-.91-.91v-5.47c-.02-.5,.38-.92,.88-.94,.5-.02,.92,.38,.94,.88,0,.02,0,.04,0,.06v5.47c0,.5-.41,.91-.91,.91h0Z"/>
      <path id="Path_4670" data-name="Path 4670" class="cls-4" d="M168.1,18.42h-5.46c-.5-.02-.9-.44-.88-.94,.02-.48,.4-.87,.88-.88h5.46c.5,.02,.9,.44,.88,.94-.02,.48-.4,.87-.88,.88Z"/>
      <path id="Path_4671" data-name="Path 4671" class="cls-4" d="M72.57,14.23c-.01-.67,.52-1.22,1.19-1.24,.66-.01,1.21,.51,1.24,1.17,.02,.66-.49,1.2-1.15,1.22-.01,0-.02,0-.03,0h-.03c-.65,.01-1.19-.51-1.21-1.16Zm-3.59-.67c-.48-.46-.49-1.23-.03-1.71,.46-.48,1.23-.49,1.71-.03,.48,.46,.49,1.23,.03,1.71-.23,.24-.54,.37-.87,.37-.31,0-.61-.12-.84-.34Zm7.85-.19c-.49-.46-.51-1.22-.05-1.71,.46-.49,1.22-.51,1.71-.05s.51,1.22,.05,1.71c-.23,.24-.55,.38-.88,.38-.31,0-.6-.12-.83-.33Zm-9.91-4.56c0-.67,.56-1.21,1.23-1.2s1.21,.56,1.2,1.23c0,.66-.54,1.19-1.2,1.2h-.01c-.67-.01-1.21-.56-1.21-1.23h0Zm11.02-.29c-.02-.67,.51-1.23,1.18-1.24,.66-.02,1.21,.49,1.24,1.15,.03,.65-.47,1.21-1.13,1.24-.01,0-.03,0-.04,0h-.05c-.65,0-1.18-.5-1.21-1.15h0Zm-9.07-2.84c-.48-.47-.48-1.24-.01-1.72,.48-.48,1.26-.48,1.74-.01,.43,.49,.45,1.21,.04,1.72,0,.24-.58,.36-.89,.36-.33,0-.64-.12-.88-.35h0Zm7.68-.16c-.49-.45-.52-1.22-.07-1.71,.45-.49,1.22-.52,1.71-.07s.52,1.22,.07,1.71c-.23,.25-.55,.39-.89,.39-.3,0-.6-.12-.82-.32Zm-4.12-2.35c0-.67,.55-1.21,1.21-1.21s1.21,.55,1.21,1.21c0,.67-.54,1.21-1.21,1.21-.67,0-1.21-.54-1.21-1.21h0Z"/>
      <path id="Path_4672" data-name="Path 4672" class="cls-4" d="M91.48,60.41c-.01-.67,.52-1.22,1.19-1.24,.66-.01,1.21,.51,1.24,1.17,.02,.66-.49,1.2-1.15,1.22-.01,0-.02,0-.03,0h-.03c-.65,.01-1.19-.51-1.21-1.16h0Zm-3.59-.67c-.48-.46-.5-1.23-.03-1.72,.46-.48,1.23-.5,1.72-.03s.5,1.23,.03,1.72c0,0,0,0,0,0-.46,.48-1.23,.5-1.71,.04,0,0,0,0,0,0Zm7.85-.19c-.49-.46-.51-1.23-.05-1.71,.46-.49,1.23-.51,1.71-.05,.49,.46,.51,1.23,.05,1.71-.23,.24-.55,.38-.88,.38-.31,0-.6-.12-.83-.33Zm-9.91-4.55c0-.67,.56-1.21,1.23-1.2,.67,0,1.21,.56,1.2,1.23,0,.66-.54,1.19-1.2,1.2h-.01c-.67-.01-1.21-.56-1.21-1.23h0Zm11.02-.29c-.02-.67,.51-1.23,1.18-1.24,.66-.02,1.21,.49,1.24,1.15,.03,.65-.47,1.21-1.13,1.24-.01,0-.03,0-.04,0h-.05c-.65,0-1.18-.5-1.21-1.15h0Zm-9.07-2.83c-.47-.47-.48-1.24,0-1.71s1.24-.48,1.71,0,.48,1.24,0,1.71c-.23,.23-.54,.36-.86,.36-.32,0-.63-.13-.85-.35Zm7.68-.16c-.49-.45-.52-1.22-.07-1.71,.45-.49,1.22-.52,1.71-.07,.49,.45,.52,1.22,.07,1.71-.23,.25-.55,.39-.89,.39-.3,0-.6-.12-.82-.32h0Zm-4.1-2.35c0-.67,.53-1.21,1.2-1.21,0,0,0,0,0,0,.67,0,1.22,.54,1.22,1.22-.02,.66-.54,1.19-1.2,1.22,0,0-1.23-.54-1.23-1.22h0Z"/>
      <path id="Path_4673" data-name="Path 4673" class="cls-4" d="M5.65,77.67c-.02-.67,.51-1.23,1.18-1.25,.67-.02,1.23,.51,1.25,1.18h0c.02,.66-.49,1.2-1.15,1.22-.01,0-.02,0-.03,0h-.03c-.65,.01-1.19-.5-1.21-1.15Zm-3.59-.67c-.48-.46-.5-1.23-.03-1.71,.46-.48,1.23-.5,1.71-.03,.48,.46,.5,1.23,.03,1.71-.23,.24-.54,.37-.87,.37-.31,0-.61-.12-.84-.34Zm7.85-.19c-.49-.46-.51-1.23-.05-1.71,.46-.49,1.23-.51,1.71-.05,.49,.46,.51,1.23,.05,1.71-.23,.24-.55,.38-.88,.38-.31,0-.6-.12-.83-.33ZM0,72.25c0-.67,.53-1.23,1.2-1.24,.68,0,1.24,.54,1.25,1.22,0,.68-.54,1.24-1.22,1.25h-.02c-.67-.01-1.21-.56-1.21-1.23H0Zm11.02-.29c-.02-.67,.51-1.23,1.18-1.25,.66-.02,1.21,.49,1.25,1.15,.03,.65-.47,1.21-1.13,1.25-.01,0-.03,0-.04,0h-.05c-.65,0-1.19-.5-1.21-1.15h0Zm-9.07-2.83c-.47-.47-.48-1.24,0-1.71,.47-.47,1.24-.48,1.71,0,.47,.47,.48,1.24,0,1.71-.23,.23-.54,.36-.86,.36-.32,0-.63-.13-.85-.35Zm7.68-.16c-.49-.45-.52-1.22-.07-1.71s1.22-.52,1.71-.07c.49,.45,.52,1.22,.07,1.71-.23,.25-.55,.39-.89,.39-.3,0-.6-.11-.82-.32Zm-4.12-2.35c0-.67,.55-1.21,1.21-1.21,.67,0,1.21,.55,1.21,1.21,0,.67-.54,1.21-1.21,1.21-.67,0-1.21-.54-1.21-1.21Z"/>
      <rect id="Rectangle_20" data-name="Rectangle 20" class="cls-1" x="17.23" y="67.75" width="125.5" height="82.5" rx="3.25" ry="3.25"/>
      <path id="Path_4674" data-name="Path 4674" d="M68.35,107.8h-2.6l-.5,1.2h-1.32l2.5-5.6h1.27l2.5,5.6h-1.36l-.49-1.2Zm-.41-.98l-.89-2.14-.89,2.14h1.78Z"/>
      <path id="Path_4675" data-name="Path 4675" d="M26.65,106.37l-1.14,1.16v1.47h-.59v-5.6h.59v3.38l3.29-3.38h.68l-2.42,2.54,2.6,3.06h-.7l-2.29-2.63Zm7.3,.7h-3.52c.02,.41,.2,.79,.5,1.06,.32,.27,.73,.42,1.15,.4,.25,0,.49-.04,.72-.14,.22-.1,.41-.24,.57-.42l.32,.37c-.19,.23-.43,.4-.7,.51-.29,.12-.6,.18-.92,.18-.4,0-.8-.09-1.15-.27-.32-.18-.59-.44-.78-.76-.19-.34-.29-.72-.28-1.1,0-.38,.09-.76,.26-1.1,.17-.32,.43-.58,.74-.76,.32-.18,.69-.28,1.06-.27,.37,0,.73,.09,1.05,.27,.31,.18,.56,.44,.73,.76,.18,.34,.27,.72,.26,1.1v.17Zm-2.04-1.82c-.38,0-.75,.13-1.02,.39-.28,.27-.44,.63-.46,1.01h2.98c-.02-.38-.19-.74-.47-1.01-.28-.26-.64-.4-1.02-.39h0Zm6.65-.46l-2.1,4.71c-.12,.33-.33,.62-.59,.84-.24,.17-.52,.26-.81,.25-.19,0-.39-.03-.57-.1-.17-.06-.33-.16-.46-.29l.26-.42c.2,.21,.48,.32,.77,.32,.18,0,.35-.05,.49-.16,.17-.15,.3-.33,.38-.54l.18-.41-1.88-4.2h.59l1.58,3.58,1.58-3.58h.56Zm6.94,0l-1.59,4.21h-.54l-1.33-3.45-1.33,3.45h-.54l-1.59-4.21h.54l1.32,3.58,1.35-3.58h.49l1.34,3.58,1.34-3.58h.52Zm2.46,4.24c-.38,0-.76-.09-1.1-.27-.32-.18-.58-.45-.77-.76-.37-.69-.37-1.52,0-2.21,.18-.32,.45-.58,.77-.76,.69-.36,1.51-.36,2.19,0,.32,.18,.58,.44,.76,.76,.37,.69,.37,1.52,0,2.21-.18,.32-.44,.59-.76,.77-.34,.18-.71,.28-1.1,.27h0Zm0-.5c.28,0,.56-.06,.8-.2,.24-.14,.43-.34,.56-.58,.27-.54,.27-1.17,0-1.71-.13-.24-.32-.44-.56-.58-.24-.14-.52-.21-.8-.21-.28,0-.56,.07-.81,.21-.24,.14-.43,.34-.56,.58-.27,.54-.27,1.17,0,1.71,.13,.24,.32,.44,.56,.58,.25,.14,.53,.2,.81,.2Zm3.84-2.92c.12-.27,.33-.5,.59-.64,.3-.15,.64-.23,.98-.22v.55h-.14c-.39-.03-.77,.12-1.04,.4-.27,.32-.4,.73-.38,1.14v2.14h-.57v-4.21h.54v.82Zm6.41-2.55v5.94h-.54v-.83c-.16,.27-.4,.5-.68,.65-.29,.15-.62,.23-.94,.22-.37,0-.74-.09-1.07-.27-.32-.18-.58-.44-.75-.76-.36-.7-.36-1.53,0-2.22,.17-.32,.43-.58,.75-.75,.33-.18,.7-.28,1.07-.27,.32,0,.64,.07,.92,.22,.28,.14,.51,.35,.68,.62v-2.53h.57Zm-2.12,5.47c.28,0,.55-.06,.79-.2,.24-.14,.43-.34,.56-.58,.28-.54,.28-1.18,0-1.71-.13-.24-.32-.44-.56-.58-.24-.14-.51-.21-.79-.21-.28,0-.56,.07-.81,.21-.24,.14-.43,.34-.56,.58-.27,.54-.27,1.17,0,1.71,.13,.24,.32,.44,.56,.58,.25,.14,.53,.2,.81,.2Z"/>
      <path id="Path_4676" data-name="Path 4676" d="M26.65,124.37l-1.14,1.16v1.47h-.59v-5.6h.59v3.38l3.29-3.38h.68l-2.42,2.54,2.6,3.06h-.7l-2.29-2.63Zm7.3,.7h-3.52c.02,.41,.2,.79,.5,1.06,.32,.27,.73,.42,1.15,.4,.25,0,.49-.04,.72-.14,.22-.1,.41-.24,.57-.42l.32,.37c-.19,.23-.43,.4-.7,.51-.29,.12-.6,.18-.92,.18-.4,0-.8-.09-1.15-.27-.32-.18-.59-.44-.78-.76-.19-.34-.29-.72-.28-1.1,0-.38,.09-.76,.26-1.1,.17-.32,.43-.58,.74-.76,.32-.18,.69-.28,1.06-.27,.37,0,.73,.09,1.05,.27,.31,.18,.56,.44,.73,.76,.18,.34,.27,.72,.26,1.1v.17Zm-2.04-1.82c-.38,0-.75,.13-1.02,.39-.28,.27-.44,.63-.46,1.01h2.98c-.02-.38-.19-.74-.47-1.01-.28-.26-.64-.4-1.02-.39h0Zm6.65-.46l-2.1,4.71c-.12,.33-.33,.62-.59,.84-.24,.17-.52,.26-.81,.25-.19,0-.39-.03-.57-.1-.17-.06-.33-.16-.46-.29l.26-.42c.2,.21,.48,.32,.77,.32,.18,0,.35-.05,.49-.16,.17-.15,.3-.33,.38-.54l.18-.41-1.88-4.2h.59l1.58,3.58,1.58-3.58h.56Zm6.94,0l-1.59,4.21h-.54l-1.33-3.45-1.33,3.45h-.54l-1.59-4.21h.54l1.32,3.58,1.35-3.58h.49l1.34,3.58,1.34-3.58h.52Zm2.46,4.24c-.38,0-.76-.09-1.1-.27-.32-.18-.58-.45-.77-.76-.37-.69-.37-1.52,0-2.21,.18-.32,.45-.58,.77-.76,.69-.36,1.51-.36,2.19,0,.32,.18,.58,.44,.76,.76,.37,.69,.37,1.52,0,2.21-.18,.32-.44,.59-.76,.77-.34,.18-.71,.28-1.1,.27h0Zm0-.5c.28,0,.56-.06,.8-.2,.24-.14,.43-.34,.56-.58,.27-.54,.27-1.17,0-1.71-.13-.24-.32-.44-.56-.58-.24-.14-.52-.21-.8-.21-.28,0-.56,.07-.81,.21-.24,.14-.43,.34-.56,.58-.27,.54-.27,1.17,0,1.71,.13,.24,.32,.44,.56,.58,.25,.14,.53,.2,.81,.2Zm3.84-2.92c.12-.27,.33-.5,.59-.64,.3-.15,.64-.23,.98-.22v.55h-.14c-.39-.03-.77,.12-1.04,.4-.27,.32-.4,.73-.38,1.14v2.14h-.57v-4.21h.54v.82Zm6.41-2.55v5.94h-.54v-.83c-.16,.27-.4,.5-.68,.65-.29,.15-.62,.23-.94,.22-.37,0-.74-.09-1.07-.27-.32-.18-.58-.44-.75-.76-.36-.7-.36-1.53,0-2.22,.17-.32,.43-.58,.75-.75,.33-.18,.7-.28,1.07-.27,.32,0,.64,.07,.92,.22,.28,.14,.51,.35,.68,.62v-2.53h.57Zm-2.12,5.47c.28,0,.55-.06,.79-.2,.24-.14,.43-.34,.56-.58,.28-.54,.28-1.18,0-1.71-.13-.24-.32-.44-.56-.58-.24-.14-.51-.21-.79-.21-.28,0-.56,.07-.81,.21-.24,.14-.43,.34-.56,.58-.27,.54-.27,1.17,0,1.71,.13,.24,.32,.44,.56,.58,.25,.14,.53,.2,.81,.2Z"/>
      <path id="Path_4677" data-name="Path 4677" d="M68.78,124.09c.3,.09,.56,.27,.75,.51,.19,.25,.28,.56,.27,.87,.02,.45-.2,.88-.58,1.14-.5,.29-1.08,.43-1.66,.39h-2.9v-5.6h2.74c.55-.04,1.1,.1,1.57,.39,.35,.24,.56,.64,.55,1.06,0,.52-.28,1-.74,1.23Zm-2.82-1.71v1.32h1.29c.25,.02,.51-.04,.73-.17,.17-.11,.26-.3,.25-.5,.01-.2-.08-.38-.25-.49-.22-.13-.47-.18-.73-.17h-1.29Zm1.51,3.65c.27,.02,.53-.04,.77-.17,.18-.11,.28-.31,.26-.52,0-.47-.34-.7-1.03-.7h-1.51v1.38h1.51Z"/>
      <path id="Path_4678" data-name="Path 4678" class="cls-5" d="M31.74,87h-6.26v3h6.26v-3Z"/>
      <path id="Path_4679" data-name="Path 4679" class="cls-2" d="M110.13,3.33c2-1.52,4.45-2.34,6.96-2.33,.58,.02,1.14,.24,1.59,.62,.37,.31,.71,.65,1.01,1.02,.22,.26,.34,.59,.33,.93V14.22h-3.19c-.81-2.29-3.33-3.5-5.62-2.68-2.29,.81-3.5,3.33-2.68,5.62,.81,2.29,3.33,3.5,5.62,2.68,1.25-.44,2.24-1.43,2.68-2.68h3.19v27.66c0,.44-.2,.86-.54,1.14-1.49,1.28-3.37,2.01-5.34,2.05-3.04,0-5.91-1.44-7.75-3.86-1.2-1.5-2.03-3.26-2.4-5.14-1.14-.3-2.2-.86-3.1-1.63-1.97-1.78-3.04-4.35-2.9-6.99-.02-1.48,.1-2.95,.35-4.41h9.19c1.85,0,3.4,1.37,3.64,3.2-2.29,.83-3.47,3.35-2.64,5.64,.83,2.29,3.35,3.47,5.64,2.64s3.47-3.35,2.64-5.64c-.45-1.25-1.44-2.22-2.69-2.66-.26-3.45-3.13-6.12-6.59-6.12h-8.25c.42-.86,1.05-1.6,1.84-2.14,.2-.13,.41-.25,.62-.35-.76-2.47-.69-5.12,.19-7.55,.47-1.44,1.32-2.72,2.45-3.72,.73-.61,1.63-.99,2.58-1.07,.44-1.94,1.56-3.67,3.15-4.86h0Zm12.84,34.39h2.2c3.65,0,6.61-2.96,6.61-6.61v-5.39c2.29-.81,3.5-3.33,2.69-5.62-.81-2.29-3.33-3.5-5.62-2.69-2.29,.81-3.5,3.33-2.69,5.62,.44,1.25,1.43,2.24,2.69,2.69v5.39c0,2.03-1.64,3.67-3.67,3.67h-2.2V3.58c0-.34,.12-.67,.33-.93,.3-.37,.64-.72,1.01-1.02,.45-.38,1.01-.6,1.59-.62,2.51,0,4.96,.81,6.96,2.33,1.6,1.19,2.71,2.92,3.15,4.86,.95,.09,1.85,.46,2.58,1.08,1.14,1,1.99,2.28,2.45,3.72,.88,2.43,.95,5.08,.19,7.55,.22,.1,.42,.22,.62,.35,.81,.56,1.45,1.32,1.87,2.22,.96,2.3,1.39,4.78,1.26,7.27,.14,2.65-.93,5.22-2.9,6.99-.9,.77-1.96,1.33-3.1,1.63-.38,1.88-1.2,3.65-2.41,5.15-1.84,2.42-4.71,3.85-7.75,3.86-1.96-.04-3.85-.77-5.33-2.05-.34-.28-.54-.7-.54-1.14v-7.09h0Zm-10.28-23.5c-.81,0-1.47,.66-1.47,1.47,0,.81,.66,1.47,1.47,1.47,.81,0,1.47-.66,1.47-1.47,0-.39-.15-.76-.43-1.04-.28-.27-.65-.43-1.04-.43h0Zm0,17.62c-.81,0-1.47,.66-1.47,1.47,0,.81,.66,1.47,1.47,1.47s1.47-.66,1.47-1.47c0-.39-.15-.76-.43-1.04-.28-.27-.65-.43-1.04-.43h0Zm17.62-8.81c.81,0,1.47-.66,1.47-1.47,0-.81-.66-1.47-1.47-1.47-.81,0-1.47,.66-1.47,1.47,0,.39,.15,.76,.43,1.04,.28,.28,.65,.43,1.04,.43h0Z"/>
    </g>
  </g>
</svg>