<?xml version="1.0" encoding="UTF-8"?>
<svg id="Layer_2" data-name="Layer 2" xmlns="http://www.w3.org/2000/svg" viewBox="0 0 180 152.41">
  <defs>
    <style>
      .cls-1 {
        fill: none;
        stroke: #000;
        stroke-width: 1.5px;
      }

      .cls-2 {
        fill: #1e243a;
      }

      .cls-3 {
        fill: #6c3099;
      }

      .cls-4 {
        fill: #ed1e79;
      }
    </style>
  </defs>
  <g id="Layer_1-2" data-name="Layer 1">
    <g id="Group_47571" data-name="Group 47571">
      <path id="Path_4905" data-name="Path 4905" class="cls-4" d="M41.49,88h-2.49v3h2.49v-3Z"/>
      <path id="Path_4906" data-name="Path 4906" class="cls-3" d="M101.35,17.14v17.02c-.01,.85,.67,1.55,1.52,1.56h12.54c.85-.01,1.53-.71,1.52-1.56V17.14c.01-.85-.67-1.55-1.52-1.57h-12.54c-.85,.01-1.53,.71-1.52,1.57Z"/>
      <path id="Path_4907" data-name="Path 4907" class="cls-4" d="M93.74,17.4v15.57h7.6v-15.57h-7.6Z"/>
      <path id="Path_4908" data-name="Path 4908" d="M102.04,17.88v15.18c0,.48-.39,.87-.87,.87h-31.28c-1.34,0-2.66-.28-3.88-.83l-12.97-5.84c-.99-.44-1.43-1.61-.98-2.59,.2-.44,.55-.79,.98-.98l12.97-5.84c1.22-.55,2.54-.83,3.88-.83h31.28c.48,0,.87,.39,.87,.87h0s0,0,0,0Zm-1.74,14.31v-13.43h-30.41c-1.09,0-2.17,.23-3.16,.68l-12.97,5.84c-.11,.05-.16,.18-.11,.29,.02,.05,.06,.09,.11,.11l12.97,5.84c.99,.45,2.07,.68,3.16,.68h30.41Z"/>
      <path id="Path_4909" data-name="Path 4909" d="M117.9,17.07v16.8c0,1.33-1.08,2.42-2.42,2.42h-12.77c-1.33,0-2.41-1.09-2.41-2.42V17.07c0-1.33,1.08-2.42,2.42-2.42h12.77c1.33,0,2.41,1.09,2.41,2.42Zm-15.86,16.8c0,.37,.3,.67,.67,.67h12.77c.37,0,.67-.3,.67-.67V17.07c0-.37-.3-.67-.67-.67h-12.77c-.37,0-.67,.3-.67,.67v16.8h0Z"/>
      <path id="Path_4910" data-name="Path 4910" d="M68.69,18.52v13.72c0,.48-.39,.87-.87,.87s-.87-.39-.87-.87v-13.72c0-.48,.39-.87,.87-.87s.87,.39,.87,.87Z"/>
      <path id="Path_4911" data-name="Path 4911" d="M60.33,22.76v5.36c0,.48-.39,.87-.87,.87-.48,0-.87-.39-.87-.87v-5.36c0-.48,.39-.87,.87-.87,.48,0,.87,.39,.87,.87Z"/>
      <path id="Path_4912" data-name="Path 4912" d="M126.99,21.02v8.91c0,1.85-1.5,3.35-3.35,3.35h-6.61c-.48,0-.87-.39-.87-.87h0v-13.87c0-.48,.39-.87,.87-.87h6.61c1.85,0,3.35,1.5,3.35,3.35h0Zm-9.09,10.52h5.73c.89,0,1.61-.72,1.61-1.61v-8.91c0-.89-.72-1.61-1.61-1.61h-5.73v12.12h0Z"/>
      <path id="Path_4913" data-name="Path 4913" d="M101.98,25.75c0,.48-.39,.87-.87,.87h-9.85c-.48,0-.87-.39-.87-.87s.39-.87,.87-.87h9.85c.48,0,.87,.39,.87,.87h0Z"/>
      <path id="Path_4914" data-name="Path 4914" d="M79.29,25.75c0,.48-.39,.87-.87,.87h-9.6c-.48,0-.87-.39-.87-.87s.39-.87,.87-.87h9.6c.48,0,.87,.39,.87,.87h0Z"/>
      <path id="Path_4915" data-name="Path 4915" d="M109.96,32.49v2.37c0,.48-.39,.87-.87,.87s-.87-.39-.87-.87v-2.37c0-.48,.39-.87,.87-.87s.87,.39,.87,.87Z"/>
      <path id="Path_4916" data-name="Path 4916" d="M109.96,15.65v11.22c0,.48-.39,.87-.87,.87s-.87-.39-.87-.87h0V15.65c0-.48,.39-.87,.87-.87s.87,.39,.87,.87Z"/>
      <path id="Path_4917" data-name="Path 4917" class="cls-2" d="M155.7,79.6H31.61c-.48,0-.87-.39-.87-.87,0-.48,.39-.87,.87-.87h124.09c.48,0,.87,.39,.87,.87,0,.48-.39,.87-.87,.87Z"/>
      <path id="Path_4918" data-name="Path 4918" class="cls-2" d="M60.37,78.73c-.48,0-.87-.39-.87-.87,0,0,0,0,0,0v-9.45c0-.48,.39-.87,.87-.87s.87,.39,.87,.87v9.45c0,.48-.39,.87-.87,.87h0Z"/>
      <path id="Path_4919" data-name="Path 4919" class="cls-2" d="M39.73,75.67c-1.42,0-2.58-1.15-2.58-2.57s1.15-2.58,2.57-2.58,2.58,1.15,2.58,2.57h0c0,1.42-1.15,2.58-2.57,2.58Zm0-3.41c-.46,0-.84,.37-.84,.83,0,.46,.37,.84,.83,.84s.84-.37,.84-.83c0,0,0,0,0,0,0-.46-.37-.83-.83-.83h0Z"/>
      <path id="Path_4920" data-name="Path 4920" class="cls-2" d="M46.1,75.67c-1.42,0-2.58-1.15-2.58-2.57s1.15-2.58,2.57-2.58c1.42,0,2.58,1.15,2.58,2.57,0,0,0,0,0,0,0,1.42-1.15,2.57-2.57,2.58Zm0-3.41c-.46,0-.84,.37-.84,.83,0,.46,.37,.84,.83,.84s.84-.37,.84-.83c0,0,0,0,0,0,0-.46-.37-.83-.83-.83h0Z"/>
      <path id="Path_4921" data-name="Path 4921" class="cls-2" d="M52.47,75.67c-1.42,0-2.58-1.15-2.58-2.57s1.15-2.58,2.57-2.58c1.42,0,2.58,1.15,2.58,2.57,0,0,0,0,0,0,0,1.42-1.15,2.57-2.57,2.58Zm0-3.41c-.46,0-.84,.37-.84,.83,0,.46,.37,.84,.83,.84s.84-.37,.84-.83c0,0,0,0,0,0,0-.46-.37-.83-.83-.83h0Z"/>
      <path id="Path_4922" data-name="Path 4922" class="cls-2" d="M96.45,72.39h-31.24c-.48,0-.87-.39-.87-.87,0-.48,.39-.87,.87-.87h31.24c.48,0,.87,.39,.87,.87,0,.48-.39,.87-.87,.87h0Z"/>
      <path id="Path_4923" data-name="Path 4923" class="cls-2" d="M126.57,75.87h-61.36c-.48,0-.87-.39-.87-.87,0-.48,.39-.87,.87-.87h61.36c.48,0,.87,.39,.87,.87,0,.48-.39,.87-.87,.87Z"/>
      <path id="Path_4924" data-name="Path 4924" class="cls-2" d="M.93,92.59c-.51,0-.93-.42-.93-.93h0v-1.62c0-.51,.42-.93,.93-.93s.93,.42,.93,.93v1.62c0,.51-.42,.93-.93,.93h0Z"/>
      <path id="Path_4925" data-name="Path 4925" class="cls-2" d="M.93,85c-.51,0-.93-.42-.93-.93,0,0,0,0,0,0v-1.62c0-.51,.42-.93,.93-.93s.93,.42,.93,.93h0v1.62c0,.51-.41,.93-.93,.94,0,0,0,0,0,0Z"/>
      <path id="Path_4926" data-name="Path 4926" class="cls-2" d="M.93,77.41c-.51,0-.93-.42-.93-.93h0v-1.62c0-.51,.42-.93,.93-.93s.93,.42,.93,.93v1.62c0,.51-.42,.93-.93,.93h0Z"/>
      <path id="Path_4927" data-name="Path 4927" class="cls-2" d="M.93,69.82c-.51,0-.93-.42-.93-.93h0v-1.62c0-.51,.42-.93,.93-.93s.93,.42,.93,.93v1.62c0,.51-.42,.93-.93,.93Z"/>
      <path id="Path_4928" data-name="Path 4928" class="cls-2" d="M.93,62.22c-.51,0-.93-.42-.93-.93h0v-1.62c0-.51,.42-.93,.93-.93s.93,.42,.93,.93v1.62c0,.51-.42,.93-.93,.93Z"/>
      <path id="Path_4929" data-name="Path 4929" class="cls-2" d="M.93,54.63c-.51,0-.93-.42-.93-.93,0,0,0,0,0,0v-1.62c0-.51,.42-.93,.93-.93s.93,.42,.93,.93v1.62c0,.51-.41,.93-.93,.93h0Z"/>
      <path id="Path_4930" data-name="Path 4930" class="cls-2" d="M.93,47.04c-.51,0-.93-.42-.93-.93h0v-1.62c0-.51,.42-.93,.93-.93s.93,.42,.93,.93h0v1.62c0,.51-.42,.93-.93,.93h0Z"/>
      <path id="Path_4931" data-name="Path 4931" class="cls-2" d="M.93,39.45c-.51,0-.93-.42-.93-.93h0v-1.62c0-.51,.42-.93,.93-.93s.93,.42,.93,.93v1.62c0,.51-.41,.93-.93,.93,0,0,0,0,0,0Z"/>
      <path id="Path_4932" data-name="Path 4932" class="cls-2" d="M.93,31.86C.42,31.86,0,31.44,0,30.93h0v-1.62C0,28.8,.42,28.38,.93,28.38s.93,.42,.93,.93v1.62c0,.51-.42,.93-.93,.93Z"/>
      <path id="Path_4933" data-name="Path 4933" class="cls-2" d="M.93,127.26c-.51,0-.93-.42-.93-.93h0v-3.11c0-.51,.42-.93,.93-.93s.93,.42,.93,.93h0v3.11c0,.51-.42,.93-.93,.93h0Zm0-8.7c-.51,0-.93-.42-.93-.93h0v-3.11c0-.51,.42-.93,.93-.93s.93,.42,.93,.93v3.11c0,.51-.42,.93-.93,.93h0Zm0-8.7c-.51,0-.93-.42-.93-.93h0v-3.11c0-.51,.42-.93,.93-.93s.93,.42,.93,.93h0v3.11c0,.51-.42,.93-.93,.93h0Zm0-8.7c-.51,0-.93-.42-.93-.93h0v-3.11c0-.51,.42-.93,.93-.93s.93,.42,.93,.93v3.11c0,.51-.42,.93-.93,.93h0Z"/>
      <path id="Path_4934" data-name="Path 4934" class="cls-2" d="M2.48,134.29H.93c-.51,0-.93-.42-.93-.93v-1.55c0-.51,.42-.93,.93-.93s.93,.42,.93,.93v.62h.62c.52,.02,.92,.45,.9,.96-.02,.49-.41,.89-.9,.9h0Z"/>
      <path id="Path_4935" data-name="Path 4935" class="cls-2" d="M12.03,134.29h-3.47c-.52-.02-.92-.45-.9-.96,.02-.49,.41-.89,.9-.9h3.47c.52,.02,.92,.45,.9,.96-.02,.49-.41,.89-.9,.9Z"/>
      <path id="Path_4936" data-name="Path 4936" class="cls-2" d="M19.71,134.29h-1.61c-.52-.02-.92-.45-.9-.96,.02-.49,.41-.89,.9-.9h1.61c.52,.02,.92,.45,.9,.96-.02,.49-.41,.89-.9,.9h0Z"/>
      <path id="Path_4937" data-name="Path 4937" class="cls-2" d="M179.07,81.28c-.51,0-.93-.42-.93-.93v-1.62c-.02-.51,.39-.94,.9-.96,.51-.02,.94,.39,.96,.9,0,.02,0,.04,0,.06v1.62c0,.51-.42,.93-.93,.93h0Z"/>
      <path id="Path_4938" data-name="Path 4938" class="cls-2" d="M179.07,74c-.51,0-.93-.42-.93-.93v-1.61c-.02-.51,.39-.94,.9-.96,.51-.02,.94,.39,.96,.9,0,.02,0,.04,0,.06v1.62c0,.51-.42,.93-.93,.93Z"/>
      <path id="Path_4939" data-name="Path 4939" class="cls-2" d="M179.07,66.73c-.51,0-.93-.42-.93-.93v-1.62c-.02-.51,.39-.94,.9-.96,.51-.02,.94,.39,.96,.9,0,.02,0,.04,0,.06v1.61c0,.51-.41,.93-.93,.93h0Z"/>
      <path id="Path_4940" data-name="Path 4940" class="cls-2" d="M179.07,59.46c-.51,0-.93-.42-.93-.93v-1.62c-.02-.51,.39-.94,.9-.96,.51-.02,.94,.39,.96,.9,0,.02,0,.04,0,.06v1.62c0,.51-.42,.93-.93,.93Z"/>
      <path id="Path_4941" data-name="Path 4941" class="cls-2" d="M179.07,52.19c-.51,0-.93-.42-.93-.93v-1.62c-.02-.51,.39-.94,.9-.96,.51-.02,.94,.39,.96,.9,0,.02,0,.04,0,.06v1.62c0,.51-.42,.93-.93,.93Z"/>
      <path id="Path_4942" data-name="Path 4942" class="cls-2" d="M179.07,44.92c-.51,0-.93-.42-.93-.93v-1.62c-.02-.51,.39-.94,.9-.96,.51-.02,.94,.39,.96,.9,0,.02,0,.04,0,.06v1.62c0,.51-.42,.93-.93,.93Z"/>
      <path id="Path_4943" data-name="Path 4943" class="cls-2" d="M179.07,37.65c-.51,0-.93-.42-.93-.93v-1.62c-.02-.51,.39-.94,.9-.96,.51-.02,.94,.39,.96,.9,0,.02,0,.04,0,.06v1.62c0,.51-.42,.93-.93,.93Z"/>
      <path id="Path_4944" data-name="Path 4944" class="cls-2" d="M179.07,30.38c-.51,0-.93-.42-.93-.93v-1.62c-.02-.51,.39-.94,.9-.96,.51-.02,.94,.39,.96,.9,0,.02,0,.04,0,.06v1.62c0,.51-.42,.93-.93,.93Z"/>
      <path id="Path_4945" data-name="Path 4945" class="cls-2" d="M179.07,126.64c-.51,0-.93-.42-.93-.93v-3.23c0-.51,.42-.93,.93-.93s.93,.42,.93,.93v3.23c0,.51-.42,.93-.93,.93Zm0-9.07c-.51,0-.93-.42-.93-.93v-3.24c0-.51,.42-.93,.93-.93s.93,.42,.93,.93v3.23c0,.51-.41,.93-.93,.94,0,0,0,0,0,0Zm0-9.07c-.51,0-.93-.42-.93-.93v-3.23c0-.51,.42-.93,.93-.93s.93,.42,.93,.93h0v3.23c0,.51-.41,.93-.92,.94,0,0,0,0,0,0h0Zm0-9.08c-.51,0-.93-.42-.93-.93v-3.23c0-.51,.42-.93,.93-.93s.93,.42,.93,.93v3.23c0,.51-.42,.93-.93,.93Zm0-9.07c-.51,0-.93-.42-.93-.93v-3.23c0-.51,.42-.93,.93-.93s.93,.42,.93,.93h0v3.23c0,.51-.42,.93-.93,.93h0Z"/>
      <path id="Path_4946" data-name="Path 4946" class="cls-2" d="M179.07,134.29h-1.55c-.52-.02-.92-.45-.9-.96,.02-.49,.41-.89,.9-.9h.62v-.62c0-.51,.42-.93,.93-.93s.93,.42,.93,.93v1.55c0,.51-.42,.93-.93,.93Z"/>
      <path id="Path_4947" data-name="Path 4947" class="cls-2" d="M171.69,134.29h-3.22c-.52-.02-.92-.45-.9-.96,.02-.49,.41-.89,.9-.9h3.22c.52,.02,.92,.45,.9,.96-.02,.49-.41,.89-.9,.9Z"/>
      <path id="Path_4948" data-name="Path 4948" class="cls-2" d="M170.53,26.6h-3.23c-.51,0-.93-.42-.93-.93s.42-.93,.93-.93h3.22c.51,0,.93,.42,.93,.93s-.42,.93-.93,.93h0Z"/>
      <path id="Path_4949" data-name="Path 4949" class="cls-2" d="M161.37,26.6h-3.22c-.51,0-.93-.42-.93-.93s.42-.93,.93-.93h3.22c.51,0,.93,.42,.93,.93s-.42,.93-.93,.93h0Z"/>
      <path id="Path_4950" data-name="Path 4950" class="cls-2" d="M152.21,26.6h-3.22c-.51,0-.93-.42-.93-.93s.42-.93,.93-.93h3.22c.51,0,.93,.42,.93,.93s-.42,.93-.93,.93Z"/>
      <path id="Path_4951" data-name="Path 4951" class="cls-2" d="M143.05,26.6h-3.22c-.51,0-.93-.42-.93-.93s.42-.93,.93-.93h3.22c.51,0,.93,.42,.93,.93s-.42,.93-.93,.93Z"/>
      <path id="Path_4952" data-name="Path 4952" class="cls-2" d="M133.89,26.6h-3.22c-.51,0-.93-.42-.93-.93s.42-.93,.93-.93h3.22c.51,0,.93,.42,.93,.93s-.42,.93-.93,.93Z"/>
      <path id="Path_4953" data-name="Path 4953" class="cls-2" d="M46.88,26.6h-3.22c-.51,0-.93-.42-.93-.93s.42-.93,.93-.93h3.22c.51,0,.93,.42,.93,.93s-.42,.93-.93,.93h0Z"/>
      <path id="Path_4954" data-name="Path 4954" class="cls-2" d="M37.72,26.6h-3.22c-.51,0-.93-.42-.93-.93s.42-.93,.93-.93h3.22c.51,0,.93,.42,.93,.93s-.42,.93-.93,.93h0Z"/>
      <path id="Path_4955" data-name="Path 4955" class="cls-2" d="M28.56,26.6h-3.22c-.51,0-.93-.42-.93-.93s.42-.93,.93-.93h3.22c.51,0,.93,.42,.93,.93s-.42,.93-.93,.93h0Z"/>
      <path id="Path_4956" data-name="Path 4956" class="cls-2" d="M19.4,26.6h-3.22c-.51,0-.93-.42-.93-.93s.42-.93,.93-.93h3.22c.51,0,.93,.42,.93,.93s-.42,.93-.93,.93Z"/>
      <path id="Path_4957" data-name="Path 4957" class="cls-2" d="M10.24,26.6h-3.22c-.51,0-.93-.42-.93-.93s.42-.93,.93-.93h3.22c.51,0,.93,.42,.93,.93s-.42,.93-.93,.93h0Z"/>
      <path id="Path_4958" data-name="Path 4958" class="cls-2" d="M162.52,134.29h-1.49c-.52-.02-.92-.45-.9-.96,.02-.49,.41-.89,.9-.9h1.49c.52,.02,.92,.45,.9,.96-.02,.49-.41,.89-.9,.9Z"/>
      <path id="Path_4959" data-name="Path 4959" class="cls-2" d="M70.1,44.24c-.51,0-.93-.42-.93-.93h0v-5.59c-.02-.51,.39-.94,.9-.96,.51-.02,.94,.39,.96,.9,0,.02,0,.04,0,.06v5.59c0,.51-.42,.93-.93,.93Z"/>
      <path id="Path_4960" data-name="Path 4960" class="cls-2" d="M73.02,41.57h-5.58c-.51,0-.93-.42-.93-.93,0-.51,.42-.93,.93-.93h5.58c.51,0,.93,.42,.93,.93,0,.51-.42,.93-.93,.93h0Z"/>
      <path id="Path_4961" data-name="Path 4961" class="cls-2" d="M87.02,12.54c0-.68,.56-1.24,1.24-1.24,.66,0,1.2,.51,1.24,1.17,.02,.67-.5,1.23-1.17,1.25-.01,0-.02,0-.04,0h-.03c-.67,.01-1.22-.52-1.24-1.19Zm-3.67-.69c-.49-.48-.5-1.26-.03-1.75,.48-.49,1.26-.5,1.75-.03,.49,.48,.5,1.26,.03,1.75-.23,.24-.55,.38-.89,.38-.32,0-.63-.13-.86-.35Zm8.03-.19c-.5-.47-.52-1.25-.05-1.75,.47-.5,1.25-.52,1.75-.05s.52,1.25,.05,1.75c-.23,.25-.56,.39-.9,.39-.32,0-.62-.12-.85-.34Zm-10.13-4.67c0-.68,.57-1.23,1.25-1.23,.68,0,1.23,.57,1.23,1.25,0,.67-.55,1.22-1.23,1.23h-.01c-.68-.01-1.23-.57-1.24-1.25Zm11.27-.3c-.03-.68,.5-1.26,1.19-1.29,.68-.03,1.26,.5,1.29,1.19,.04,.67-.47,1.24-1.14,1.28-.02,0-.03,0-.05,0h-.05c-.66,0-1.21-.52-1.24-1.18h0Zm-9.27-2.91c-.49-.48-.49-1.27-.01-1.76,.49-.49,1.28-.49,1.78,0,.44,.5,.46,1.24,.04,1.76,0,.25-.59,.37-.91,.37-.34,0-.66-.13-.9-.36h0Zm7.85-.17c-.5-.46-.54-1.25-.07-1.75,.46-.5,1.25-.54,1.75-.07,.5,.46,.54,1.25,.07,1.75-.23,.25-.56,.4-.91,.4-.31,0-.61-.11-.84-.32h0Zm-4.21-2.41C86.87,.55,87.43,0,88.12,0c.68,0,1.24,.56,1.24,1.24,0,.68-.56,1.24-1.24,1.24-.68,0-1.24-.55-1.24-1.24h0Z"/>
      <path id="Path_4962" data-name="Path 4962" class="cls-2" d="M106.35,59.77c0-.68,.56-1.24,1.24-1.24,.66,0,1.2,.51,1.24,1.17,.02,.67-.5,1.23-1.17,1.25-.01,0-.02,0-.04,0h-.03c-.67,.01-1.22-.52-1.24-1.18Zm-3.67-.69c-.49-.48-.51-1.26-.03-1.75,.48-.49,1.26-.51,1.75-.03s.51,1.26,.03,1.75c0,0,0,0,0,0-.47,.49-1.26,.51-1.75,.03h0Zm8.03-.19c-.5-.47-.52-1.25-.05-1.75,.47-.5,1.25-.52,1.75-.05s.52,1.25,.05,1.75c-.23,.25-.56,.39-.9,.39-.32,0-.62-.12-.85-.34Zm-10.13-4.66c0-.68,.57-1.23,1.25-1.23s1.23,.57,1.23,1.25c0,.67-.55,1.22-1.22,1.23h-.01c-.68-.01-1.23-.57-1.24-1.26h0Zm11.27-.3c-.03-.68,.5-1.26,1.19-1.29,.68-.03,1.26,.5,1.29,1.19,.03,.67-.48,1.24-1.15,1.27-.01,0-.03,0-.04,0h-.05c-.66,0-1.21-.52-1.24-1.18h0Zm-9.27-2.9c-.48-.48-.49-1.26,0-1.75,.48-.48,1.26-.49,1.75,0,.48,.48,.49,1.26,0,1.75-.23,.23-.55,.37-.88,.37-.33,0-.64-.13-.87-.36Zm7.85-.16c-.5-.46-.54-1.25-.07-1.75s1.25-.54,1.75-.07c.5,.46,.54,1.25,.07,1.75-.23,.25-.56,.4-.91,.4-.31,0-.61-.12-.84-.33h0Zm-4.19-2.4c0-.68,.54-1.24,1.23-1.24,0,0,0,0,0,0,.69,0,1.25,.56,1.25,1.24-.02,.67-.56,1.22-1.23,1.24,0,0-1.25-.56-1.25-1.24h0Z"/>
      <path id="Path_4963" data-name="Path 4963" class="cls-2" d="M18.59,77.42c0-.68,.56-1.24,1.24-1.24,.66,0,1.2,.51,1.24,1.17,.02,.67-.51,1.23-1.18,1.25-.01,0-.02,0-.03,0h-.03c-.67,.01-1.22-.52-1.24-1.18h0Zm-3.67-.68c-.49-.48-.51-1.26-.03-1.75,.48-.49,1.26-.51,1.75-.03,.49,.48,.51,1.26,.03,1.75-.23,.24-.56,.38-.89,.38-.32,0-.63-.13-.86-.35Zm8.03-.19c-.5-.47-.52-1.25-.05-1.75,.47-.5,1.25-.52,1.75-.05,.5,.47,.52,1.25,.05,1.75-.23,.25-.56,.39-.9,.39-.32,0-.62-.12-.85-.34Zm-10.13-4.66c0-.68,.57-1.23,1.25-1.23s1.23,.57,1.23,1.25c0,.67-.55,1.22-1.22,1.23h-.02c-.68-.01-1.23-.57-1.24-1.25h0Zm11.27-.3c-.03-.68,.5-1.26,1.19-1.29,.68-.03,1.26,.5,1.29,1.19,.03,.67-.48,1.24-1.15,1.27-.01,0-.03,0-.04,0h-.05c-.66,0-1.21-.52-1.24-1.18h0Zm-9.27-2.9c-.48-.48-.49-1.26,0-1.75,.48-.48,1.26-.49,1.75,0s.49,1.26,0,1.75c-.23,.23-.55,.37-.88,.37-.33,0-.64-.13-.87-.36h0Zm7.85-.17c-.5-.46-.54-1.25-.07-1.75,.46-.5,1.25-.54,1.75-.07,.5,.46,.54,1.25,.07,1.75-.23,.25-.56,.4-.91,.4-.31,0-.61-.12-.84-.33h0Zm-4.21-2.4c0-.68,.56-1.24,1.24-1.24s1.24,.56,1.24,1.24c0,.68-.56,1.24-1.24,1.24-.68,0-1.24-.56-1.24-1.24h0Z"/>
      <rect id="Rectangle_21" data-name="Rectangle 21" class="cls-1" x="30.41" y="67.26" width="128.37" height="84.4" rx="3.25" ry="3.25"/>
      <path id="Path_4964" data-name="Path 4964" class="cls-3" d="M144,114H40v1h104v-1Z"/>
      <path id="Path_4965" data-name="Path 4965" class="cls-3" d="M144,131H40v1h104v-1Z"/>
      <path id="Path_4966" data-name="Path 4966" d="M65.85,108h1.36l-2.5-5.6h-1.28l-2.5,5.6h1.33l.5-1.2h2.6l.49,1.2Zm-2.68-2.18l.89-2.14,.89,2.14h-1.78Z"/>
      <path id="Path_4967" data-name="Path 4967" d="M42.46,108.05c1.43,0,2.09-.7,2.09-1.53,0-2.04-3.45-1.11-3.45-2.65,0-.56,.46-1.02,1.48-1.02,.55,0,1.08,.17,1.54,.46l.2-.47c-.52-.33-1.12-.51-1.74-.5-1.42,0-2.06,.71-2.06,1.54,0,2.07,3.45,1.13,3.45,2.66,0,.55-.46,.99-1.5,.99-.68,0-1.34-.23-1.85-.68l-.23,.46c.58,.5,1.32,.76,2.08,.73Zm6.51-.05h.7l-1.97-2.49,1.8-1.72h-.7l-2.51,2.3v-4.02h-.57v5.93h.57v-1.2l.99-.91,1.69,2.11Zm1.77-5.13c.23,0,.41-.17,.42-.4,0,0,0-.01,0-.02,0-.22-.19-.4-.41-.39,0,0,0,0,0,0-.22,0-.4,.18-.4,.4s.18,.4,.4,.4Zm-.29,5.13h.57v-4.21h-.57v4.21Zm2.15,0h.57v-5.94h-.57v5.94Zm2.15,0h.57v-5.94h-.57v5.94Z"/>
      <path id="Path_4968" data-name="Path 4968" d="M42.46,126.05c-.41,0-.81-.07-1.2-.2-.33-.1-.63-.28-.88-.53l.23-.46c.23,.22,.51,.39,.81,.5,.33,.12,.69,.18,1.04,.18,.4,.03,.79-.07,1.13-.27,.24-.16,.38-.43,.38-.72,0-.2-.07-.39-.21-.54-.14-.14-.31-.24-.5-.3-.27-.1-.54-.18-.82-.24-.34-.08-.68-.18-1.01-.3-.25-.1-.47-.26-.65-.46-.19-.23-.28-.53-.26-.82,0-.27,.07-.54,.22-.77,.17-.25,.41-.45,.69-.56,.37-.15,.76-.22,1.15-.21,.32,0,.63,.05,.94,.14,.29,.07,.56,.2,.8,.36l-.2,.47c-.23-.15-.48-.27-.75-.34-.25-.08-.52-.12-.78-.12-.39-.03-.78,.07-1.11,.29-.24,.17-.37,.44-.37,.73,0,.2,.06,.4,.2,.54,.15,.14,.32,.24,.51,.31,.21,.07,.49,.15,.83,.23,.34,.08,.67,.18,.99,.3,.25,.09,.47,.25,.65,.45,.19,.23,.28,.52,.26,.81,0,.28-.08,.55-.23,.78-.17,.25-.42,.44-.7,.55-.37,.14-.76,.2-1.15,.19Zm4.82-2.16l-.99,.91v1.2h-.57v-5.94h.57v4.02l2.51-2.3h.7l-1.8,1.72,1.97,2.49h-.7l-1.69-2.11Zm3.18-2.1h.57v4.21h-.57v-4.21Zm.29-.92c-.11,0-.22-.04-.3-.12-.08-.08-.12-.18-.12-.29,0-.11,.04-.21,.12-.28,.16-.16,.43-.16,.59,0,.08,.07,.12,.17,.12,.27,0,.23-.18,.41-.4,.42,0,0,0,0-.01,0h0Zm1.86-.81h.57v5.94h-.57v-5.94Zm2.15,0h.57v5.94h-.57v-5.94Z"/>
      <path id="Path_4969" data-name="Path 4969" d="M65.78,123.09c.47-.23,.75-.71,.74-1.23,0-.87-.72-1.46-2.12-1.46h-2.74v5.6h2.9c1.47,0,2.24-.56,2.24-1.53,.02-.64-.4-1.22-1.03-1.38Zm-1.54-1.71c.63,0,.98,.22,.98,.66s-.34,.66-.98,.66h-1.29v-1.32h1.29Zm.22,3.65h-1.51v-1.38h1.51c.67,0,1.03,.22,1.03,.7s-.36,.68-1.03,.68Z"/>
    </g>
  </g>
</svg>