<?xml version="1.0" encoding="UTF-8"?>
<svg id="Layer_2" data-name="Layer 2" xmlns="http://www.w3.org/2000/svg" viewBox="0 0 183 151.49">
  <defs>
    <style>
      .cls-1 {
        fill: #6c3099;
      }

      .cls-2 {
        fill: #ed1e79;
      }

      .cls-3 {
        fill: none;
        stroke: #000;
      }
    </style>
  </defs>
  <g id="Layer_1-2" data-name="Layer 1">
    <g id="Group_47564" data-name="Group 47564">
      <path id="Path_4581" data-name="Path 4581" class="cls-1" d="M180.98,18.79h-3.73c-.55,0-1.04-.38-1.17-.91-.28-1.11-.68-2.2-1.19-3.23-.23-.46-.14-1.03,.23-1.39l2.52-2.52c.47-.47,.47-1.24,0-1.71,0,0,0,0,0,0l-3.7-3.7c-.47-.47-1.24-.47-1.71,0l-2.22,2.22c-.39,.39-1.01,.47-1.48,.18-1.1-.66-2.27-1.2-3.49-1.6-.5-.16-.83-.63-.83-1.15V2.02c0-.67-.54-1.21-1.2-1.21,0,0,0,0,0,0h-5.25c-.67,0-1.21,.54-1.21,1.21h0v2.64c0,.55-.37,1.03-.91,1.17-1.34,.35-2.63,.86-3.84,1.53-.47,.26-1.05,.17-1.43-.2l-1.83-1.83c-.47-.47-1.24-.47-1.71,0l-3.78,3.78c-.47,.47-.47,1.24,0,1.71l1.84,1.84c.38,.38,.46,.96,.21,1.43-.65,1.21-1.15,2.49-1.51,3.82-.14,.53-.62,.91-1.17,.91h-2.64c-.67,0-1.21,.53-1.21,1.2h0s0,5.25,0,5.25c0,.67,.54,1.21,1.21,1.21,0,0,0,0,0,0h2.95c.52,0,.99,.34,1.15,.83,.4,1.22,.94,2.39,1.6,3.49,.29,.48,.21,1.09-.18,1.48l-2.25,2.25c-.47,.47-.47,1.24,0,1.71l3.7,3.7c.47,.47,1.24,.47,1.71,0l2.55-2.55c.37-.37,.93-.46,1.4-.23,1.03,.51,2.11,.91,3.23,1.2,.54,.14,.91,.62,.91,1.17v3.7c0,.67,.54,1.21,1.21,1.21h5.26c.67,0,1.21-.54,1.21-1.21h0s0-3.98,0-3.98c0-.53,.34-.99,.84-1.15,.98-.31,1.93-.72,2.83-1.21,.47-.26,1.05-.18,1.44,.2l2.85,2.85c.47,.47,1.24,.47,1.71,0l3.78-3.78c.47-.47,.47-1.24,0-1.71l-2.85-2.85c-.38-.38-.46-.96-.21-1.43,.5-.91,.91-1.87,1.23-2.86,.16-.5,.63-.84,1.15-.84h4.02c.67,0,1.21-.54,1.21-1.21v-5.25c0-.67-.54-1.21-1.21-1.21h0Zm-14,10.44c-3.98,3.98-10.42,3.97-14.4,0-3.98-3.98-3.97-10.42,0-14.4,3.98-3.97,10.42-3.97,14.4,0,3.98,3.97,3.98,10.42,0,14.4,0,0,0,0,0,0h0Z"/>
      <path id="Path_4582" data-name="Path 4582" d="M159.78,33.03c-6.07,0-10.99-4.92-10.99-10.99,0-6.07,4.92-10.99,10.99-10.99,6.07,0,10.99,4.92,10.99,10.99,0,2.92-1.16,5.71-3.22,7.77-2.06,2.07-4.86,3.23-7.77,3.22Zm0-20.36c-5.17,0-9.37,4.19-9.37,9.37,0,5.17,4.19,9.37,9.37,9.37,5.17,0,9.37-4.19,9.37-9.37,0-2.48-.99-4.87-2.74-6.62-1.75-1.76-4.14-2.75-6.62-2.74Z"/>
      <path id="Path_4583" data-name="Path 4583" d="M162.99,45.25h-5.26c-1.11,0-2.02-.9-2.02-2.02v-3.7c0-.18-.12-.34-.3-.38-1.17-.3-2.3-.72-3.38-1.26-.15-.08-.34-.05-.46,.07l-2.55,2.55c-.79,.79-2.07,.79-2.86,0l-3.7-3.7c-.79-.79-.79-2.07,0-2.86l2.25-2.25c.13-.13,.15-.33,.06-.49-.69-1.15-1.26-2.38-1.68-3.66-.05-.16-.2-.27-.38-.27h-2.95c-1.12,0-2.02-.9-2.02-2.02v-5.24c0-1.12,.9-2.02,2.02-2.02h2.63c.18,0,.34-.12,.39-.29,.37-1.39,.9-2.73,1.58-3.99,.08-.15,.06-.35-.07-.47l-1.84-1.84c-.79-.79-.79-2.07,0-2.86l3.78-3.78c.79-.79,2.07-.79,2.86,0l1.83,1.83c.12,.12,.32,.15,.47,.07,1.27-.7,2.63-1.23,4.03-1.6,.18-.05,.3-.2,.3-.38V2.03C155.73,.91,156.63,0,157.75,0h0s5.25,0,5.25,0c1.11,0,2.02,.9,2.02,2.02h0v2.95c0,.17,.11,.32,.27,.38,1.28,.42,2.5,.98,3.66,1.68,.16,.1,.36,.07,.49-.06l2.22-2.22c.79-.79,2.07-.79,2.86,0l3.7,3.7c.79,.79,.79,2.07,0,2.86l-2.52,2.52c-.12,.12-.15,.31-.07,.46,.53,1.08,.95,2.22,1.25,3.39,.05,.18,.2,.3,.38,.3h3.73c1.12,0,2.02,.91,2.02,2.02v5.25c0,1.11-.9,2.02-2.01,2.02,0,0,0,0,0,0h-4.02c-.17,0-.33,.11-.38,.28-.33,1.04-.76,2.04-1.28,3-.08,.15-.06,.35,.07,.47l2.85,2.85c.79,.79,.79,2.07,0,2.86l-3.78,3.77c-.79,.79-2.07,.79-2.86,0l-2.85-2.85c-.13-.12-.32-.15-.47-.07-.95,.52-1.94,.94-2.97,1.27-.17,.05-.28,.21-.28,.38v3.98c.01,1.12-.89,2.02-2,2.03,0,0,0,0,0,0h0Zm-11.15-9.03c.31,0,.62,.07,.9,.21,.98,.49,2.01,.87,3.07,1.14,.89,.23,1.52,1.03,1.52,1.96v3.7c0,.22,.18,.4,.4,.4h5.26c.22,0,.4-.18,.4-.4v-3.98c0-.88,.56-1.66,1.39-1.93,.93-.3,1.83-.68,2.69-1.15,.79-.43,1.76-.29,2.4,.34l2.85,2.85c.16,.15,.41,.15,.56,0l3.78-3.78c.15-.16,.15-.41,0-.56l-2.85-2.85c-.63-.64-.77-1.61-.34-2.4,.47-.87,.86-1.78,1.16-2.72,.27-.84,1.04-1.41,1.92-1.41h4.02c.22,0,.4-.18,.4-.4v-5.24c0-.11-.04-.21-.12-.28-.07-.07-.18-.12-.28-.12h-3.73c-.92,0-1.73-.63-1.96-1.52-.27-1.06-.65-2.09-1.13-3.07-.39-.78-.23-1.71,.38-2.33l2.52-2.52c.15-.16,.15-.41,0-.56l-3.7-3.7c-.16-.15-.41-.15-.56,0l-2.22,2.22c-.66,.66-1.68,.78-2.48,.3-1.05-.63-2.16-1.14-3.32-1.53-.83-.27-1.39-1.05-1.39-1.92V2.02c0-.22-.18-.4-.4-.4h-5.25c-.11,0-.21,.04-.28,.12-.08,.07-.12,.18-.12,.28v2.64c0,.92-.62,1.73-1.51,1.96-1.27,.33-2.5,.82-3.66,1.45-.79,.43-1.76,.29-2.4-.34l-1.82-1.83c-.16-.15-.41-.15-.56,0l-3.79,3.78c-.15,.16-.15,.41,0,.56l1.84,1.84c.63,.63,.78,1.6,.35,2.39-.62,1.16-1.1,2.38-1.44,3.64-.23,.89-1.04,1.51-1.95,1.51h-2.64c-.11,0-.21,.03-.28,.11-.08,.07-.12,.18-.12,.28v5.24c0,.22,.18,.4,.4,.4h2.95c.88,0,1.65,.56,1.92,1.4,.38,1.16,.89,2.28,1.52,3.33,.48,.8,.36,1.82-.3,2.47l-2.25,2.24c-.15,.16-.15,.41,0,.56l3.7,3.7c.16,.15,.41,.15,.56,0l2.55-2.55c.38-.38,.89-.59,1.43-.59h0Z"/>
      <path id="Path_4584" data-name="Path 4584" class="cls-2" d="M5.19,8.88c-.22,0-.42-.09-.57-.24l-1.84-1.84c-.32-.31-.34-.82-.03-1.15,.31-.32,.82-.34,1.15-.03,0,0,.02,.02,.03,.03l1.27,1.27,3.8-3.8c.32-.31,.84-.3,1.15,.03,.3,.31,.3,.81,0,1.12l-4.37,4.37c-.15,.15-.36,.24-.57,.24h0Z"/>
      <path id="Path_4585" data-name="Path 4585" d="M5.35,12.34C2.4,12.34,0,9.94,0,6.98S2.4,1.63,5.35,1.63c.45-.02,.82,.33,.84,.78,.02,.45-.33,.82-.78,.84-.02,0-.04,0-.06,0-2.06,0-3.73,1.67-3.73,3.73s1.67,3.73,3.73,3.73,3.73-1.67,3.73-3.73h0c-.02-.45,.33-.82,.78-.84s.82,.33,.84,.78c0,.02,0,.04,0,.06,0,2.96-2.4,5.35-5.35,5.35h0Z"/>
      <path id="Path_4586" data-name="Path 4586" d="M37.69,5.76H14.27c-.45,.02-.82-.33-.84-.78-.02-.45,.33-.82,.78-.84,.02,0,.04,0,.06,0h23.42c.45,.02,.8,.39,.78,.84-.01,.43-.36,.77-.78,.78Z"/>
      <path id="Path_4587" data-name="Path 4587" d="M52.53,10.17H14.27c-.45,.02-.82-.33-.84-.78s.33-.82,.78-.84c.02,0,.04,0,.06,0H52.53c.45,.02,.8,.39,.78,.84-.01,.43-.36,.77-.78,.78Z"/>
      <path id="Path_4588" data-name="Path 4588" class="cls-2" d="M5.19,27.55c-.22,0-.42-.09-.57-.24l-1.84-1.84c-.32-.31-.34-.82-.03-1.15,.31-.32,.82-.34,1.15-.03,0,0,.02,.02,.03,.03l1.27,1.27,3.8-3.8c.31-.32,.82-.34,1.15-.03,.32,.31,.34,.82,.03,1.15,0,0-.02,.02-.03,.03l-4.37,4.37c-.15,.15-.36,.24-.57,.24Z"/>
      <path id="Path_4589" data-name="Path 4589" d="M5.35,31.01C2.4,31.01,0,28.61,0,25.66c0-2.96,2.4-5.35,5.35-5.35h0c.45,.02,.8,.39,.78,.84-.01,.43-.36,.77-.78,.78-2.06,0-3.73,1.67-3.73,3.73s1.67,3.73,3.73,3.73,3.73-1.67,3.73-3.73h0c.02-.45,.39-.8,.84-.78,.43,.01,.77,.36,.78,.78,0,2.96-2.4,5.35-5.35,5.35Z"/>
      <path id="Path_4590" data-name="Path 4590" d="M37.69,24.31H14.27c-.45,.02-.82-.33-.84-.78-.02-.45,.33-.82,.78-.84,.02,0,.04,0,.06,0h23.42c.45,.02,.8,.39,.78,.84-.01,.43-.36,.77-.78,.78Z"/>
      <path id="Path_4591" data-name="Path 4591" d="M52.53,28.72H14.27c-.45,.02-.82-.33-.84-.78-.02-.45,.33-.82,.78-.84,.02,0,.04,0,.06,0H52.53c.45,.02,.8,.39,.78,.84-.01,.43-.36,.77-.78,.78Z"/>
      <path id="Path_4592" data-name="Path 4592" class="cls-2" d="M5.19,46.23c-.22,0-.42-.09-.57-.24l-1.84-1.84c-.31-.32-.3-.84,.03-1.15,.31-.3,.81-.3,1.12,0l1.27,1.27,3.8-3.8c.32-.31,.84-.3,1.15,.03,.3,.31,.3,.81,0,1.12l-4.37,4.37c-.15,.15-.36,.24-.57,.24Z"/>
      <path id="Path_4593" data-name="Path 4593" d="M5.35,49.68C2.4,49.68,0,47.29,0,44.33s2.4-5.35,5.35-5.35c.45,.02,.8,.39,.78,.84-.01,.43-.36,.77-.78,.78-2.06,0-3.73,1.67-3.73,3.73s1.67,3.73,3.73,3.73,3.73-1.67,3.73-3.73h0c.02-.45,.39-.8,.84-.78,.43,.01,.77,.36,.78,.78,0,2.96-2.4,5.35-5.35,5.35Z"/>
      <path id="Path_4594" data-name="Path 4594" d="M37.69,43.09H14.27c-.45,.02-.82-.33-.84-.78-.02-.45,.33-.82,.78-.84,.02,0,.04,0,.06,0h23.42c.45,.02,.8,.39,.78,.84-.01,.43-.36,.77-.78,.78Z"/>
      <path id="Path_4595" data-name="Path 4595" d="M52.53,47.5H14.27c-.45,.02-.82-.33-.84-.78-.02-.45,.33-.82,.78-.84,.02,0,.04,0,.06,0H52.53c.45,.02,.8,.39,.78,.84-.01,.43-.36,.77-.78,.78Z"/>
      <path id="Path_4596" data-name="Path 4596" d="M144.7,122.97H37.58c-.45,.02-.82-.33-.84-.78-.02-.45,.33-.82,.78-.84,.02,0,.04,0,.06,0h107.12c.45-.02,.82,.33,.84,.78,.02,.45-.33,.82-.78,.84-.02,0-.04,0-.06,0Z"/>
      <path id="Path_4597" data-name="Path 4597" d="M78.73,151.03c-.45,0-.81-.36-.81-.81h0v-16.7c-.02-.45,.33-.82,.78-.84,.45-.02,.82,.33,.84,.78,0,.02,0,.04,0,.06v16.69c0,.45-.36,.81-.81,.81h0Z"/>
      <path id="Path_4598" data-name="Path 4598" d="M103.54,151.03c-.45,0-.81-.36-.81-.81h0v-16.7c0-.45,.36-.81,.81-.81s.81,.36,.81,.81v16.69c0,.45-.36,.81-.81,.81h0Z"/>
      <path id="Path_4599" data-name="Path 4599" d="M114.44,151.49h-46.49c-.45,0-.81-.37-.81-.81,0-.45,.36-.81,.81-.81h46.49c.45,0,.81,.37,.81,.81,0,.45-.36,.81-.81,.81Z"/>
      <path id="Path_4600" data-name="Path 4600" d="M91.14,130.53c-1.58,0-2.87-1.28-2.87-2.86,0-1.58,1.28-2.87,2.86-2.87,1.58,0,2.87,1.28,2.87,2.86h0c0,1.58-1.28,2.87-2.86,2.87Zm0-4.11c-.69,0-1.24,.56-1.24,1.24s.56,1.24,1.24,1.24c.69,0,1.24-.56,1.24-1.24,0-.69-.56-1.24-1.24-1.24Z"/>
      <path id="Path_4601" data-name="Path 4601" d="M140.49,134.01H41.78c-2.78,0-5.03-2.25-5.03-5.03V63.61c0-2.78,2.25-5.03,5.03-5.03h98.71c2.78,0,5.03,2.25,5.03,5.03v65.37c0,2.78-2.25,5.03-5.03,5.03ZM41.78,60.2c-1.88,0-3.4,1.52-3.41,3.4v65.37c0,1.88,1.53,3.41,3.41,3.41h98.71c1.88,0,3.41-1.53,3.41-3.41V63.61c0-1.88-1.53-3.41-3.41-3.41H41.78Z"/>
      <path id="Path_4602" data-name="Path 4602" d="M161.1,53.93c-.48,0-.87-.39-.87-.87h0v-1.51c0-.48,.39-.87,.87-.87s.87,.39,.87,.87h0v1.51c0,.48-.39,.87-.87,.87Z"/>
      <path id="Path_4603" data-name="Path 4603" d="M161.1,91.03c-.48,0-.87-.39-.87-.87h0v-2.66c0-.48,.39-.87,.87-.87s.87,.39,.87,.87h0v2.67c0,.48-.39,.87-.87,.86Zm0-7.42c-.48,0-.87-.39-.87-.87h0v-2.67c0-.48,.39-.87,.87-.87s.87,.39,.87,.87v2.67c0,.48-.39,.87-.87,.87Zm0-7.42c-.48,0-.87-.39-.87-.87h0v-2.67c0-.48,.39-.87,.87-.87s.87,.39,.87,.87v2.67c0,.48-.39,.87-.87,.87h0Zm0-7.42c-.48,0-.87-.39-.87-.87h0v-2.67c0-.48,.39-.87,.87-.87s.87,.39,.87,.87v2.66c0,.48-.39,.87-.87,.87h0Zm0-7.42c-.48,0-.87-.39-.87-.87h0v-2.67c0-.48,.39-.87,.87-.87s.87,.39,.87,.87v2.67c0,.48-.39,.87-.87,.87h0Z"/>
      <path id="Path_4604" data-name="Path 4604" d="M161.1,97.23h-1.45c-.48,0-.87-.39-.87-.87s.39-.87,.87-.87h.58v-.58c0-.48,.39-.87,.87-.87s.87,.39,.87,.87h0v1.45c0,.48-.39,.87-.87,.87Z"/>
      <path id="Path_4605" data-name="Path 4605" d="M155.48,97.23h-2.32c-.48,0-.87-.39-.87-.87s.39-.87,.87-.87h2.32c.48,0,.87,.39,.87,.87s-.39,.87-.87,.87Z"/>
      <path id="Path_4606" data-name="Path 4606" d="M148.99,97.23h-1.39c-.48,0-.87-.39-.87-.87s.39-.87,.87-.87h1.39c.48,0,.87,.39,.87,.87s-.39,.87-.87,.87h0Z"/>
      <path id="Path_4607" data-name="Path 4607" d="M5.29,57.41c-.48,0-.87-.39-.87-.87v-1.51c.02-.48,.42-.86,.9-.84,.46,.02,.82,.38,.84,.84v1.51c0,.48-.39,.87-.87,.87Z"/>
      <path id="Path_4608" data-name="Path 4608" d="M5.29,90.68c-.48,0-.87-.39-.87-.87v-3.01c.02-.48,.42-.86,.9-.84,.46,.02,.82,.38,.84,.84v3.01c0,.48-.39,.87-.87,.87Zm0-8.35c-.48,0-.87-.39-.87-.87v-3.01c.02-.48,.42-.86,.9-.84,.46,.02,.82,.38,.84,.84v3.01c0,.48-.39,.87-.87,.87Zm0-8.35c-.48,0-.87-.39-.87-.87v-3.01c.02-.48,.42-.86,.9-.84,.46,.02,.82,.38,.84,.84v3.01c0,.48-.39,.87-.87,.87Zm0-8.35c-.48,0-.87-.39-.87-.87v-3.01c.02-.48,.42-.86,.9-.84,.46,.02,.82,.38,.84,.84v3.01c0,.48-.39,.87-.87,.87Z"/>
      <path id="Path_4609" data-name="Path 4609" d="M6.74,97.23h-1.45c-.48,0-.87-.39-.87-.87v-1.45c.02-.48,.42-.86,.9-.84,.46,.02,.82,.38,.84,.84v.58h.58c.48,0,.87,.39,.87,.87s-.39,.87-.87,.87Z"/>
      <path id="Path_4610" data-name="Path 4610" d="M24.13,97.23h-3.13c-.48,0-.87-.39-.87-.87s.39-.87,.87-.87h3.13c.48,0,.87,.39,.87,.87s-.39,.87-.87,.87h0Zm-8.7,0h-3.13c-.48,0-.87-.39-.87-.87s.39-.87,.87-.87h3.13c.48,0,.87,.39,.87,.87s-.39,.87-.87,.87h0Z"/>
      <path id="Path_4611" data-name="Path 4611" d="M31.08,97.23h-1.51c-.48,0-.87-.39-.87-.87s.39-.87,.87-.87h1.51c.48,0,.87,.39,.87,.87s-.39,.87-.87,.87Z"/>
      <path id="Path_4612" data-name="Path 4612" d="M172.58,103.9c-.48,0-.87-.39-.87-.87v-5.22c0-.48,.39-.87,.87-.87s.87,.39,.87,.87v5.22c0,.48-.39,.87-.87,.87Z"/>
      <path id="Path_4613" data-name="Path 4613" d="M175.3,101.41h-5.22c-.48,0-.87-.39-.87-.87s.39-.87,.87-.87h5.22c.48,0,.87,.39,.87,.87s-.39,.87-.87,.87Z"/>
      <path id="Path_4614" data-name="Path 4614" d="M147.42,145.4c-.48,0-.87-.39-.87-.87v-5.22c.02-.48,.42-.86,.9-.84,.46,.02,.82,.38,.84,.84v5.22c0,.48-.39,.87-.87,.87Z"/>
      <path id="Path_4615" data-name="Path 4615" d="M150.15,142.91h-5.22c-.48,0-.87-.39-.87-.87s.39-.87,.87-.87h5.22c.48,0,.87,.39,.87,.87s-.39,.87-.87,.87h0Z"/>
      <path id="Path_4616" data-name="Path 4616" d="M20.71,115.84c-.48,0-.87-.39-.87-.87v-5.22c.02-.48,.42-.86,.9-.84,.46,.02,.82,.38,.84,.84v5.22c0,.48-.39,.87-.87,.87h0Z"/>
      <path id="Path_4617" data-name="Path 4617" d="M23.43,113.35h-5.22c-.48,0-.87-.39-.87-.87s.39-.87,.87-.87h5.22c.48,0,.87,.39,.87,.87s-.39,.87-.87,.87Z"/>
      <path id="Path_4618" data-name="Path 4618" d="M123.42,45.7c-.48,0-.87-.39-.87-.87h0v-5.22c0-.48,.39-.87,.87-.87s.87,.39,.87,.87v5.22c0,.48-.39,.87-.87,.87Z"/>
      <path id="Path_4619" data-name="Path 4619" d="M126.15,43.21h-5.22c-.48,0-.87-.39-.87-.87s.39-.87,.87-.87h5.22c.48,0,.87,.39,.87,.87s-.39,.87-.87,.87Z"/>
      <path id="Path_4620" data-name="Path 4620" d="M74.27,20.66c-.48,0-.87-.39-.87-.87v-5.22c0-.48,.39-.87,.87-.87s.87,.39,.87,.87h0v5.22c0,.48-.39,.87-.87,.87Z"/>
      <path id="Path_4621" data-name="Path 4621" d="M76.99,18.17h-5.22c-.48,.02-.88-.36-.9-.84-.02-.48,.36-.88,.84-.9,.02,0,.04,0,.06,0h5.22c.48,.02,.86,.42,.84,.9-.02,.46-.38,.82-.84,.84Z"/>
      <path id="Path_4622" data-name="Path 4622" d="M40.18,149.93c-.48,0-.87-.39-.87-.87h0v-5.22c-.02-.48,.36-.88,.84-.9,.48-.02,.88,.36,.9,.84,0,.02,0,.04,0,.06v5.22c0,.48-.39,.87-.87,.87h0Z"/>
      <path id="Path_4623" data-name="Path 4623" d="M42.91,147.43h-5.22c-.48,0-.87-.39-.87-.87s.39-.87,.87-.87h5.22c.48,0,.87,.39,.87,.87s-.39,.87-.87,.87Z"/>
      <path id="Path_4624" data-name="Path 4624" d="M174.37,149.11c-.01-.64,.5-1.17,1.14-1.18,.63-.01,1.15,.48,1.18,1.11,.02,.62-.47,1.15-1.1,1.17-.01,0-.02,0-.03,0h-.03c-.62,.01-1.14-.48-1.16-1.1h0Zm-3.43-.65c-.46-.44-.47-1.18-.03-1.64s1.18-.47,1.64-.03c.46,.44,.47,1.18,.03,1.64-.22,.23-.52,.35-.84,.35-.3,0-.59-.12-.8-.32h0Zm7.51-.18c-.47-.44-.49-1.17-.05-1.64s1.17-.49,1.64-.05,.49,1.17,.05,1.64c-.22,.23-.53,.37-.85,.37-.29,0-.58-.11-.79-.31Zm-9.48-4.35c0-.64,.53-1.16,1.17-1.15s1.16,.53,1.15,1.17c0,.63-.51,1.14-1.15,1.15h-.01c-.64-.01-1.15-.53-1.16-1.17h0Zm10.54-.28c-.02-.63,.48-1.16,1.11-1.18,.63-.02,1.16,.48,1.18,1.11,.03,.61-.44,1.14-1.06,1.17-.01,0-.03,0-.04,0h-.04c-.62,0-1.13-.48-1.16-1.1h0Zm-8.67-2.71c-.46-.45-.46-1.18,0-1.64,.45-.46,1.18-.46,1.64,0,.46,.45,.46,1.18,0,1.64-.22,.22-.52,.34-.83,.34-.3,0-.6-.12-.81-.34Zm7.34-.15c-.47-.43-.5-1.17-.07-1.64,.43-.47,1.17-.5,1.64-.07,.47,.43,.5,1.17,.07,1.64-.22,.24-.53,.38-.86,.38-.29,0-.57-.11-.78-.3Zm-3.93-2.24c0-.64,.52-1.16,1.16-1.16,.64,0,1.16,.52,1.16,1.16,0,.64-.52,1.16-1.16,1.16h0c-.64,0-1.16-.52-1.16-1.16h0s0,0,0,0Z"/>
      <path id="Path_4625" data-name="Path 4625" d="M5.45,149.11c-.02-.64,.49-1.17,1.13-1.19,.64-.02,1.17,.49,1.19,1.13,.02,.63-.47,1.15-1.1,1.17-.01,0-.02,0-.03,0h-.03c-.62,.01-1.14-.48-1.16-1.1h0Zm-3.43-.65c-.46-.44-.47-1.18-.03-1.64,.44-.46,1.18-.47,1.64-.03s.47,1.18,.03,1.64c-.22,.23-.52,.36-.84,.35-.3,0-.59-.12-.8-.32Zm7.51-.18c-.47-.44-.49-1.17-.05-1.64,.44-.47,1.17-.49,1.64-.05s.49,1.17,.05,1.64c-.22,.23-.53,.37-.85,.37-.29,0-.58-.11-.79-.31h0ZM.05,143.94c0-.64,.5-1.17,1.15-1.19,.65,0,1.18,.51,1.19,1.16,0,.65-.51,1.18-1.16,1.19h-.02c-.64-.01-1.15-.53-1.16-1.17H.05Zm10.54-.26c-.02-.64,.48-1.18,1.11-1.2s1.18,.48,1.2,1.11c.02,.64-.48,1.18-1.11,1.2h0s-.04,0-.04,0c-.62,0-1.13-.49-1.16-1.12h0Zm-8.67-2.72c-.46-.45-.46-1.19-.01-1.64,.45-.46,1.19-.46,1.64-.01,.46,.45,.46,1.19,.01,1.64-.22,.22-.52,.35-.83,.35-.31,0-.6-.12-.82-.34Zm7.34-.15c-.47-.43-.51-1.16-.08-1.64,.43-.47,1.16-.51,1.64-.08,.47,.43,.51,1.16,.08,1.64-.22,.24-.53,.38-.85,.38-.29,0-.57-.11-.78-.3Zm-3.93-2.24c0-.64,.52-1.16,1.16-1.16,.64,0,1.16,.52,1.16,1.16,0,.64-.52,1.16-1.16,1.16h0c-.64,0-1.16-.52-1.16-1.16Z"/>
      <path id="Path_4626" data-name="Path 4626" d="M108.4,14.63c0-.64,.52-1.16,1.16-1.16,.61,0,1.12,.48,1.15,1.09,.02,.63-.47,1.15-1.1,1.17-.01,0-.02,0-.03,0h-.03c-.62,.01-1.14-.48-1.16-1.1Zm-3.43-.64c-.46-.44-.47-1.18-.03-1.64,.44-.46,1.18-.47,1.64-.03,.46,.44,.47,1.18,.03,1.64-.22,.23-.52,.35-.84,.35-.3,0-.59-.12-.81-.32Zm7.51-.18c-.47-.44-.49-1.17-.05-1.64,.44-.47,1.17-.49,1.64-.05,.47,.44,.49,1.17,.05,1.64-.22,.23-.53,.37-.85,.37-.29,0-.58-.11-.79-.31Zm-9.47-4.35c0-.64,.53-1.15,1.17-1.15s1.15,.53,1.15,1.17c0,.63-.52,1.14-1.15,1.15h-.01c-.64-.01-1.15-.53-1.16-1.17h0Zm10.54-.28c-.02-.64,.49-1.17,1.13-1.19,.63-.02,1.15,.47,1.19,1.1,.03,.62-.45,1.16-1.08,1.19-.01,0-.03,0-.04,0h-.04c-.62,0-1.13-.48-1.16-1.1h0Zm-8.67-2.7c-.46-.45-.46-1.18,0-1.64,.45-.46,1.18-.46,1.64,0,.46,.45,.46,1.18,0,1.64-.22,.22-.52,.34-.83,.34-.3,0-.6-.12-.81-.34Zm7.34-.15c-.47-.43-.51-1.16-.08-1.64s1.16-.51,1.64-.08c.47,.43,.51,1.16,.08,1.64-.22,.24-.53,.38-.85,.38-.29,0-.57-.11-.78-.3Zm-3.93-2.24c0-.64,.52-1.16,1.16-1.16,.64,0,1.16,.52,1.16,1.16,0,.64-.52,1.16-1.16,1.16,0,0,0,0,0,0-.64,0-1.16-.52-1.16-1.16h0Z"/>
      <path id="Path_4627" data-name="Path 4627" d="M92.17,48.48c-.02-.64,.49-1.17,1.13-1.19,.64-.02,1.17,.49,1.19,1.13h0c.02,.63-.47,1.15-1.1,1.17-.01,0-.02,0-.03,0h-.03c-.62,.01-1.14-.48-1.16-1.1h0Zm-3.43-.64c-.46-.44-.48-1.18-.04-1.64s1.18-.48,1.64-.04,.48,1.18,.04,1.64c-.22,.23-.52,.36-.84,.36-.3,0-.59-.11-.8-.32h0Zm7.51-.18c-.47-.44-.49-1.17-.05-1.64,.44-.47,1.17-.49,1.64-.05,.47,.44,.49,1.17,.05,1.64-.22,.23-.53,.37-.85,.37-.3,0-.58-.11-.79-.32h0Zm-9.48-4.35c0-.64,.53-1.16,1.17-1.15,.64,0,1.16,.53,1.15,1.17,0,.63-.51,1.14-1.15,1.15h-.01c-.64-.01-1.15-.53-1.16-1.17h0Zm10.54-.28c-.02-.64,.49-1.17,1.13-1.19,.63-.02,1.15,.47,1.19,1.1,.03,.63-.45,1.16-1.08,1.19-.01,0-.03,0-.04,0h-.04c-.62,0-1.13-.48-1.16-1.1Zm-8.67-2.71c-.46-.45-.46-1.18,0-1.64,.45-.46,1.18-.46,1.64,0s.46,1.18,0,1.64c-.22,.22-.52,.34-.83,.34-.31,0-.6-.12-.82-.33Zm7.34-.15c-.47-.43-.51-1.16-.08-1.64,.43-.47,1.16-.51,1.64-.08,.47,.43,.51,1.16,.08,1.64-.22,.24-.53,.38-.85,.38-.29,0-.57-.11-.78-.3h0Zm-3.93-2.24c0-.64,.52-1.16,1.16-1.16,.64,0,1.16,.52,1.16,1.16,0,.64-.52,1.16-1.16,1.16-.64,0-1.16-.52-1.16-1.16h0s0,0,0,0Z"/>
      <path id="Path_4628" data-name="Path 4628" class="cls-2" d="M59.1,72.32h-6.67v6.16h6.67v-6.16Z"/>
      <path id="Path_4629" data-name="Path 4629" d="M66.3,84.86h-13.53c-.19,0-.35-.23-.35-.51s.16-.51,.35-.51h13.53c.19,0,.35,.23,.35,.51s-.16,.51-.35,.51Z"/>
      <path id="Path_4630" data-name="Path 4630" d="M79.89,108.9h-6.9c-.1,0-.18-.23-.18-.51s.08-.51,.18-.51h6.9c.1,0,.18,.23,.18,.51s-.08,.51-.18,.51Z"/>
      <path id="Path_4631" data-name="Path 4631" d="M79.64,73.35h-16.45c-.28-.06-.47-.33-.41-.61,.04-.21,.2-.37,.41-.41h16.45c.28,.06,.47,.33,.41,.61-.04,.21-.2,.37-.41,.41Z"/>
      <path id="Path_4632" data-name="Path 4632" d="M73.92,77.31h-10.88c-.15,0-.28-.23-.28-.51s.12-.51,.28-.51h10.88c.15,0,.28,.23,.28,.51s-.12,.51-.28,.51Z"/>
      <path id="Path_4633" data-name="Path 4633" d="M66.3,90.87h-13.53c-.19,0-.35-.23-.35-.51s.16-.51,.35-.51h13.53c.19,0,.35,.23,.35,.51s-.16,.51-.35,.51Z"/>
      <path id="Path_4634" data-name="Path 4634" d="M79.39,96.88h-26.29c-.28,.08-.58-.09-.66-.37-.08-.28,.09-.58,.37-.66,.09-.03,.19-.03,.29,0h26.29c.28-.08,.58,.09,.66,.37,.08,.28-.09,.58-.37,.66-.09,.03-.19,.03-.29,0Z"/>
      <path id="Path_4635" data-name="Path 4635" d="M79.39,102.89h-26.29c-.28,.08-.58-.09-.66-.37-.08-.28,.09-.58,.37-.66,.09-.03,.19-.03,.29,0h26.29c.28-.08,.58,.09,.66,.37,.08,.28-.09,.58-.37,.66-.09,.03-.19,.03-.29,0Z"/>
      <rect id="Rectangle_18" data-name="Rectangle 18" class="cls-3" x="48.53" y="69.23" width="35.43" height="46.94"/>
      <path id="Path_4636" data-name="Path 4636" class="cls-2" d="M108.78,72.32h-6.67v6.16h6.67v-6.16Z"/>
      <path id="Path_4637" data-name="Path 4637" d="M115.98,84.86h-13.53c-.19,0-.35-.23-.35-.51s.16-.51,.35-.51h13.53c.19,0,.35,.23,.35,.51s-.16,.51-.35,.51Z"/>
      <path id="Path_4638" data-name="Path 4638" d="M129.57,108.9h-6.9c-.1,0-.18-.23-.18-.51s.08-.51,.18-.51h6.9c.1,0,.18,.23,.18,.51s-.08,.51-.18,.51Z"/>
      <path id="Path_4639" data-name="Path 4639" d="M129.32,73.35h-16.45c-.28-.06-.47-.33-.41-.61,.04-.21,.2-.37,.41-.41h16.45c.28,.06,.47,.33,.41,.61-.04,.21-.2,.37-.41,.41Z"/>
      <path id="Path_4640" data-name="Path 4640" d="M123.6,77.31h-10.88c-.15,0-.28-.23-.28-.51s.12-.51,.28-.51h10.88c.15,0,.28,.23,.28,.51s-.12,.51-.28,.51Z"/>
      <path id="Path_4641" data-name="Path 4641" d="M115.98,90.87h-13.53c-.19,0-.35-.23-.35-.51s.16-.51,.35-.51h13.53c.19,0,.35,.23,.35,.51s-.16,.51-.35,.51Z"/>
      <path id="Path_4642" data-name="Path 4642" d="M129.07,96.88h-26.29c-.28,.08-.58-.09-.66-.37-.08-.28,.09-.58,.37-.66,.09-.03,.19-.03,.29,0h26.29c.28-.08,.58,.09,.66,.37,.08,.28-.09,.58-.37,.66-.09,.03-.19,.03-.29,0Z"/>
      <path id="Path_4643" data-name="Path 4643" d="M129.07,102.89h-26.29c-.28,.08-.58-.09-.66-.37-.08-.28,.09-.58,.37-.66,.09-.03,.19-.03,.29,0h26.29c.28-.08,.58,.09,.66,.37,.08,.28-.09,.58-.37,.66-.09,.03-.19,.03-.29,0Z"/>
      <rect id="Rectangle_19" data-name="Rectangle 19" class="cls-3" x="98.21" y="69.23" width="35.43" height="46.94"/>
    </g>
  </g>
</svg>