<?xml version="1.0" encoding="UTF-8"?>
<svg id="Layer_2" data-name="Layer 2" xmlns="http://www.w3.org/2000/svg" viewBox="0 0 179.02 150.89">
  <defs>
    <style>
      .cls-1 {
        fill: #6c3099;
      }

      .cls-2 {
        fill: #ed1e79;
      }
    </style>
  </defs>
  <g id="Layer_1-2" data-name="Layer 1">
    <g id="Group_47569" data-name="Group 47569">
      <g>
        <path id="Path_4842" data-name="Path 4842" class="cls-1" d="M32.52,17.98c.34-.32,.36-.85,.04-1.19-.16-.17-.38-.27-.61-.27H13.45l-7.95,16.41v3.5H31.95c.47,0,.84-.38,.84-.84,0-.23-.1-.46-.27-.62l-8.41-7.88c-.34-.32-.36-.85-.04-1.19,.01-.01,.02-.03,.04-.04l8.41-7.88h0Z"/>
        <path id="Path_4846" data-name="Path 4846" d="M31.95,37.1H5.5c-.37,0-.67-.3-.67-.67h0v-3.5c-.01-.37,.27-.68,.64-.7s.68,.27,.7,.64c0,.02,0,.03,0,.05v2.83H31.95c.09,0,.17-.07,.18-.17,0-.05-.02-.1-.06-.13l-8.41-7.87c-.61-.57-.64-1.53-.07-2.14,.02-.02,.05-.05,.07-.07l8.41-7.88c.07-.06,.08-.17,.02-.24-.03-.04-.08-.06-.13-.06H13.45c-.37,0-.67-.3-.67-.67,0-.37,.3-.67,.67-.67H31.95c.84,0,1.51,.68,1.51,1.52,0,.42-.17,.82-.48,1.1l-8.41,7.88s-.05,.08-.05,.12c0,.05,.02,.09,.05,.12l8.41,7.88c.61,.57,.65,1.53,.08,2.14-.29,.31-.69,.49-1.12,.49Z"/>
      </g>
      <path id="Path_4807" data-name="Path 4807" class="cls-2" d="M175.91,96.05h-12.55c-1.28,0-2.32,.15-2.32,.34v13.72c0,.19,1.04,.34,2.32,.34h12.55c1.28,0,2.32-.15,2.32-.34h0v-13.72c0-.19-1.04-.34-2.32-.34Zm-10.08,13.98c-.96,0-1.74-.12-1.74-.26,0-.14,.78-.26,1.74-.26s1.74,.12,1.74,.26-.78,.26-1.74,.26h0Z"/>
      <path id="Path_4808" data-name="Path 4808" class="cls-2" d="M93.86,95.14c2.21,0,4-1.79,4-4s-1.79-4-4-4-4,1.79-4,4,1.79,4,4,4Z"/>
      <path id="Path_4809" data-name="Path 4809" d="M150.05,150.89H32.51c-3.04,0-5.5-2.46-5.5-5.5v-2.27c0-.43,.35-.78,.78-.78h126.99c.43,0,.78,.35,.78,.78v2.27c0,3.04-2.46,5.5-5.5,5.5h0Zm-121.49-6.99v1.49c0,2.18,1.77,3.94,3.95,3.95h117.54c2.18,0,3.94-1.77,3.95-3.95v-1.49H28.57Z"/>
      <path id="Path_4810" data-name="Path 4810" d="M100.2,147.53h-17.87c-.43,0-.78-.35-.78-.77h0v-3.56c0-.43,.35-.78,.78-.78s.78,.35,.78,.78v2.77h16.32v-2.77c0-.43,.35-.78,.78-.78s.78,.35,.78,.78v3.55c0,.43-.34,.78-.77,.78,0,0,0,0,0,0Z"/>
      <path id="Path_4811" data-name="Path 4811" d="M146.05,142.98c-.43,0-.78-.35-.78-.78v-60.26c0-2.33-1.88-4.23-4.21-4.24-.03,0-.06,0-.09,0h-9.35c-.43,0-.78-.35-.78-.78s.35-.78,.78-.78h9.35c3.18-.05,5.8,2.48,5.85,5.66,0,.04,0,.08,0,.12v60.26c0,.43-.35,.78-.77,.78,0,0,0,0,0,0Z"/>
      <path id="Path_4812" data-name="Path 4812" d="M36.38,143.54c-.43,0-.78-.35-.78-.77h0v-60.82c0-1.56,.63-3.05,1.76-4.12,1.12-1.08,2.62-1.67,4.17-1.67h9.72c.43,0,.78,.35,.78,.78s-.35,.78-.78,.78h-9.72c-2.35-.06-4.31,1.79-4.37,4.14,0,.03,0,.06,0,.09v60.81c0,.43-.35,.78-.77,.78h0Z"/>
      <path id="Path_4813" data-name="Path 4813" d="M43.59,137.99c-.2,0-.4-.07-.55-.21-.15-.14-.23-.33-.23-.53v-53.09c0-.43,.35-.78,.77-.78h7.66c.43,0,.78,.35,.78,.78s-.35,.78-.78,.78h-6.88v51.54l93.8-.05v-51.48h-6.55c-.43,0-.78-.35-.78-.78s.35-.78,.78-.78h7.33c.43,0,.78,.35,.78,.78h0v53.04c0,.42-.34,.76-.77,.76,0,0,0,0-.01,0l-95.35,.04h0Z"/>
      <path id="Path_4814" data-name="Path 4814" d="M21.61,101.69c-.43,0-.78-.35-.78-.78h0v-5c0-.43,.35-.78,.78-.78s.78,.35,.78,.78v5c0,.43-.35,.78-.77,.78h0Z"/>
      <path id="Path_4815" data-name="Path 4815" d="M24.17,99.25h-5c-.43,0-.78-.35-.78-.78s.35-.78,.78-.78h5c.43,0,.78,.35,.78,.78s-.35,.78-.78,.78h0Z"/>
      <path id="Path_4816" data-name="Path 4816" d="M150.6,61.95c-.43,0-.78-.35-.78-.78v-5c0-.43,.35-.78,.78-.78s.78,.35,.78,.78v5c0,.43-.35,.78-.77,.78h0Z"/>
      <path id="Path_4817" data-name="Path 4817" d="M153.15,59.51h-5c-.43,0-.78-.35-.78-.78s.35-.78,.78-.78h5c.43,0,.78,.35,.78,.78s-.35,.78-.78,.78Z"/>
      <path id="Path_4818" data-name="Path 4818" d="M75.12,40.64c-.43,0-.78-.35-.78-.77h0v-5c0-.43,.35-.78,.78-.78s.78,.35,.78,.78v5c0,.43-.35,.78-.78,.78h0Z"/>
      <path id="Path_4819" data-name="Path 4819" d="M77.67,38.19h-5c-.43,0-.78-.35-.78-.78s.35-.78,.78-.78h5c.43,0,.78,.35,.78,.78s-.35,.78-.78,.78Z"/>
      <path id="Path_4820" data-name="Path 4820" d="M35.37,57.23c0-.61,.48-1.12,1.09-1.13,.6,0,1.1,.46,1.13,1.07,.02,.6-.45,1.1-1.05,1.12-.01,0-.02,0-.03,0h-.03c-.6,.01-1.09-.46-1.11-1.06Zm-3.29-.61h0c-.44-.42-.46-1.13-.03-1.57,.42-.44,1.13-.46,1.57-.03,.44,.42,.46,1.13,.03,1.57-.21,.22-.5,.34-.8,.34-.29,0-.57-.1-.77-.31h0Zm7.19-.18c-.45-.42-.47-1.12-.05-1.57s1.12-.47,1.57-.05c.45,.42,.47,1.12,.05,1.57-.21,.22-.5,.35-.81,.35-.28,0-.55-.11-.76-.3Zm-9.07-4.16c0-.61,.51-1.11,1.12-1.1,.61,0,1.11,.51,1.1,1.12,0,.6-.49,1.09-1.09,1.1h-.01c-.61-.01-1.1-.51-1.11-1.12h0Zm10.09-.26c-.01-.61,.47-1.12,1.08-1.14,.6-.01,1.1,.45,1.13,1.05,.03,.6-.43,1.11-1.03,1.14-.01,0-.02,0-.04,0h-.04c-.59,0-1.08-.46-1.11-1.05h0Zm-8.3-2.59c-.44-.43-.44-1.13,0-1.57,.43-.44,1.13-.44,1.57,0s.44,1.13,0,1.57c-.21,.21-.49,.33-.79,.33-.29,0-.57-.12-.78-.32Zm7.03-.15c-.45-.41-.48-1.12-.07-1.57,.41-.45,1.12-.48,1.57-.07,.45,.41,.48,1.12,.07,1.57-.21,.23-.51,.36-.82,.36-.28,0-.55-.1-.75-.29h0Zm-3.77-2.14c0-.61,.5-1.11,1.11-1.11s1.11,.5,1.11,1.11-.5,1.11-1.11,1.11-1.11-.5-1.11-1.11h0Z"/>
      <path id="Path_4821" data-name="Path 4821" d="M117.07,44.91c0-.61,.48-1.12,1.09-1.13,.6,0,1.1,.46,1.13,1.07,.02,.6-.45,1.1-1.05,1.12-.01,0-.02,0-.03,0h-.03c-.6,.01-1.09-.46-1.11-1.06Zm-3.29-.61c-.44-.43-.45-1.13-.03-1.57,.43-.44,1.13-.45,1.57-.03s.45,1.13,.03,1.57c-.21,.22-.5,.34-.8,.34-.29,0-.56-.11-.77-.31Zm7.19-.17c-.45-.42-.47-1.12-.05-1.57,.42-.45,1.12-.47,1.57-.05s.47,1.12,.05,1.57c-.21,.22-.5,.35-.81,.35-.28,0-.55-.11-.76-.3Zm-9.07-4.16c0-.61,.51-1.11,1.12-1.1,.61,0,1.11,.51,1.1,1.12,0,.6-.49,1.09-1.09,1.1h-.01c-.61-.01-1.1-.51-1.11-1.12h0Zm10.09-.26c-.01-.61,.47-1.12,1.08-1.14,.6-.01,1.1,.45,1.13,1.05,.03,.6-.43,1.11-1.03,1.14-.01,0-.02,0-.04,0h-.04c-.59,0-1.08-.46-1.11-1.05h0Zm-8.3-2.59c-.44-.43-.44-1.13,0-1.57,.43-.44,1.13-.44,1.57,0,.44,.43,.44,1.13,0,1.57-.21,.21-.49,.33-.79,.33-.29,0-.57-.12-.78-.33h0Zm7.03-.14c-.45-.41-.48-1.12-.07-1.57,.41-.45,1.12-.48,1.57-.07s.48,1.12,.07,1.57c-.21,.23-.51,.36-.82,.36-.28,0-.55-.1-.75-.29Zm-3.77-2.14c0-.61,.5-1.11,1.11-1.11s1.11,.5,1.11,1.11-.5,1.11-1.11,1.11c-.61,0-1.11-.49-1.11-1.11h0s0,0,0,0Z"/>
      <path id="Path_4822" data-name="Path 4822" d="M168.69,142.26c0-.61,.48-1.12,1.09-1.13,.6,0,1.1,.46,1.13,1.07,.02,.6-.45,1.1-1.05,1.12-.01,0-.02,0-.03,0h-.03c-.6,.01-1.09-.46-1.11-1.06Zm-3.29-.61c-.44-.43-.45-1.13-.03-1.57s1.13-.45,1.57-.03c.44,.43,.45,1.13,.03,1.57-.21,.22-.5,.34-.8,.34-.29,0-.56-.11-.77-.31h0Zm7.19-.17c-.45-.42-.47-1.12-.05-1.57,.42-.45,1.12-.47,1.57-.05s.47,1.12,.05,1.57c-.21,.22-.5,.35-.81,.35-.28,0-.55-.11-.76-.3Zm-9.07-4.16c0-.61,.51-1.11,1.12-1.1,.61,0,1.11,.51,1.1,1.12,0,.6-.49,1.09-1.09,1.1h-.01c-.61-.01-1.1-.51-1.11-1.12h0Zm10.09-.26c-.01-.61,.47-1.12,1.08-1.14,.6-.01,1.1,.45,1.13,1.05,.03,.6-.43,1.11-1.03,1.14-.01,0-.03,0-.04,0h-.04c-.59,0-1.08-.46-1.11-1.05h0Zm-8.3-2.59c-.44-.43-.44-1.13,0-1.57s1.13-.44,1.57,0,.44,1.13,0,1.57c-.21,.21-.49,.33-.79,.33-.29,0-.57-.12-.78-.32Zm7.03-.15c-.45-.41-.48-1.12-.07-1.57,.41-.45,1.12-.48,1.57-.07s.48,1.12,.07,1.57c-.21,.23-.51,.36-.82,.36-.28,0-.55-.1-.76-.29h0Zm-3.77-2.14c0-.61,.5-1.11,1.11-1.11s1.11,.5,1.11,1.11-.5,1.11-1.11,1.11c-.61,0-1.11-.49-1.11-1.1h0s0,0,0,0Z"/>
      <path id="Path_4823" data-name="Path 4823" d="M10.62,142.26c0-.61,.48-1.12,1.09-1.13,.6,0,1.1,.46,1.13,1.07,.02,.6-.45,1.1-1.05,1.12-.01,0-.02,0-.03,0h-.03c-.6,.01-1.09-.46-1.11-1.06h0Zm-3.29-.61c-.44-.43-.45-1.13-.03-1.57s1.13-.45,1.57-.03,.45,1.13,.03,1.57c-.21,.22-.5,.34-.8,.34-.29,0-.56-.11-.77-.31Zm7.19-.17c-.45-.42-.47-1.12-.05-1.57s1.12-.47,1.57-.05c.45,.42,.47,1.12,.05,1.57-.21,.23-.5,.35-.81,.35-.28,0-.55-.11-.76-.3h0Zm-9.07-4.16c0-.61,.51-1.11,1.12-1.1,.61,0,1.11,.51,1.1,1.12,0,.6-.49,1.09-1.1,1.1h-.01c-.61-.01-1.1-.51-1.11-1.12h0Zm10.09-.26c-.02-.61,.45-1.12,1.06-1.14,0,0,0,0,0,0,.6-.04,1.11,.42,1.15,1.02,0,.02,0,.04,0,.06h0c0,.6-.47,1.09-1.07,1.11h-.04c-.59,0-1.08-.46-1.11-1.05h0Zm-8.3-2.59c-.44-.43-.44-1.13,0-1.57,.43-.44,1.13-.44,1.57,0,.44,.43,.44,1.13,0,1.57-.21,.21-.49,.33-.79,.33-.29,0-.57-.12-.78-.32h0Zm7.03-.15c-.45-.41-.48-1.12-.07-1.57s1.12-.48,1.57-.07c.45,.41,.48,1.12,.07,1.57-.21,.23-.51,.36-.82,.36-.28,0-.55-.1-.75-.29Zm-3.77-2.14c0-.61,.5-1.11,1.11-1.11s1.11,.5,1.11,1.11c0,.61-.5,1.11-1.11,1.11-.61,0-1.11-.49-1.11-1.11,0,0,0,0,0,0h0Z"/>
      <path id="Path_4824" data-name="Path 4824" d="M175.92,111.25h-12.58c-1.71,0-3.1-1.39-3.1-3.1V15.5c0-1.71,1.39-3.1,3.1-3.1h12.58c1.71,0,3.1,1.39,3.1,3.1V108.14c0,1.71-1.39,3.1-3.1,3.1h0Zm-12.58-97.29c-.86,0-1.55,.69-1.55,1.55V108.14c0,.86,.69,1.55,1.55,1.55h12.58c.86,0,1.55-.69,1.55-1.55V15.5c0-.86-.69-1.55-1.55-1.55h-12.58Z"/>
      <path id="Path_4825" data-name="Path 4825" d="M177.91,20.55h-8.44c-.43,0-.78-.35-.78-.78s.35-.78,.78-.78h8.44c.43,0,.78,.35,.78,.78s-.35,.78-.78,.78Z"/>
      <path id="Path_4826" data-name="Path 4826" d="M177.91,27.2h-3.88c-.43,0-.78-.35-.78-.78s.35-.78,.78-.78h3.88c.43,0,.78,.35,.78,.78s-.35,.78-.78,.78h0Z"/>
      <path id="Path_4827" data-name="Path 4827" d="M177.91,33.53h-8.44c-.43,0-.78-.35-.78-.78s.35-.78,.78-.78h8.44c.43,0,.78,.35,.78,.78s-.35,.78-.78,.78Z"/>
      <path id="Path_4828" data-name="Path 4828" d="M177.91,40.08h-3.88c-.43,0-.78-.35-.78-.78s.35-.78,.78-.78h3.88c.43,0,.78,.35,.78,.78s-.35,.78-.78,.78h0Z"/>
      <path id="Path_4829" data-name="Path 4829" d="M177.91,46.63h-8.44c-.43,0-.78-.35-.78-.78s.35-.78,.78-.78h8.44c.43,0,.78,.35,.78,.78s-.35,.78-.78,.78Z"/>
      <path id="Path_4830" data-name="Path 4830" d="M177.91,52.96h-3.88c-.43,0-.78-.35-.78-.78s.35-.78,.78-.78h3.88c.43,0,.78,.35,.78,.78s-.35,.78-.78,.78h0Z"/>
      <path id="Path_4831" data-name="Path 4831" d="M177.91,59.51h-8.44c-.43,0-.78-.35-.78-.78s.35-.78,.78-.78h8.44c.43,0,.78,.35,.78,.78s-.35,.78-.78,.78Z"/>
      <path id="Path_4832" data-name="Path 4832" d="M177.91,65.83h-3.88c-.43,0-.78-.35-.78-.78s.35-.78,.78-.78h3.88c.43,0,.78,.35,.78,.78s-.35,.78-.78,.78h0Z"/>
      <path id="Path_4833" data-name="Path 4833" d="M177.91,72.38h-8.44c-.43,0-.78-.35-.78-.78s.35-.78,.78-.78h8.44c.43,0,.78,.35,.78,.78s-.35,.78-.78,.78Z"/>
      <path id="Path_4834" data-name="Path 4834" d="M177.91,79.04h-3.88c-.43,0-.78-.35-.78-.78s.35-.78,.78-.78h3.88c.43,0,.78,.35,.78,.78s-.35,.78-.78,.78h0Z"/>
      <path id="Path_4835" data-name="Path 4835" d="M177.91,85.48h-8.44c-.43,0-.78-.35-.78-.78s.35-.78,.78-.78h8.44c.43,0,.78,.35,.78,.78s-.35,.78-.78,.78Z"/>
      <path id="Path_4836" data-name="Path 4836" d="M177.91,91.92h-3.88c-.43,0-.78-.35-.78-.78s.35-.78,.78-.78h3.88c.43,0,.78,.35,.78,.78s-.35,.78-.78,.78h0Z"/>
      <path id="Path_4837" data-name="Path 4837" d="M177.91,98.58h-8.44c-.43,0-.78-.35-.78-.78s.35-.78,.78-.78h8.44c.43,0,.78,.35,.78,.78s-.35,.78-.78,.78Z"/>
      <path id="Path_4838" data-name="Path 4838" d="M177.91,105.02h-3.88c-.43,0-.78-.35-.78-.78s.35-.78,.78-.78h3.88c.43,0,.78,.35,.78,.78s-.35,.78-.78,.78h0Z"/>
      <path id="Path_4839" data-name="Path 4839" d="M165.83,108.37c-1.39,0-2.52-1.13-2.52-2.52,0-1.39,1.13-2.52,2.52-2.52s2.52,1.13,2.52,2.52h0c0,1.39-1.13,2.52-2.52,2.52Zm0-3.49c-.53,0-.97,.43-.97,.97,0,.53,.43,.97,.97,.97,.53,0,.97-.43,.97-.97h0c0-.53-.43-.97-.97-.97Z"/>
      <path id="Path_4840" data-name="Path 4840" class="cls-2" d="M4.23,.67c-1.96,0-3.55,1.58-3.56,3.54,0,1.96,1.58,3.55,3.54,3.56,1.96,0,3.55-1.58,3.56-3.54,0,0,0,0,0,0,0-1.96-1.58-3.55-3.54-3.55h0Z"/>
      <path id="Path_4841" data-name="Path 4841" class="cls-1" d="M20.69,12.51H4.23v19.91H20.69c.83,0,1.49-.67,1.49-1.5V14.01c0-.82-.67-1.49-1.49-1.5Z"/>
      <path id="Path_4843" data-name="Path 4843" d="M4.16,65.67c-.37,0-.67-.3-.67-.67,0,0,0,0,0,0V7.86c0-.37,.3-.67,.67-.67s.67,.3,.67,.67v57.14c0,.37-.3,.67-.67,.67Z"/>
      <path id="Path_4844" data-name="Path 4844" d="M4.23,8.44C1.9,8.45,0,6.56,0,4.23,0,1.9,1.88,0,4.21,0c2.33,0,4.23,1.88,4.23,4.21,0,0,0,0,0,.01,0,2.33-1.88,4.21-4.21,4.22Zm0-7.09c-1.59,0-2.88,1.28-2.88,2.87s1.28,2.88,2.87,2.88c1.59,0,2.88-1.28,2.88-2.87,0,0,0,0,0,0,0-1.59-1.28-2.87-2.87-2.88Z"/>
      <path id="Path_4845" data-name="Path 4845" d="M20.69,33.09H4.61c-.37,0-.67-.3-.67-.67,0-.37,.3-.67,.67-.67H20.69c.46,0,.82-.37,.82-.82h0V14.01c0-.46-.37-.82-.82-.82H4.61c-.37,0-.67-.3-.67-.67,0-.37,.3-.67,.67-.67H20.69c1.2,0,2.16,.97,2.16,2.17V30.92c0,1.2-.97,2.17-2.16,2.17Z"/>
      <path id="Path_4847" data-name="Path 4847" d="M17.67,22.65c-.37,0-.67-.3-.67-.67h0v-4.8h-6.23c-.37,0-.67-.3-.67-.67,0-.37,.3-.67,.67-.67h6.9c.37,0,.67,.3,.67,.67h0v5.47c0,.37-.3,.67-.67,.67,0,0,0,0,0,0Z"/>
      <path id="Path_4848" data-name="Path 4848" d="M54.17,116.9h-2.5c-.43,0-.78-.35-.78-.78h0v-2.5c0-.43,.35-.78,.78-.78s.78,.35,.78,.78v1.72h1.72c.43,0,.78,.35,.78,.78s-.35,.78-.78,.78h0Z"/>
      <path id="Path_4849" data-name="Path 4849" d="M121.77,116.9h-4.61c-.43,0-.78-.35-.78-.78s.35-.78,.78-.78h4.61c.43,0,.78,.35,.78,.78s-.35,.78-.78,.78Zm-11.27,0h-4.61c-.43,0-.78-.35-.78-.78s.35-.78,.78-.78h4.61c.43,0,.78,.35,.78,.78s-.35,.78-.78,.78Zm-11.27,0h-4.61c-.43,0-.78-.35-.78-.78s.35-.78,.78-.78h4.61c.43,0,.78,.35,.78,.78s-.35,.78-.78,.78Zm-11.27,0h-4.61c-.43,0-.78-.35-.78-.78s.35-.78,.78-.78h4.61c.43,0,.78,.35,.78,.78s-.35,.78-.78,.78h0Zm-11.27,0h-4.61c-.43,0-.78-.35-.78-.78s.35-.78,.78-.78h4.61c.43,0,.78,.35,.78,.78s-.35,.78-.78,.78h0Zm-11.27,0h-4.61c-.43,0-.78-.35-.78-.78s.35-.78,.78-.78h4.61c.43,0,.78,.35,.78,.78s-.35,.78-.78,.78h0Z"/>
      <path id="Path_4850" data-name="Path 4850" d="M130.93,116.9h-2.5c-.43,0-.78-.35-.78-.78s.35-.78,.78-.78h1.72v-1.72c0-.43,.35-.78,.78-.78s.78,.35,.78,.78v2.5c0,.43-.35,.77-.77,.78Z"/>
      <path id="Path_4851" data-name="Path 4851" d="M130.93,106.44c-.43,0-.78-.35-.78-.78h0v-5.51c0-.43,.35-.78,.78-.78s.78,.35,.78,.78v5.51c0,.43-.35,.78-.78,.78h0Zm0-13.47c-.43,0-.78-.35-.78-.78h0v-5.51c0-.43,.35-.78,.78-.78s.78,.35,.78,.78v5.51c0,.43-.35,.78-.78,.78h0Zm0-13.47c-.43,0-.78-.35-.78-.78h0v-5.51c0-.43,.35-.78,.78-.78s.78,.35,.78,.78v5.51c0,.43-.35,.78-.78,.78h0Z"/>
      <path id="Path_4852" data-name="Path 4852" d="M130.93,66.02c-.43,0-.78-.35-.78-.78v-1.72h-1.72c-.43,0-.78-.35-.78-.78s.35-.78,.78-.78h2.5c.43,0,.78,.35,.78,.78h0v2.5c0,.43-.35,.78-.78,.77,0,0,0,0,0,0Z"/>
      <path id="Path_4853" data-name="Path 4853" d="M121.77,63.52h-4.61c-.43,0-.78-.35-.78-.78s.35-.78,.78-.78h4.61c.43,0,.78,.35,.78,.78s-.35,.78-.78,.78Zm-11.27,0h-4.61c-.43,0-.78-.35-.78-.78s.35-.78,.78-.78h4.61c.43,0,.78,.35,.78,.78s-.35,.78-.78,.78Zm-11.27,0h-4.61c-.43,0-.78-.35-.78-.78s.35-.78,.78-.78h4.61c.43,0,.78,.35,.78,.78s-.35,.78-.78,.78Zm-11.27,0h-4.61c-.43,0-.78-.35-.78-.78s.35-.78,.78-.78h4.61c.43,0,.78,.35,.78,.78s-.35,.78-.78,.78h0Zm-11.27,0h-4.61c-.43,0-.78-.35-.78-.78s.35-.78,.78-.78h4.61c.43,0,.78,.35,.78,.78s-.35,.78-.78,.78h0Zm-11.27,0h-4.61c-.43,0-.78-.35-.78-.78s.35-.78,.78-.78h4.61c.43,0,.78,.35,.78,.78s-.35,.78-.78,.78h0Z"/>
      <path id="Path_4854" data-name="Path 4854" d="M51.67,66.02c-.43,0-.78-.35-.78-.78h0v-2.5c0-.43,.35-.78,.78-.78h2.5c.43,0,.78,.35,.78,.78s-.35,.78-.78,.78h-1.72v1.72c0,.43-.34,.78-.77,.78,0,0,0,0,0,0Z"/>
      <path id="Path_4855" data-name="Path 4855" d="M51.67,106.44c-.43,0-.78-.35-.78-.78h0v-5.51c0-.43,.35-.78,.78-.78s.78,.35,.78,.78v5.51c0,.43-.35,.78-.77,.78h0Zm0-13.47c-.43,0-.78-.35-.78-.78h0v-5.51c0-.43,.35-.78,.78-.78s.78,.35,.78,.78v5.51c0,.43-.35,.78-.77,.78h0Zm0-13.47c-.43,0-.78-.35-.78-.78h0v-5.51c0-.43,.35-.78,.78-.78s.78,.35,.78,.78v5.51c0,.43-.35,.78-.78,.78h0Z"/>
      <path id="Path_4856" data-name="Path 4856" d="M98.71,109.43c-.21,0-.4-.08-.55-.23l-26.84-26.84-19.1,19.1c-.3,.3-.8,.3-1.1,0s-.3-.8,0-1.1l19.65-19.65c.3-.3,.8-.3,1.1,0l27.39,27.39c.3,.3,.3,.8,0,1.1-.15,.15-.34,.23-.55,.23h0Z"/>
      <path id="Path_4857" data-name="Path 4857" d="M130.37,101.02c-.14,0-.27-.04-.39-.11l-20.48-12.09-19.26,10.88c-.37,.21-.85,.08-1.06-.29s-.08-.85,.29-1.06l19.65-11.1c.24-.14,.54-.13,.78,0l20.87,12.32c.37,.22,.49,.69,.28,1.06-.14,.24-.4,.39-.68,.38h0Z"/>
      <path id="Path_4858" data-name="Path 4858" d="M93.86,95.92c-2.64,0-4.77-2.14-4.77-4.77s2.14-4.77,4.77-4.77,4.77,2.14,4.77,4.77c0,2.63-2.14,4.77-4.77,4.77Zm0-7.99c-1.78,0-3.22,1.44-3.22,3.22,0,1.78,1.44,3.22,3.22,3.22,1.78,0,3.22-1.44,3.22-3.22,0-1.78-1.44-3.22-3.22-3.22h0Z"/>
      <path id="Path_4859" data-name="Path 4859" d="M148.71,26.76h-2.89c-.43,0-.78-.35-.78-.78s.35-.78,.78-.78h2.89c.43,0,.78,.35,.78,.78s-.35,.78-.78,.78h0Zm-7.99,0h-2.89c-.43,0-.78-.35-.78-.78s.35-.78,.78-.78h2.89c.43,0,.78,.35,.78,.78s-.35,.78-.78,.78h0Zm-7.99,0h-2.89c-.43,0-.78-.35-.78-.78s.35-.78,.78-.78h2.89c.43,0,.78,.35,.78,.78s-.35,.78-.78,.78h0Zm-7.99,0h-2.89c-.43,0-.78-.35-.78-.78s.35-.78,.78-.78h2.89c.43,0,.78,.35,.78,.78s-.35,.78-.78,.78h0Zm-7.99,0h-2.89c-.43,0-.78-.35-.78-.78s.35-.78,.78-.78h2.89c.43,0,.78,.35,.78,.78s-.35,.78-.78,.78h0Zm-7.99,0h-2.89c-.43,0-.78-.35-.78-.78s.35-.78,.78-.78h2.89c.43,0,.78,.35,.78,.78s-.35,.78-.78,.78Zm-7.99,0h-2.89c-.43,0-.78-.35-.78-.78s.35-.78,.78-.78h2.89c.43,0,.78,.35,.78,.78s-.35,.78-.78,.78Zm-7.99,0h-2.89c-.43,0-.78-.35-.78-.78s.35-.78,.78-.78h2.89c.43,0,.78,.35,.78,.78s-.35,.78-.78,.78Zm-7.99,0h-2.89c-.43,0-.78-.35-.78-.78s.35-.78,.78-.78h2.89c.43,0,.78,.35,.78,.78s-.35,.78-.78,.78Zm-7.99,0h-2.89c-.43,0-.78-.35-.78-.78s.35-.78,.78-.78h2.89c.43,0,.78,.35,.78,.78s-.35,.78-.78,.78Zm-7.99,0h-2.89c-.43,0-.78-.35-.78-.78s.35-.78,.78-.78h2.89c.43,0,.78,.35,.78,.78s-.35,.78-.78,.78h0Zm-7.99,0h-2.89c-.43,0-.78-.35-.78-.78s.35-.78,.78-.78h2.89c.43,0,.78,.35,.78,.78s-.35,.78-.78,.78h0Zm-7.99,0h-2.88c-.43,0-.78-.35-.78-.78s.35-.78,.78-.78h2.89c.43,0,.78,.35,.78,.78s-.35,.78-.78,.78h0Zm-7.99,0h-2.89c-.43,0-.78-.35-.78-.78s.35-.78,.78-.78h2.89c.43,0,.78,.35,.78,.78s-.35,.78-.78,.78h0Zm-7.99,0h-2.89c-.43,0-.78-.35-.78-.78s.35-.78,.78-.78h2.89c.43,0,.78,.35,.78,.78s-.35,.78-.78,.78h0Z"/>
      <path id="Path_4860" data-name="Path 4860" d="M155.37,26.76h-1.44c-.43,0-.78-.35-.78-.78s.35-.78,.78-.78h1.44c.43,0,.78,.35,.78,.78s-.35,.78-.78,.78Z"/>
      <path id="Path_4861" data-name="Path 4861" d="M91.32,28.65c-.43,0-.78-.35-.78-.78h0v-1.44c0-.43,.35-.78,.78-.78s.78,.35,.78,.78v1.44c0,.43-.35,.78-.78,.78h0Z"/>
      <path id="Path_4862" data-name="Path 4862" d="M91.32,51.18c-.43,0-.78-.35-.78-.77h0v-2.67c0-.43,.35-.78,.78-.78s.78,.35,.78,.78v2.66c0,.43-.34,.78-.77,.78,0,0,0,0,0,0Zm0-7.55c-.43,0-.78-.35-.78-.77h0v-2.67c0-.43,.35-.78,.78-.78s.78,.35,.78,.78v2.66c0,.43-.35,.78-.78,.78h0Zm0-7.55c-.43,0-.78-.35-.78-.78h0v-2.66c0-.43,.35-.78,.78-.78s.78,.35,.78,.78v2.66c0,.43-.35,.78-.78,.78h0Z"/>
      <path id="Path_4863" data-name="Path 4863" d="M91.32,57.62c-.43,0-.78-.35-.78-.78h0v-1.33c0-.43,.35-.78,.78-.78s.78,.35,.78,.78v1.33c0,.43-.35,.78-.78,.78Z"/>
    </g>
  </g>
</svg>