<?xml version="1.0" encoding="UTF-8"?>
<svg id="Layer_2" data-name="Layer 2" xmlns="http://www.w3.org/2000/svg" viewBox="0 0 175.48 144.15">
  <defs>
    <style>
      .cls-1 {
        fill: none;
        stroke: #6c3099;
        stroke-linecap: round;
        stroke-width: 6px;
      }

      .cls-2 {
        fill: #6c3099;
      }

      .cls-3 {
        fill: #ed1e79;
      }
    </style>
  </defs>
  <g id="Layer_1-2" data-name="Layer 1">
    <g id="Group_47566" data-name="Group 47566">
      <path id="Path_4680" data-name="Path 4680" class="cls-3" d="M33.46,36.9v19.73h26.6v-19.73h-26.6Z"/>
      <path id="Path_4681" data-name="Path 4681" class="cls-2" d="M150.18,19.05c-4.01,0-7.26,3.25-7.26,7.27,0,4.01,3.25,7.26,7.27,7.26,4.01,0,7.26-3.25,7.26-7.26s-3.25-7.26-7.26-7.26h0Zm0,10.81c-1.96,0-3.54-1.59-3.54-3.55,0-1.96,1.59-3.54,3.55-3.54,1.96,0,3.54,1.59,3.54,3.55,0,1.96-1.59,3.55-3.55,3.55Z"/>
      <path id="Path_4682" data-name="Path 4682" class="cls-3" d="M.86,140.83c0,1.36,.68,2.46,1.53,2.46h30.41c.84,0,1.53-1.1,1.53-2.46v-6.12H.86v6.12Z"/>
      <path id="Path_4683" data-name="Path 4683" d="M144.8,114.87H54.55c-.43,0-.77-.34-.77-.77s.34-.77,.77-.77h90.25c1.5-.03,2.69-1.28,2.66-2.78V50.6c0-.43,.35-.77,.77-.77s.77,.35,.77,.77v59.95c.03,2.36-1.86,4.29-4.21,4.32Z"/>
      <path id="Path_4684" data-name="Path 4684" d="M25.71,90.57c-.43,0-.77-.35-.77-.77h0V21.43c.04-2.35,1.96-4.22,4.31-4.19H125.7c.43,0,.77,.35,.77,.77,0,.43-.35,.77-.77,.77H29.25c-1.49-.03-2.73,1.15-2.76,2.64V89.8c0,.43-.35,.77-.77,.77Z"/>
      <path id="Path_4685" data-name="Path 4685" d="M124.92,29.72H26.38c-.43,0-.77-.35-.77-.77s.35-.77,.77-.77H124.92c.43,0,.77,.35,.77,.77,0,.43-.35,.77-.77,.77h0Z"/>
      <path id="Path_4686" data-name="Path 4686" d="M50.24,28.84c-.43,0-.77-.35-.77-.77v-9.39c0-.43,.35-.77,.77-.77s.77,.35,.77,.77v9.39c0,.43-.35,.77-.77,.77h0Z"/>
      <path id="Path_4687" data-name="Path 4687" d="M36.29,26c-1.5,0-2.71-1.21-2.71-2.71,0-1.5,1.21-2.71,2.71-2.71,1.5,0,2.71,1.21,2.71,2.71,0,1.5-1.22,2.71-2.71,2.71Zm0-3.88c-.64,0-1.16,.52-1.16,1.17,0,.64,.52,1.16,1.17,1.16,.64,0,1.16-.52,1.16-1.17s-.52-1.17-1.17-1.17h0Z"/>
      <path id="Path_4688" data-name="Path 4688" d="M44.09,26c-1.5,0-2.71-1.21-2.71-2.71,0-1.5,1.21-2.71,2.71-2.71,1.5,0,2.71,1.21,2.71,2.71h0c0,1.5-1.21,2.71-2.71,2.71Zm0-3.88c-.64,0-1.16,.52-1.16,1.17,0,.64,.52,1.16,1.17,1.16,.64,0,1.16-.52,1.16-1.17s-.52-1.17-1.17-1.17h0Z"/>
      <path id="Path_4689" data-name="Path 4689" d="M115.09,22.32H54.55c-.43,0-.77-.35-.77-.77,0-.43,.35-.77,.77-.77h60.54c.43,0,.77,.35,.77,.77,0,.43-.35,.77-.77,.77h0Z"/>
      <path id="Path_4690" data-name="Path 4690" d="M87.03,26.08H54.55c-.43,0-.77-.35-.77-.77,0-.43,.35-.77,.77-.77h32.48c.43,0,.77,.35,.77,.77,0,.43-.35,.77-.77,.77h0Z"/>
      <path id="Path_4691" data-name="Path 4691" d="M139.51,105.15H53.56c-.43,0-.77-.34-.77-.77s.34-.77,.77-.77h85.95c.43,0,.77,.34,.77,.77s-.34,.77-.77,.77h0Z"/>
      <path id="Path_4692" data-name="Path 4692" d="M139.51,95.1H54.33c-.43,0-.77-.34-.77-.77s.34-.77,.77-.77h85.18c.43,0,.77,.34,.77,.77s-.34,.77-.77,.77h0Z"/>
      <path id="Path_4693" data-name="Path 4693" d="M109.09,40.07h-43.21c-.22,0-.39-.45-.39-1s.18-1,.39-1h43.22c.22,0,.39,.45,.39,1s-.18,1-.39,1Z"/>
      <path id="Path_4694" data-name="Path 4694" d="M94.12,49.77h-28.65c-.14,0-.26-.38-.26-.86s.12-.86,.26-.86h28.65c.14,0,.26,.38,.26,.86s-.12,.86-.26,.86Z"/>
      <path id="Path_4695" data-name="Path 4695" d="M127.85,66.07H34.31c-.47,0-.86-.38-.86-.86s.38-.86,.86-.86H127.85c.47,0,.86,.38,.86,.86s-.38,.86-.86,.86Z"/>
      <path id="Path_4696" data-name="Path 4696" d="M127.85,74.65H34.31c-.47,0-.86-.38-.86-.86s.38-.86,.86-.86H127.85c.47,0,.86,.38,.86,.86s-.38,.86-.86,.86Z"/>
      <path id="Path_4697" data-name="Path 4697" d="M127.85,83.23H34.31c-.47,0-.86-.38-.86-.86s.38-.86,.86-.86H127.85c.47,0,.86,.38,.86,.86s-.38,.86-.86,.86Z"/>
      <path id="Path_4698" data-name="Path 4698" d="M51.82,144.15H2.54c-1.4,0-2.53-1.14-2.54-2.54v-49.26c0-1.4,1.14-2.53,2.54-2.54H51.82c1.4,0,2.53,1.14,2.54,2.54v49.26c0,1.4-1.14,2.53-2.54,2.54ZM2.54,91.36c-.55,0-.99,.44-.99,.99v49.26c0,.55,.44,.99,.99,.99H51.82c.55,0,.99-.44,.99-.99v-49.26c0-.55-.44-.99-.99-.99H2.54Z"/>
      <path id="Path_4699" data-name="Path 4699" d="M53.56,135.74H.86c-.43,0-.77-.35-.77-.77s.35-.77,.77-.77H53.56c.43,0,.77,.35,.77,.77s-.35,.77-.77,.77h0Z"/>
      <path id="Path_4700" data-name="Path 4700" d="M150.18,37.21c-4.81,0-9.83-1.84-14.53-5.31-2.1-1.53-4.01-3.31-5.7-5.29-.24-.3-.23-.72,.03-1,1.79-1.9,3.77-3.6,5.92-5.08,3.34-2.33,8.53-5.1,14.29-5.1,6.12,0,11.3,2.78,14.56,5.11,2.09,1.47,3.99,3.18,5.67,5.1,.24,.29,.24,.71-.01,1-1.78,1.96-3.76,3.73-5.91,5.28-3.35,2.41-8.54,5.3-14.3,5.3Zm-18.59-11.06c1.51,1.67,3.19,3.19,5.01,4.53,3.08,2.27,7.94,4.98,13.58,4.98,5.34,0,10.21-2.71,13.37-4.99,1.88-1.36,3.63-2.88,5.23-4.56-1.5-1.61-3.17-3.07-4.96-4.35-3.07-2.19-7.93-4.79-13.63-4.79-5.34,0-10.22,2.61-13.37,4.8-1.87,1.3-3.61,2.76-5.21,4.38h0Z"/>
      <path id="Path_4701" data-name="Path 4701" d="M150.18,34.35c-4.44,0-8.04-3.6-8.03-8.04,0-4.44,3.6-8.04,8.04-8.03,4.44,0,8.03,3.6,8.03,8.04,0,4.44-3.6,8.03-8.04,8.04Zm0-14.53c-3.58,0-6.49,2.91-6.49,6.49,0,3.58,2.91,6.49,6.49,6.49,3.58,0,6.49-2.91,6.49-6.49,0-3.58-2.91-6.49-6.49-6.49Z"/>
      <path id="Path_4702" data-name="Path 4702" d="M150.18,30.63c-2.38,0-4.32-1.94-4.32-4.32s1.94-4.32,4.32-4.32c2.38,0,4.32,1.93,4.32,4.32,0,2.38-1.94,4.32-4.32,4.32Zm0-7.09c-1.53,0-2.77,1.24-2.77,2.77s1.24,2.77,2.77,2.77c1.53,0,2.77-1.24,2.77-2.77,0-1.53-1.24-2.77-2.77-2.77Z"/>
      <path id="Path_4703" data-name="Path 4703" d="M167.24,43.68c-.43,0-.77-.35-.77-.77,0-.21,.08-.41,.24-.56,2.25-2.17,4.04-4.77,5.28-7.64,.17-.39,.62-.57,1.02-.4s.57,.62,.4,1.02c-1.32,3.06-3.23,5.82-5.63,8.13-.14,.14-.34,.22-.54,.22h0Z"/>
      <path id="Path_4704" data-name="Path 4704" d="M150.18,50.58c-13.97,0-25.29-11.31-25.3-25.28,0-6.71,2.66-13.15,7.41-17.9,9.88-9.88,25.9-9.88,35.78,0,4.74,4.74,7.41,11.17,7.41,17.88,0,.43-.35,.77-.77,.77s-.77-.35-.77-.77c0-13.12-10.63-23.76-23.74-23.76s-23.76,10.63-23.76,23.74c0,13.12,10.63,23.76,23.74,23.76h0c3.61,.01,7.17-.81,10.4-2.39,.38-.2,.85-.05,1.04,.33s.05,.85-.33,1.04c0,0-.02,.01-.03,.01-3.45,1.69-7.24,2.56-11.08,2.55Z"/>
      <path id="Path_4705" data-name="Path 4705" d="M9.81,86.27c-.43,0-.77-.35-.77-.77h0v-1.32c0-.43,.35-.77,.77-.77s.77,.35,.77,.77v1.32c0,.43-.35,.77-.77,.77h0Z"/>
      <path id="Path_4706" data-name="Path 4706" d="M9.81,79.86c-.43,0-.77-.35-.77-.77h0v-2.76c0-.43,.35-.77,.77-.77s.77,.35,.77,.77v2.76c0,.43-.35,.77-.77,.77h0Zm0-7.73c-.43,0-.77-.35-.77-.77h0v-2.76c0-.43,.35-.77,.77-.77s.77,.35,.77,.77v2.76c0,.43-.35,.77-.77,.77h0Zm0-7.73c-.43,0-.77-.35-.77-.77v-2.76c0-.43,.35-.77,.77-.77s.77,.35,.77,.77h0v2.76c0,.43-.34,.77-.77,.78h0Zm0-7.73c-.43,0-.77-.35-.77-.77v-2.76c0-.43,.35-.77,.77-.77s.77,.35,.77,.77v2.76c0,.43-.35,.77-.77,.77h0Zm0-7.73c-.43,0-.77-.35-.77-.77v-2.76c0-.43,.35-.77,.77-.77s.77,.35,.77,.77v2.76c0,.43-.34,.77-.77,.77,0,0,0,0,0,0h0Zm0-7.73c-.43,0-.77-.35-.77-.77v-2.76c0-.43,.35-.77,.77-.77s.77,.35,.77,.77v2.76c0,.43-.35,.77-.77,.77h0Zm0-7.73c-.43,0-.77-.35-.77-.77v-2.76c0-.43,.35-.77,.77-.77s.77,.35,.77,.77v2.76c0,.43-.34,.77-.77,.77,0,0,0,0,0,0h0Zm0-7.73c-.43,0-.77-.35-.77-.77h0v-2.76c0-.43,.35-.77,.77-.77s.77,.35,.77,.77v2.76c0,.43-.35,.77-.77,.77h0Zm0-7.73c-.43,0-.77-.35-.77-.77h0v-2.76c0-.43,.35-.77,.77-.77s.77,.35,.77,.77v2.76c0,.43-.35,.77-.77,.77h0Z"/>
      <path id="Path_4707" data-name="Path 4707" d="M9.81,10.06c-.43,0-.77-.35-.77-.77v-1.44c0-.43,.35-.77,.77-.77h1.33c.43,0,.77,.35,.77,.77s-.35,.77-.77,.77h-.55v.66c0,.43-.35,.77-.77,.77,0,0,0,0,0,0Z"/>
      <path id="Path_4708" data-name="Path 4708" d="M119.4,8.63h-2.76c-.43,0-.77-.35-.77-.77s.35-.77,.77-.77h2.76c.43,0,.77,.35,.77,.77s-.35,.77-.77,.77Zm-7.73,0h-2.77c-.43,0-.77-.35-.77-.77s.35-.77,.77-.77h2.76c.43,0,.77,.35,.77,.77s-.35,.77-.77,.77h0Zm-7.73,0h-2.76c-.43,0-.77-.35-.77-.77s.35-.77,.77-.77h2.76c.43,0,.77,.35,.77,.77s-.35,.77-.77,.77Zm-7.73,0h-2.76c-.43,0-.77-.35-.77-.77s.35-.77,.77-.77h2.76c.43,0,.77,.35,.77,.77s-.35,.77-.77,.77h0Zm-7.73,0h-2.76c-.43,0-.77-.35-.77-.77s.35-.77,.77-.77h2.76c.43,0,.77,.35,.77,.77s-.35,.77-.77,.77h0Zm-7.73,0h-2.76c-.43,0-.77-.35-.77-.77s.35-.77,.77-.77h2.76c.43,0,.77,.35,.77,.77s-.35,.77-.77,.77h0Zm-7.73,0h-2.76c-.43,0-.77-.35-.77-.77s.35-.77,.77-.77h2.76c.43,0,.77,.35,.77,.77s-.35,.77-.77,.77Zm-7.73,0h-2.77c-.43,0-.77-.35-.77-.77s.35-.77,.77-.77h2.76c.43,0,.77,.35,.77,.77s-.35,.77-.77,.77h0Zm-7.73,0h-2.76c-.43,0-.77-.35-.77-.77s.35-.77,.77-.77h2.76c.43,0,.77,.35,.77,.77s-.35,.77-.77,.77h0Zm-7.73,0h-2.76c-.43,0-.77-.35-.77-.77s.35-.77,.77-.77h2.76c.43,0,.77,.35,.77,.77s-.35,.77-.77,.77h0Zm-7.73,0h-2.76c-.43,0-.77-.35-.77-.77s.35-.77,.77-.77h2.76c.43,0,.77,.35,.77,.77s-.35,.77-.77,.77h0Zm-7.73,0h-2.76c-.43,0-.77-.35-.77-.77s.35-.77,.77-.77h2.76c.43,0,.77,.35,.77,.77s-.35,.77-.77,.77Zm-7.73,0h-2.76c-.43,0-.77-.35-.77-.77s.35-.77,.77-.77h2.76c.43,0,.77,.35,.77,.77s-.35,.77-.77,.77h0Zm-7.73,0h-2.76c-.43,0-.77-.35-.77-.77s.35-.77,.77-.77h2.76c.43,0,.77,.35,.77,.77s-.35,.77-.77,.77h0Z"/>
      <path id="Path_4709" data-name="Path 4709" d="M125.7,8.63h-1.44c-.43,0-.77-.35-.77-.77s.35-.77,.77-.77h1.44c.43,0,.77,.35,.77,.77s-.35,.77-.77,.77Z"/>
      <path id="Path_4710" data-name="Path 4710" d="M63.83,135.74h-1.33c-.43,0-.77-.35-.77-.77s.35-.77,.77-.77h1.33c.43,0,.77,.35,.77,.77s-.35,.77-.77,.77h0Z"/>
      <path id="Path_4711" data-name="Path 4711" d="M164.37,135.74h-2.76c-.43,0-.77-.35-.77-.77s.35-.77,.77-.77h2.76c.43,0,.77,.35,.77,.77s-.35,.77-.77,.77h0Zm-7.73,0h-2.76c-.43,0-.77-.35-.77-.77s.35-.77,.77-.77h2.76c.43,0,.77,.35,.77,.77s-.35,.77-.77,.77h0Zm-7.73,0h-2.76c-.43,0-.77-.35-.77-.77s.35-.77,.77-.77h2.76c.43,0,.77,.35,.77,.77s-.35,.77-.77,.77h0Zm-7.73,0h-2.76c-.43,0-.77-.35-.77-.77s.35-.77,.77-.77h2.76c.43,0,.77,.35,.77,.77s-.35,.77-.77,.77h0Zm-7.73,0h-2.76c-.43,0-.77-.35-.77-.77s.35-.77,.77-.77h2.76c.43,0,.77,.35,.77,.77s-.35,.77-.77,.77h0Zm-7.73,0h-2.76c-.43,0-.77-.35-.77-.77s.35-.77,.77-.77h2.76c.43,0,.77,.35,.77,.77s-.35,.77-.77,.77h0Zm-7.73,0h-2.76c-.43,0-.77-.35-.77-.77s.35-.77,.77-.77h2.76c.43,0,.77,.35,.77,.77s-.35,.77-.77,.77h0Zm-7.73,0h-2.76c-.43,0-.77-.35-.77-.77s.35-.77,.77-.77h2.76c.43,0,.77,.35,.77,.77s-.35,.77-.77,.77Zm-7.73,0h-2.76c-.43,0-.77-.35-.77-.77s.35-.77,.77-.77h2.76c.43,0,.77,.35,.77,.77s-.35,.77-.77,.77h0Zm-7.73,0h-2.76c-.43,0-.77-.35-.77-.77s.35-.77,.77-.77h2.76c.43,0,.77,.35,.77,.77s-.35,.77-.77,.77h0Zm-7.73,0h-2.76c-.43,0-.77-.35-.77-.77s.35-.77,.77-.77h2.76c.43,0,.77,.35,.77,.77s-.35,.77-.77,.77h0Zm-7.73,0h-2.76c-.43,0-.77-.35-.77-.77s.35-.77,.77-.77h2.77c.43,0,.77,.35,.77,.77s-.35,.77-.77,.77h0Zm-7.73,0h-2.76c-.43,0-.77-.35-.77-.77s.35-.77,.77-.77h2.76c.43,0,.77,.35,.77,.77s-.35,.77-.77,.77h0Z"/>
      <path id="Path_4712" data-name="Path 4712" d="M169.78,135.74h-1.44c-.43,0-.77-.35-.77-.77s.35-.77,.77-.77h.66v-.55c0-.43,.35-.77,.77-.77s.77,.35,.77,.77v1.32c0,.43-.34,.77-.77,.77h0Z"/>
      <path id="Path_4713" data-name="Path 4713" d="M169.78,129.45c-.43,0-.77-.34-.77-.77h0v-2.76c0-.43,.35-.77,.77-.77s.77,.35,.77,.77v2.76c0,.43-.34,.77-.77,.77h0Zm0-7.62c-.43,0-.77-.34-.77-.77h0v-2.76c0-.43,.35-.77,.77-.77s.77,.35,.77,.77h0v2.76c0,.43-.34,.77-.77,.77,0,0,0,0,0,0Zm0-7.62c-.43,0-.77-.35-.77-.77v-2.76c0-.43,.35-.77,.77-.77s.77,.35,.77,.77v2.76c0,.43-.35,.77-.77,.77h0Zm0-7.62c-.43,0-.77-.35-.77-.77v-2.76c0-.43,.35-.77,.77-.77s.77,.35,.77,.77v2.76c0,.43-.35,.77-.77,.77h0Zm0-7.62c-.43,0-.77-.35-.77-.77v-2.76c0-.43,.35-.77,.77-.77s.77,.35,.77,.77v2.76c0,.43-.35,.77-.77,.77h0Zm0-7.62c-.43,0-.77-.35-.77-.77v-2.76c0-.43,.35-.77,.77-.77s.77,.35,.77,.77v2.76c0,.43-.35,.77-.77,.77h0Zm0-7.62c-.43,0-.77-.35-.77-.77v-2.76c0-.43,.35-.77,.77-.77s.77,.35,.77,.77v2.76c0,.43-.35,.77-.77,.77h0Z"/>
      <path id="Path_4714" data-name="Path 4714" d="M169.78,76.33c-.43,0-.77-.35-.77-.77v-.66h-.66c-.43,0-.77-.35-.77-.77,0-.43,.35-.77,.77-.77h1.44c.43,0,.77,.35,.77,.77h0v1.44c0,.43-.35,.77-.77,.77h0Z"/>
      <path id="Path_4715" data-name="Path 4715" d="M163.26,74.89h-2.87c-.43,0-.77-.35-.77-.77,0-.43,.35-.77,.77-.77h2.87c.43,0,.77,.35,.77,.77,0,.43-.35,.77-.77,.77Z"/>
      <path id="Path_4716" data-name="Path 4716" d="M155.09,74.89h-1.33c-.43,0-.77-.35-.77-.77,0-.43,.35-.77,.77-.77h1.33c.43,0,.77,.35,.77,.77,0,.43-.35,.77-.77,.77Z"/>
      <path id="Path_4717" data-name="Path 4717" class="cls-1" d="M18.45,113.16l5.03,5.03c6.21-6,6.35-6.01,12.56-12.01"/>
    </g>
  </g>
</svg>