<?xml version="1.0" encoding="UTF-8"?>
<svg id="Layer_2" data-name="Layer 2" xmlns="http://www.w3.org/2000/svg" xmlns:xlink="http://www.w3.org/1999/xlink" viewBox="0 0 475 412">
  <defs>
    <style>
      .cls-1, .cls-2 {
        fill: #fff;
      }

      .cls-2 {
        stroke-linecap: round;
        stroke-linejoin: round;
      }

      .cls-2, .cls-3 {
        stroke: #000;
      }

      .cls-4 {
        isolation: isolate;
      }

      .cls-4, .cls-5 {
        opacity: .3;
      }

      .cls-6 {
        clip-path: url(#clippath);
      }

      .cls-7, .cls-8 {
        fill: #6c3099;
      }

      .cls-9, .cls-3 {
        fill: none;
      }

      .cls-10 {
        fill: #e8e8e8;
      }

      .cls-11 {
        fill: #ed1e79;
      }

      .cls-8 {
        stroke: #fff;
      }
    </style>
    <clipPath id="clippath">
      <rect class="cls-9" x="153.61" y="253.13" width="59.83" height="59.83" transform="translate(-136.96 388.33) rotate(-75.23)"/>
    </clipPath>
  </defs>
  <g id="Layer_1-2" data-name="Layer 1">
    <g>
      <path id="Path_4425" data-name="Path 4425" class="cls-10" d="M29.86,410.32s20.5-79.33,56.07-92.18-1.96,53.1,40.41,28.97,129.69-166.25,140.99-97.52,17.27,150.61,64.58,103.5,70.52-127.6,98.84-112.38c26.3,14.13-25.06,104.59,15.61,90.9,54.12-18.22,13.61,72.31,10.9,78.71H29.86Z"/>
      <path id="Path_4426" data-name="Path 4426" d="M29.05,410.95H457.67l.17-.38c.08-.19,.2-.46,.34-.8,5.09-11.55,9.35-23.43,12.77-35.58,5.62-20.75,5.39-34.61-.67-41.23-4.68-5.1-12.79-5.76-24.11-1.95-5.8,1.95-9.83,1.84-12.3-.35-5.84-5.16-2.6-21.34,.83-38.46,2.17-10.82,4.4-22,4.58-31.38,.2-10.82-2.49-17.58-8.21-20.65-17.2-9.24-32.35,15.39-51.53,46.57-13.43,21.84-28.66,46.61-48.05,65.92-5.82,5.8-11.22,9.81-16.05,11.92-4.49,1.96-8.63,2.35-12.31,1.13-4.32-1.42-8.1-4.95-11.55-10.79-3.13-5.28-5.9-12.33-8.49-21.55-4.84-17.21-8.27-39.7-11.6-61.46-1.13-7.39-2.3-15.04-3.52-22.42-.9-5.45-2.31-9.78-4.22-12.88-1.53-2.76-4.06-4.83-7.06-5.79-4-1.16-8.83-.15-14.77,3.07-5.19,2.82-11.13,7.3-18.17,13.69-13.01,11.82-27.8,28.46-42.09,44.55-21.03,23.67-40.89,46.04-55.62,54.42-8.58,4.89-14.35,6.36-17.63,4.51-3.86-2.19-4.04-8.82-4.24-15.84-.2-7.28-.4-14.8-4.97-17.93-2.97-2.03-7.38-1.95-13.47,.25-8.23,2.98-16.33,9.71-24.06,20.04-6.15,8.22-12.1,18.71-17.68,31.21-5.92,13.41-10.84,27.24-14.73,41.37l-.2,.78h0Zm427.79-1.27H30.67c3.85-13.8,8.68-27.3,14.46-40.4,5.54-12.4,11.44-22.82,17.53-30.96,7.58-10.12,15.48-16.71,23.48-19.61,5.69-2.06,9.73-2.19,12.35-.39,4.05,2.77,4.24,9.96,4.43,16.93,.2,7.39,.39,14.37,4.87,16.9,1.21,.65,2.56,.98,3.94,.94,3.63,0,8.5-1.79,14.93-5.45,14.91-8.49,34.84-30.92,55.94-54.68,14.27-16.06,29.02-32.68,41.99-44.45,14.43-13.11,24.82-18.5,31.74-16.49,5.21,1.51,8.71,7.45,10.39,17.66,1.21,7.37,2.38,15.02,3.51,22.4,3.34,21.79,6.78,44.33,11.64,61.61,2.62,9.33,5.44,16.47,8.62,21.84,3.62,6.11,7.62,9.82,12.24,11.34,3.98,1.32,8.43,.92,13.2-1.17,4.97-2.17,10.5-6.27,16.43-12.18,19.49-19.41,34.76-44.24,48.23-66.15,18.83-30.62,33.71-54.81,49.87-46.12,5.27,2.83,7.73,9.21,7.55,19.52-.17,9.27-2.39,20.4-4.55,31.16-1.77,8.82-3.44,17.15-3.93,24.11-.56,8,.55,12.94,3.5,15.55,2.85,2.51,7.27,2.71,13.53,.6,10.8-3.64,18.48-3.1,22.79,1.61,3.11,3.39,4.58,9.02,4.36,16.72-.18,6.39-1.52,14.24-3.98,23.33-3.4,12.09-7.65,23.92-12.71,35.41-.07,.15-.13,.3-.18,.42h.01Z"/>
      <path id="Path_4427" data-name="Path 4427" class="cls-7" d="M124.23,149.97h-58.57s1.41,30.83,29.47,30.83,29.1-30.83,29.1-30.83Z"/>
      <path id="Path_4428" data-name="Path 4428" class="cls-10" d="M93.45,181.44h104.01l-12.33-87.01s-8.61-21.89-19.68-37.39c-2.87-4.23-6.33-8.04-10.27-11.31-2.28-1.94-5.05-3.21-8-3.69-18.15-2.06-41.4,41.58-38.7,89.77,2.7,48.19-15.03,49.63-15.03,49.63Z"/>
      <path id="Path_4429" data-name="Path 4429" d="M93.45,182.07h104.73l-12.44-87.8-.03-.07c-.09-.22-8.76-22.14-19.76-37.52-2.91-4.29-6.41-8.14-10.4-11.44-2.37-2-5.25-3.32-8.31-3.82-4.47-.51-9.39,1.64-14.22,6.2-7.29,6.89-14.13,19.1-18.76,33.5-5.2,16.38-7.38,33.57-6.42,50.73,2.64,47.03-14.28,48.95-14.45,48.97l.05,1.25h0Zm103.28-1.26H96.84c2.31-1.45,4.26-3.43,5.67-5.77,2.42-3.77,4.23-8.83,5.38-15.02,1.43-7.69,1.84-17.19,1.21-28.23-.95-17.01,1.21-34.04,6.37-50.28,4.56-14.2,11.28-26.22,18.42-32.97,4.55-4.3,9.12-6.33,13.21-5.86,2.84,.47,5.49,1.7,7.68,3.56,3.89,3.23,7.31,6.99,10.14,11.18,10.59,14.83,19.04,35.83,19.58,37.18l12.21,86.22h0Z"/>
      <path id="Path_4430" data-name="Path 4430" class="cls-1" d="M438.76,409.49s24.24-220.67-38.23-333.24c-11.76-21.09-34.03-34.14-58.18-34.1H144.45s32.55-2.85,41.04,104.42c8.86,111.9-5.81,264.08-5.81,264.08l259.07-1.16h0Z"/>
      <path id="Path_4431" data-name="Path 4431" d="M177.88,412h.69l259.63-1.17,.06-.56c3.92-41.38,5.36-82.95,4.31-124.5-1.02-40.23-4.46-77.03-10.22-109.37-7.21-40.46-18.11-74.02-32.4-99.75-11.87-21.29-34.35-34.46-58.72-34.42H143.93c-.38-.02-.6,0-.63,0l.05,1.25h.5c1.6,.13,3.17,.55,4.62,1.24,2.84,1.28,7.2,4.18,11.86,10.68,8.29,11.56,19.08,36.89,23.44,91.92,4.57,57.77,2.75,126.47,.42,173.92-2.53,51.42-6.19,89.67-6.23,90.05l-.06,.69v.02Zm259.2-2.41l-257.81,1.15c.51-5.39,3.82-41.75,6.17-89.42,2.34-47.49,4.16-116.25-.41-174.08-2.37-29.87-6.83-54.02-13.27-71.78-4.78-13.17-10.55-22.67-17.16-28.24-1.76-1.52-3.72-2.77-5.84-3.73h192.49c23.92-.04,45.98,12.89,57.63,33.78,32.2,58.04,40.86,145.43,42.46,208.54,1.03,41.31-.39,82.65-4.25,123.79h0Z"/>
      <path id="Path_4432" data-name="Path 4432" class="cls-1" d="M182.01,58.74s9.49,12.72,14.88,37.06c2.19,9.98,3.39,20.14,3.6,30.35h86.67c.47-7.49,.24-15.02-.7-22.47-1.7-14.13-6.29-32.2-18.04-45.88l-86.4,.93h0Z"/>
      <path id="Path_4433" data-name="Path 4433" class="cls-11" d="M235.54,83.67c-6.27,.74-11.86-2.86-12.47-8.03s3.98-9.98,10.25-10.72,11.86,2.86,12.47,8.04-3.98,9.98-10.26,10.72Z"/>
      <path id="Path_4434" data-name="Path 4434" class="cls-11" d="M240.12,92.01c-23.58-1.06-35.63,22.14-38.71,33.87h85.79c-5.87-10.86-23.49-32.82-47.07-33.87Z"/>
      <path id="Path_4435" data-name="Path 4435" d="M199.93,126.72h87.75l.05-.52c.47-7.53,.23-15.1-.7-22.59-1.6-13.28-6.05-32.08-18.18-46.18l-.17-.2h-.27l-87.52,.95,.67,.9c.1,.13,9.47,12.92,14.78,36.84,2.17,9.94,3.37,20.07,3.59,30.24l.02,.55h-.01Zm86.7-1.14h-85.59c-.25-10.06-1.45-20.07-3.6-29.91-4.56-20.59-12.15-33.05-14.36-36.37l85.06-.92c11.81,13.86,16.17,32.31,17.74,45.37,.89,7.24,1.14,14.55,.74,21.83Z"/>
      <path id="Path_4436" data-name="Path 4436" d="M203.75,151.59h89.63v1.25h-89.63v-1.25Z"/>
      <path id="Path_4437" data-name="Path 4437" d="M203.75,138.31h89.63v1.26h-89.63v-1.26Z"/>
      <path id="Path_4438" data-name="Path 4438" d="M281.33,57.21h89.62v1.26h-89.62v-1.26Z"/>
      <path id="Path_4439" data-name="Path 4439" d="M296.67,75.45h89.62v1.26h-89.62v-1.26Z"/>
      <path id="Path_4440" data-name="Path 4440" d="M203.75,163.7h89.63v1.26h-89.63v-1.26Z"/>
      <path id="Path_4441" data-name="Path 4441" d="M203.75,177.06h89.63v1.26h-89.63v-1.26Z"/>
      <path id="Path_4442" data-name="Path 4442" d="M203.62,202.53h131.53v1.26H203.62v-1.26Z"/>
      <path id="Path_4443" data-name="Path 4443" d="M203.62,214.65h131.53v1.26H203.62v-1.26Z"/>
      <path id="Path_4444" data-name="Path 4444" d="M203.62,228.01h131.53v1.26H203.62v-1.26Z"/>
      <path id="Path_4445" data-name="Path 4445" d="M212.82,253.48h213.73v1.26H212.82v-1.26Z"/>
      <path id="Path_4446" data-name="Path 4446" d="M212.82,265.6h213.73v1.26H212.82v-1.26Z"/>
      <path id="Path_4447" data-name="Path 4447" d="M212.82,278.95h213.73v1.26H212.82v-1.26Z"/>
      <path id="Path_4448" data-name="Path 4448" d="M209.28,304.43h217.27v1.26H209.28v-1.26Z"/>
      <path id="Path_4449" data-name="Path 4449" d="M209.28,316.54h217.27v1.26H209.28v-1.26Z"/>
      <path id="Path_4450" data-name="Path 4450" d="M209.28,329.59h217.27v1.26H209.28v-1.26Z"/>
      <path id="Path_4451" data-name="Path 4451" d="M473.4,411.06H19.9c-6.12,0-12.26,.05-18.39,0H.72c-.96,0-.96-.84,0-.84H454.21c6.12,0,12.26-.05,18.39,0h.8c.96,0,.96,.84,0,.84h0Z"/>
      <path id="Path_4452" data-name="Path 4452" class="cls-1" d="M433.49,336.37c2.83,1.34,4.57,3.04,3.81,5.14-2.54,6.99-17.39,47.85-17.39,47.85-2.5-.48-4.59-2.17-5.58-4.51-1.14-2.69-.61-6.52,.25-14.55,0,0,.67-15.87-6.54-20.65l6.41-17.62s12.45,1.23,19.04,4.37h0Z"/>
      <path id="Path_4453" data-name="Path 4453" d="M437.82,341.7l-17.54,48.26-.43-.06c-2.69-.5-4.95-2.32-6.01-4.84-1.11-2.62-.73-6.1,.02-13.04,.06-.57,.13-1.15,.19-1.77,.02-.59,.46-15.67-6.3-20.16l-.36-.24,6.7-18.43,.42,.04c.52,.05,12.62,1.28,19.22,4.42,3.51,1.67,4.89,3.63,4.09,5.82h0Zm-18.26,47.03l17.23-47.4c.57-1.57-.62-3.07-3.53-4.45-5.75-2.73-16.21-4.02-18.44-4.27l-6.12,16.82c7.01,5.15,6.45,20.23,6.43,20.88v.04c-.07,.62-.13,1.22-.19,1.79-.73,6.75-1.1,10.14-.1,12.49,.85,2.03,2.59,3.55,4.72,4.1h0Z"/>
      <path id="Path_4454" data-name="Path 4454" class="cls-7" d="M433.49,336.38c3.1,.45,5.13,1.51,4.37,3.61-2.54,6.99-17.95,49.38-17.95,49.38,0,0-2.57,1-4.29-2.09-.24-.43-.29-.95-.12-1.42l17.98-49.48h0Z"/>
      <path id="Path_4455" data-name="Path 4455" class="cls-1" d="M376.52,405.28c-.3,3.12-1.29,5.33-3.53,5.33h-50.91c-.4-2.51,.47-5.05,2.33-6.78,2.14-2,5.92-2.8,13.77-4.74,0,0,15.15-4.8,17.17-13.2h18.75s3.1,12.12,2.4,19.39h0Z"/>
      <path id="Path_4456" data-name="Path 4456" d="M373,410.47h-51.35l-.09-.43c-.45-2.7,.49-5.45,2.5-7.3,2.08-1.94,5.48-2.78,12.26-4.44,.55-.13,1.13-.28,1.73-.42,.56-.18,14.89-4.92,16.79-12.8l.1-.42h19.61l.1,.41c.13,.5,3.11,12.29,2.41,19.58-.38,3.87-1.74,5.83-4.07,5.83h0Zm-50.44-1.11h50.44c1.67,0,2.67-1.63,2.98-4.84,.61-6.35-1.76-16.61-2.29-18.78h-17.9c-2.44,8.34-16.81,12.98-17.43,13.18h-.04c-.61,.16-1.19,.3-1.75,.44-6.59,1.62-9.9,2.43-11.78,4.17-1.62,1.49-2.44,3.65-2.23,5.83h0Z"/>
      <path id="Path_4457" data-name="Path 4457" class="cls-7" d="M376.52,405.28c.64,3.07,.34,5.33-1.89,5.33h-52.54s-1.82-2.08,.5-4.74c.32-.38,.79-.59,1.29-.59h52.64Z"/>
      <path id="Path_4458" data-name="Path 4458" class="cls-1" d="M369.93,91.64c-.73,9-.15,23.09-.15,23.09-1.29,11.54-25.62,4.77-21.8-3.88,3.01-2.65,4.5-7.29,5.22-11.56,.18-1.08,.32-2.14,.42-3.13-.33,.06-.67,.1-1,.14-.6,.08-1.21,.09-1.82,.04-10.11-.99-5.17-22.95-5.17-22.95,0,0,6.11-9.72,19.16-5.55,5.6,1.79,6.86,6.7,7.8,14.14,0,0,2.09,6.36-2.66,9.65h0Z"/>
      <path id="Path_4459" data-name="Path 4459" d="M369.51,91.64c-.27,3.25-.34,6.53-.36,9.79-.02,3.01,.01,6.03,.08,9.04,.02,.99,.05,1.98,.08,2.98,.01,.42,.06,.85,.05,1.28,0,.11-.01,.22-.04,.32-.04,.24-.09,.46-.15,.7-.06,.22-.13,.43-.21,.64-.02,.05-.04,.09-.05,.14,.03-.07-.02,.05-.03,.07-.05,.1-.1,.2-.14,.3-.1,.19-.21,.38-.33,.56l-.16,.24s-.03,.04-.04,.06c-.04,.05-.07,.09-.11,.14-.27,.32-.57,.6-.89,.86-.05,.04,.04-.02-.05,.04-.04,.03-.08,.05-.11,.08-.08,.06-.17,.12-.27,.18-.17,.12-.36,.22-.54,.32s-.38,.19-.58,.28l-.07,.03s-.09,.04-.14,.05c-.1,.04-.21,.08-.32,.12-.43,.14-.86,.26-1.31,.35-.44,.09-.88,.15-1.32,.19-.97,.08-1.95,.08-2.92-.02-.53-.05-.91-.1-1.44-.19-.5-.08-.99-.19-1.48-.32-1.88-.45-3.67-1.22-5.29-2.28-.19-.13-.38-.25-.56-.39-.04-.03-.08-.06-.12-.09-.07-.05-.02-.01,0,0-.02-.02-.04-.03-.06-.05-.08-.07-.17-.14-.26-.21-.32-.27-.62-.56-.91-.87-.13-.14-.25-.29-.38-.44,.07,.08-.04-.05-.05-.06-.02-.04-.05-.07-.08-.11-.05-.08-.11-.16-.16-.25-.1-.16-.19-.32-.28-.48-.04-.07-.08-.15-.11-.22,0-.02-.06-.14-.04-.09s-.04-.08-.04-.11c-.07-.17-.12-.34-.16-.51-.02-.08-.04-.16-.05-.24,0-.04-.02-.08-.02-.12s-.02-.18-.01-.07c-.05-.36-.05-.72,0-1.07-.01,.1,0,0,0-.04,0-.04,.01-.09,.02-.13,.02-.1,.04-.19,.07-.28,.05-.19,.11-.37,.18-.56,0-.02,.01-.05,.02-.07,.02-.05-.06,.06,0-.01,.04-.04,.11-.1,.16-.14,.16-.15,.32-.3,.46-.46,.29-.31,.57-.64,.82-.98,2.2-2.89,3.23-6.58,3.83-10.11,.18-1.08,.33-2.16,.43-3.24,.03-.3-.29-.45-.53-.41-.67,.12-1.34,.19-2.02,.2-.26,0-.52-.01-.78-.04-.03,0-.07,0-.1-.01-.08-.01,.1,.01-.03,0-.08-.01-.16-.02-.24-.04-.27-.05-.53-.12-.79-.21-.23-.07-.45-.17-.67-.28-.23-.12-.45-.25-.66-.4-.19-.13-.36-.28-.52-.44-.37-.34-.69-.73-.95-1.15-.59-.94-1.02-1.97-1.26-3.06-.3-1.2-.49-2.43-.56-3.66-.15-2.55-.08-5.11,.24-7.65,.18-1.63,.42-3.27,.76-4.96,.03-.16,.07-.32,.1-.47,.03-.18-.06,.05,0-.02,.09-.11,.17-.24,.25-.36,.03-.05,.06-.09,.1-.13,.02-.03-.07,.08,0,0l.07-.09c.1-.13,.21-.25,.31-.38,1.38-1.62,3.09-2.94,5.01-3.87,3.03-1.42,6.42-1.86,9.71-1.28,1.92,.24,3.77,.86,5.45,1.82,1.25,.82,2.26,1.96,2.93,3.29,.76,1.55,1.3,3.2,1.6,4.9,.21,1,.37,2.01,.52,3.03,.05,.59,.13,1.17,.26,1.74,.26,.9,.39,1.83,.39,2.76,.06,1.54-.32,3.07-1.11,4.39-.47,.74-1.08,1.37-1.8,1.87-.44,.31-.02,1.04,.42,.73,1.55-1.07,2.64-2.67,3.07-4.5,.31-1.4,.34-2.85,.09-4.26-.06-.39-.14-.78-.25-1.17-.02-.07-.04-.13-.06-.19,.02,.09-.01-.11-.02-.13-.02-.13-.04-.26-.05-.39-.04-.32-.08-.64-.13-.96-.24-1.98-.65-3.94-1.23-5.85-.47-1.61-1.28-3.11-2.35-4.4-1.11-1.22-2.52-2.14-4.09-2.65-3.7-1.34-7.73-1.48-11.52-.4-2.48,.78-4.74,2.14-6.59,3.97-.53,.52-1.02,1.08-1.46,1.68-.15,.17-.28,.37-.36,.59-.3,1.32-.53,2.66-.69,4-.36,2.52-.54,5.06-.51,7.6-.05,2.61,.42,5.2,1.37,7.63,.43,1.02,1.07,1.94,1.89,2.69,.85,.75,1.91,1.25,3.03,1.42,1.15,.14,2.31,.1,3.44-.13l-.53-.41c-.19,2.04-.54,4.06-1.04,6.05-.44,1.79-1.11,3.53-1.98,5.15-.42,.77-.91,1.49-1.48,2.16-.28,.32-.57,.63-.88,.91-.2,.2-.34,.45-.41,.72-.26,.76-.32,1.57-.19,2.36,.36,1.58,1.28,2.99,2.58,3.96,1.54,1.23,3.29,2.16,5.16,2.76,1.96,.67,4.02,1.02,6.1,1.04,1.91,.06,3.81-.34,5.53-1.17,1.6-.82,2.81-2.25,3.33-3.97,.18-.55,.27-1.13,.26-1.71-.02-.7-.05-1.4-.07-2.1-.08-2.76-.12-5.52-.14-8.28-.01-3.38,.03-6.75,.22-10.12,.04-.76,.09-1.53,.15-2.28,.04-.54-.8-.54-.85,0l.02-.02Z"/>
      <path id="Path_4460" data-name="Path 4460" d="M360.21,93.53s-4.04,3.61-6.99,5.69c.18-1.08,.32-2.14,.42-3.13-.33,.06-.67,.1-1,.14-.6,.08-1.21,.09-1.82,.04,.1-.27,.17-.43,.17-.43,3.19-.21,6.31-1,9.22-2.32Z"/>
      <path id="Path_4461" data-name="Path 4461" d="M355.53,77.38s-14.89-.01-14.87-9.05,12.27-12.6,15.58-4.16c0,0,9.95-2.85,11.2,4.96,0,0,7.08,.01,6.61,9.98s-5.59,16.46-6.71,15.25,1.08-7.09-2.2-10.61-5.22,4.46-5.32-.91-2.96-5.34-4.29-5.46h0Z"/>
      <path id="Path_4462" data-name="Path 4462" d="M355.53,76.95c-.43,0-.86-.02-1.29-.05-.47-.03-.93-.07-1.4-.13-.13-.01-.25-.03-.38-.05-.07,0-.14-.02-.21-.03,.1,.01-.11-.02-.14-.02-.31-.04-.61-.09-.92-.14-1.34-.22-2.65-.56-3.93-1.01-1.28-.44-2.48-1.08-3.56-1.91-1.05-.8-1.85-1.9-2.29-3.15-.46-1.53-.45-3.17,.04-4.69,.93-2.96,3.39-5.19,6.43-5.82,1.38-.3,2.82-.19,4.14,.31,.65,.26,1.25,.62,1.78,1.07,.59,.51,1.09,1.12,1.48,1.8,.21,.36,.39,.74,.55,1.12,.07,.22,.29,.36,.52,.3,.32-.09,.64-.16,.97-.22,.16-.03,.33-.06,.5-.08,.09-.01,.18-.03,.27-.04,.02,0,.18-.02,.06,0l.16-.02c.44-.05,.88-.09,1.32-.11,.98-.05,1.96,.03,2.92,.25,.99,.21,1.91,.66,2.67,1.31,.99,.95,1.63,2.22,1.8,3.58,.05,.18,.22,.31,.41,.31,.05,0,.1,0,.16,0,.06,0,.12,.01,.18,.02,.04,0,.07,.01,.11,.01-.14-.02-.02,0,.04,0,.5,.08,.99,.22,1.45,.4,.03,.01,.14,.06,.03,.01,.04,.02,.07,.03,.11,.05,.07,.03,.14,.07,.22,.1,.16,.08,.31,.16,.45,.25,.16,.09,.31,.19,.46,.3,.04,.02,.07,.05,.11,.08,.02,.01,.04,.03,.05,.04-.01-.01-.07-.05,0,0s.15,.12,.22,.18c.67,.58,1.22,1.29,1.6,2.09,1.29,2.58,1.14,5.78,.76,8.59-.38,3.05-1.28,6.01-2.68,8.75-.27,.5-.55,.99-.86,1.47-.24,.38-.51,.74-.8,1.08-.24,.28-.5,.54-.78,.78-.08,.07,.02-.01-.02,.02s-.05,.04-.08,.06c-.05,.04-.11,.07-.16,.1s-.1,.05-.16,.08,.1-.03,0,0c-.02,0-.05,.02-.08,.02-.08,.03-.16,0-.04,.02h-.13c.11-.01,.07,.03-.01-.02,.04,.02,.1,.05,.04,.01s0,0,.03,.03l-.04-.04c-.08-.07,.02,.04-.01-.01l-.05-.09s-.02-.03-.02-.05c-.04-.08,.02,.06,0,.01-.02-.08-.05-.16-.07-.24-.01-.04-.02-.09-.02-.13,0-.02,0-.05-.01-.07,0-.05,0,.07,0-.01-.06-1.1-.05-2.2,.02-3.3,.06-1.41-.12-2.81-.53-4.16-.39-1.32-1.22-2.47-2.35-3.25-.72-.44-1.63-.45-2.36-.03-.58,.36-1.11,.8-1.57,1.3-.09,.08-.18,.17-.28,.25-.04,.04,.09-.05,0,0l-.06,.04c-.05,.04-.17,.07-.04,.02-.12,.04,.05,0,0,0-.08,0,.11,.02,.05,0-.08-.02,.11,.05,.04,.01-.05-.03,.09,.08,.04,.03-.04-.03,.06,.03,.02,.02,0,0-.03-.05-.04-.06-.04-.06,.02,.1,0,0-.04-.14-.07-.29-.1-.44,0-.04-.01-.08-.01-.12,0-.05-.01-.1-.01-.15-.01-.15-.02-.3-.02-.45,0-.81-.08-1.61-.22-2.41-.16-1.11-.7-2.13-1.52-2.89-.62-.48-1.37-.78-2.16-.86-.27-.04-.54-.05-.82-.07-.55-.04-.54,.8,0,.85,.13,.01,.27,.02,.41,.03,.07,0,.14,.01,.21,.02,.04,0,.07,0,.11,.01,.11,.01-.05,0,.04,0,.35,.05,.69,.14,1.01,.27-.08-.04,.02,.01,.05,.02s.08,.04,.12,.06c.08,.04,.16,.09,.24,.14,.04,.02,.08,.05,.12,.08l.06,.04c-.06-.05-.01,0,0,0,.09,.07,.17,.15,.25,.23,.32,.33,.57,.73,.73,1.16,.25,.67,.4,1.37,.45,2.08,.05,.67,.03,1.34,.11,2,0,.36,.13,.71,.35,1,.22,.23,.57,.27,.84,.12,.49-.32,.93-.71,1.32-1.15,.06-.05,.13-.11,.19-.16,.02-.02,.12-.09,.04-.03,.04-.03,.08-.05,.11-.08,.14-.1,.29-.19,.44-.27,.03-.02,.13-.05,.04-.02,.04-.02,.08-.03,.11-.04,.08-.03,.17-.05,.25-.07,.02,0,.04,0,.06-.01,.06-.01-.08,0-.02,0,.04,0,.09,0,.13-.01,.09,0,.18,0,.27,.01-.11-.01,.02,0,.05,.01l.13,.04s.09,.03,.13,.05c.07,.03,.02,0,0,0,.04,.02,.07,.03,.1,.05,.2,.1,.38,.23,.54,.38,.52,.48,.95,1.06,1.25,1.7,.56,1.27,.83,2.65,.8,4.04,.02,1.2-.11,2.4-.05,3.59,.03,.64,.14,1.61,.91,1.79,.61,.03,1.2-.22,1.59-.69,.67-.64,1.24-1.37,1.71-2.17,1.5-2.5,2.55-5.26,3.1-8.12,.39-1.82,.59-3.67,.62-5.52,.04-1.46-.14-2.91-.56-4.31-.53-1.85-1.73-3.44-3.38-4.44-.9-.53-1.92-.85-2.96-.93-.05,0-.1,0-.16,0,.13,.1,.27,.21,.41,.31-.19-1.35-.77-2.61-1.68-3.63-.79-.81-1.78-1.41-2.87-1.72-1.92-.51-3.94-.58-5.89-.18-.43,.07-.86,.16-1.28,.28,.17,.1,.34,.19,.52,.3-.61-1.65-1.74-3.06-3.22-4.01-1.33-.79-2.87-1.17-4.41-1.07-3.3,.21-6.25,2.14-7.77,5.08-.82,1.61-1.15,3.43-.95,5.23,.18,1.5,.82,2.91,1.83,4.03,1.95,2.17,4.92,3.22,7.7,3.82,1.22,.26,2.45,.45,3.68,.56,.64,.07,1.28,.11,1.92,.11h.09c.23-.01,.41-.21,.4-.44-.01-.22-.18-.39-.4-.4l-.02,.02Z"/>
      <path id="Path_4463" data-name="Path 4463" class="cls-1" d="M361.99,86.87c-1.61-1.41-1.76-3.86-.35-5.47,.1-.11,.2-.21,.31-.31,1.17-1.08,2.83-1.81,4.69-.07,3.53,3.32,.91,8.69-2.84,6.97-.65-.29-1.26-.67-1.8-1.13h0Z"/>
      <path id="Path_4464" data-name="Path 4464" d="M366.95,84.6c-.07-.51-.19-1-.37-1.48-.24-.87-.87-1.58-1.7-1.94-.61-.15-1.25-.07-1.79,.24-.2,.12-.27,.37-.15,.57,.12,.2,.37,.27,.57,.15h0s.07-.03,.1-.05c.11-.05-.08,.02,.04-.01,.05-.02,.11-.04,.16-.06,.11-.04,.22-.06,.34-.08-.13,.02,.03,0,.06,0h.15s.19,.03,.06,0c.05,.01,.1,.02,.15,.03l.12,.04c.11,.04-.07-.04,.04,.01,.08,.04,.16,.09,.24,.14,.02,.01,.07,.06-.02-.01,.02,.02,.04,.03,.05,.05,.03,.03,.06,.06,.09,.08,.07,.07,.13,.13,.19,.21,.07,.08-.04-.05,.02,.04,.02,.04,.05,.08,.08,.11,.05,.08,.1,.17,.15,.25s.08,.15,.11,.23c.02,.04,.04,.08,.05,.13s-.04-.1,0-.02c.01,.03,.02,.05,.03,.08,.11,.3,.21,.6,.28,.91,.02,.11,.05,.23,.07,.35,.01,.06,.04,.25,0,.03,0,.23,.19,.41,.42,.42,.21,0,.45-.19,.42-.42h.01Z"/>
      <path id="Path_4465" data-name="Path 4465" class="cls-1" d="M380.28,206.2l-2.11,188.48h-39.12l-9.53-191.8,50.76,3.32Z"/>
      <path id="Path_4466" data-name="Path 4466" d="M379.85,206.2c-.02,1.68-.04,3.36-.05,5.04-.05,4.57-.1,9.14-.15,13.71-.08,6.76-.16,13.52-.23,20.29l-.28,24.75c-.1,9.04-.2,18.07-.3,27.11-.1,9.12-.21,18.24-.31,27.36-.1,8.51-.19,17.01-.28,25.51-.08,7.19-.16,14.37-.24,21.56-.06,5.17-.12,10.34-.17,15.51-.02,1.61-.04,3.21-.05,4.82-.06,.84-.07,1.68-.03,2.52,0,.1,0,.21,0,.32l.42-.42h-39.12l.42,.42-.25-5.15c-.23-4.65-.46-9.3-.7-13.96-.34-6.88-.68-13.75-1.02-20.63-.42-8.41-.83-16.83-1.25-25.25-.45-9.15-.91-18.31-1.37-27.46-.46-9.3-.92-18.61-1.39-27.91-.43-8.64-.86-17.29-1.29-25.93-.36-7.31-.73-14.62-1.09-21.92-.26-5.27-.52-10.54-.79-15.81l-.24-4.88c0-.85-.04-1.71-.13-2.56-.01-.11-.02-.22-.02-.33l-.42,.42,17.19,1.12c9.1,.59,18.2,1.19,27.29,1.78,2.09,.14,4.19,.28,6.28,.41,.55,.04,.54-.81,0-.85l-17.19-1.12c-9.1-.59-18.2-1.19-27.29-1.78-2.09-.14-4.19-.27-6.28-.41-.23,0-.42,.19-.42,.42l.25,5.15c.23,4.65,.46,9.3,.7,13.96,.34,6.88,.68,13.75,1.02,20.63,.42,8.42,.84,16.83,1.25,25.25,.45,9.15,.91,18.31,1.37,27.46,.46,9.3,.92,18.61,1.39,27.91,.43,8.65,.86,17.29,1.29,25.93,.36,7.31,.73,14.62,1.09,21.92l.79,15.81c.12,2.48,.22,4.96,.37,7.44,0,.11,.01,.22,.02,.33,0,.23,.19,.42,.42,.42h39.12c.23,0,.42-.19,.42-.42l.05-5.04,.15-13.71c.08-6.76,.15-13.52,.23-20.28l.28-24.75,.3-27.11c.1-9.12,.21-18.24,.31-27.36,.1-8.51,.19-17.01,.28-25.51,.08-7.19,.16-14.37,.24-21.56,.06-5.17,.12-10.34,.18-15.51,.03-2.44,.1-4.89,.08-7.34v-.31c-.01-.23-.21-.41-.44-.4-.22,.01-.39,.18-.4,.4h0Z"/>
      <path id="Path_4467" data-name="Path 4467" class="cls-1" d="M329.29,202.88l-13.55,85.48c-1.46,9.23,2.64,18.47,10.47,23.57l80.41,52.36,19.73-34.48-72.6-44.07,20.81-47.26c4.9-13.9,7.48-26.81,4.48-37.35l-49.75,1.74h0Z"/>
      <path id="Path_4468" data-name="Path 4468" d="M328.88,202.76c-.56,3.56-1.13,7.13-1.69,10.69l-3.89,24.51c-1.45,9.15-2.9,18.3-4.35,27.44-1.03,6.52-2.07,13.03-3.1,19.54-.17,1.09-.35,2.18-.52,3.27-1.02,6.43,.59,13,4.46,18.24,3.06,4.1,7.36,6.58,11.55,9.31,6,3.9,11.99,7.81,17.99,11.71l23.47,15.28,21.33,13.88,11.73,7.64c.18,.12,.37,.24,.55,.36,.2,.11,.45,.05,.58-.15,2.23-3.89,4.45-7.78,6.68-11.68,3.53-6.18,7.07-12.35,10.6-18.53l2.44-4.27c.11-.2,.05-.45-.15-.58-2.42-1.47-4.84-2.94-7.27-4.41-5.76-3.5-11.53-7-17.3-10.5-6.99-4.25-13.99-8.49-20.98-12.73-6.04-3.67-12.09-7.33-18.13-11-1.98-1.2-3.97-2.41-5.95-3.62-.62-.38-1.24-.75-1.86-1.12-.3-.23-.63-.43-.97-.59-.05-.02-.09-.05-.13-.08,.05,.19,.1,.39,.15,.58,1.11-2.51,2.21-5.02,3.32-7.53,2.42-5.49,4.84-10.99,7.25-16.48,2.38-5.41,4.77-10.82,7.15-16.23,1.19-2.71,2.54-5.4,3.51-8.2,3.59-10.39,6.71-21.87,4.9-32.93-.2-1.2-.46-2.39-.79-3.57-.05-.18-.22-.31-.41-.31-5.62,.19-11.24,.39-16.86,.59-8.92,.31-17.84,.63-26.76,.94-2.04,.07-4.09,.14-6.13,.21-.55,.02-.55,.87,0,.85,5.62-.2,11.24-.4,16.86-.59,8.92-.32,17.84-.63,26.76-.94,2.04-.07,4.09-.14,6.13-.21-.13-.1-.27-.21-.41-.31,3,10.69,.33,22.26-2.95,32.56-.57,1.92-1.24,3.8-2.02,5.65l-2.05,4.66-6.87,15.61c-2.45,5.57-4.9,11.13-7.35,16.69-1.31,2.98-2.76,5.93-3.94,8.96-.02,.05-.04,.09-.06,.14-.11,.2-.04,.45,.15,.58,2.42,1.47,4.84,2.94,7.27,4.41,5.77,3.5,11.53,7,17.3,10.5,6.99,4.25,13.99,8.49,20.98,12.73,6.04,3.67,12.09,7.33,18.13,11,1.98,1.2,3.97,2.41,5.95,3.62,.62,.38,1.24,.75,1.86,1.12,.3,.23,.63,.43,.97,.59,.05,.02,.09,.05,.13,.08-.05-.19-.1-.39-.15-.58-2.23,3.89-4.45,7.78-6.68,11.68l-10.6,18.54c-.82,1.42-1.63,2.85-2.44,4.27,.19-.05,.39-.1,.58-.15l-8.22-5.35c-6.51-4.24-13.02-8.48-19.53-12.72-7.82-5.09-15.63-10.18-23.45-15.27-6.7-4.36-13.39-8.72-20.09-13.07-3.02-1.97-6.06-3.93-9.08-5.91-5.34-3.5-9.02-9.02-10.21-15.29-.5-3-.47-6.06,.08-9.04,.86-5.4,1.72-10.8,2.57-16.21,1.4-8.81,2.8-17.63,4.19-26.45,1.37-8.68,2.75-17.35,4.13-26.02,.79-4.97,1.58-9.94,2.37-14.91,.04-.23,.07-.46,.11-.69,.08-.53-.73-.76-.82-.22h0Z"/>
      <path id="Path_4469" data-name="Path 4469" class="cls-7" d="M370.28,109.76s19.47,49.54,11.79,106.1h-58.72s-2.84-82.93,24.71-106.66c6.18,4.6,12.24,2.47,22.23,.56h0Z"/>
      <path id="Path_4470" data-name="Path 4470" class="cls-2" d="M309.74,152.73c-2.51,1.11-5.2,1.73-7.95,1.84-22.85,.64-24.79-35.92-40.28-54.21-2.14-2.53-4.07-4.74-5.34-4.6-2.14,.23-2.4-1.79,.18-2.79,0,0-3.4,1.18-3.78,.09-.47-1.31,3.94-2.85,3.94-2.85,0,0-4.43,1.77-4.12,.09s4.27-2.57,4.27-2.57c0,0-7.96,.96-8.34-.55-.31-1.22,6-1.67,11.55-1.35,3.28,.18,6.43,1.39,8.97,3.47,3.58,3.09,6.74,6.63,9.41,10.53,0,0,13.44,20.33,23.84,37.9l32.77-17.16c4.03-2.16,8.94-1.81,12.62,.9,2.83,2.16,5.07,5.38,3.6,9.93-1.11,3.22-3.57,5.8-6.74,7.05l-34.63,14.27h.02Z"/>
      <path id="Path_4471" data-name="Path 4471" d="M355.07,117.26c.06,.02,.13,.04,.19,.07,.07,.02,.14,.05,.22,.09l.13,.05s.05,.02,.07,.03c.07,.03-.11-.05,.01,0,.59,.26,1.16,.55,1.71,.89,1.64,.97,2.99,2.36,3.92,4.02,.56,1.05,.92,2.2,1.05,3.38,.15,1.52,.02,3.06-.38,4.54-.11,.45-.25,.89-.39,1.32-.05,.14-.1,.28-.15,.42-.02,.05-.04,.1-.06,.15-.01,.03-.02,.05-.04,.08,.03-.07,0,0-.01,.03-.18,.41-.39,.81-.63,1.19-.12,.2-.25,.39-.39,.58-.07,.1-.13,.19-.21,.28s-.09,.12-.19,.24c-.32,.39-.66,.77-1.02,1.13-1.64,1.59-3.48,2.96-5.47,4.08-2.26,1.3-4.6,2.46-7.01,3.45-2.47,1.04-4.99,1.95-7.54,2.79-2.31,.76-4.63,1.46-6.98,2.1-1.77,.48-3.54,.94-5.32,1.35-.88,.21-1.75,.41-2.63,.59-.04,0-.08,.02-.11,.02,.16,.07,.32,.13,.48,.19-.42-.94-.84-1.88-1.26-2.82-1.01-2.26-2.02-4.51-3.03-6.76l-3.65-8.15c-1.05-2.35-2.1-4.69-3.15-7.04-.35-.77-.69-1.54-1.04-2.31-.16-.37-.31-.76-.5-1.11,0-.02-.01-.03-.02-.05l-.25,.62c.96-.25,1.92-.48,2.88-.72,2.39-.59,4.78-1.15,7.17-1.7,3.08-.7,6.17-1.37,9.26-1.98,3.05-.6,6.11-1.16,9.19-1.57,2.27-.37,4.57-.53,6.87-.46,.2,.01,.4,.03,.6,.05,.23,0,.42-.19,.42-.42,0-.23-.19-.42-.42-.42-.94-.09-1.88-.11-2.82-.05-1.25,.06-2.49,.19-3.73,.34-3.06,.38-6.09,.9-9.12,1.48-3.15,.6-6.27,1.27-9.4,1.97-2.53,.57-5.05,1.16-7.58,1.78-1.17,.28-2.36,.53-3.51,.88-.02,0-.03,0-.05,.01-.23,.07-.36,.31-.29,.54,0,.03,.02,.06,.03,.08,.42,.94,.84,1.88,1.26,2.82,1.01,2.26,2.02,4.51,3.03,6.76l3.65,8.15c1.05,2.35,2.1,4.69,3.15,7.04,.35,.77,.69,1.54,1.04,2.31,.16,.37,.31,.75,.5,1.11,0,.02,.01,.03,.02,.05,.1,.16,.29,.24,.48,.19,.62-.13,1.25-.27,1.87-.41,1.63-.37,3.26-.77,4.88-1.2,2.28-.6,4.54-1.25,6.79-1.97,2.57-.81,5.11-1.7,7.6-2.7,2.53-.99,4.99-2.13,7.38-3.41,2.15-1.13,4.17-2.5,6.01-4.09,1.56-1.3,2.79-2.94,3.6-4.8,1.19-2.81,1.37-5.94,.51-8.86-.74-2.07-2.09-3.87-3.86-5.17-1.03-.78-2.17-1.41-3.39-1.85-.06-.02-.12-.04-.19-.07-.52-.16-.74,.65-.22,.82h.01Z"/>
      <path id="Path_4472" data-name="Path 4472" class="cls-7" d="M355.18,116.85s10.86,3.38,6.74,15.13-37.96,18.58-37.96,18.58l-12.65-28.25s28.34-7.32,36.09-6.4"/>
      <g class="cls-6">
        <g id="Group_2" data-name="Group 2">
          <path id="Path_4473" data-name="Path 4473" class="cls-11" d="M153.09,286.29v-4.29s27.23,13.38,27.23,13.38l34.92-29.32,1.56,6.64c.24,1.03-.04,2.11-.77,2.88l-32.81,34.9c-2.38,2.55-6.37,2.69-8.92,.31-.06-.05-.11-.1-.16-.16l-18.82-18.91c-1.43-1.44-2.24-3.39-2.24-5.42h0Z"/>
          <g id="Group_1" data-name="Group 1" class="cls-5">
            <path id="Path_4474" data-name="Path 4474" class="cls-4" d="M153.09,286.29v-4.29s27.23,13.38,27.23,13.38l34.92-29.32,1.56,6.64c.24,1.03-.04,2.11-.77,2.88l-32.81,34.9c-2.38,2.55-6.37,2.69-8.92,.31-.06-.05-.11-.1-.16-.16l-18.82-18.91c-1.43-1.44-2.24-3.39-2.24-5.42h0Z"/>
          </g>
          <path id="Path_4475" data-name="Path 4475" class="cls-11" d="M153.67,280.11l6.1-6.31c.87-.9,2.29-.97,3.23-.14l14.48,12.61c.96,.84,2.41,.75,3.27-.19l24.74-26.88c.88-.96,2.36-1.02,3.32-.15,.04,.04,.08,.07,.12,.11l5.61,5.93c.87,.92,.87,2.35,0,3.27l-32.05,34.1c-2.14,2.29-5.74,2.42-8.04,.29l-20.69-19.25c-.96-.9-1.01-2.41-.11-3.38,0,0,.02-.02,.02-.02h0Z"/>
        </g>
      </g>
      <circle id="Ellipse_1" data-name="Ellipse 1" class="cls-7" cx="412.53" cy="24.64" r="24.64"/>
      <circle id="Ellipse_2" data-name="Ellipse 2" class="cls-8" cx="398.89" cy="45.31" r="8.8"/>
      <path id="Path_4476" data-name="Path 4476" class="cls-1" d="M403.73,18.89h4.46c-.01-2.09,1.67-3.8,3.77-3.81,.04,0,.08,0,.12,0,1.54-.05,2.95,.87,3.5,2.31,.48,1.18,.36,2.53-.31,3.61-.76,1.25-2.41,2.39-5.43,1.85v10.07h4.42v-5.9c3.72-1.09,6.26-4.54,6.19-8.42,0-6.82-5.85-8.04-8.35-8.04-1.92,0-8.44,.46-8.35,8.34h-.02Z"/>
      <path id="Path_4477" data-name="Path 4477" class="cls-1" d="M414.3,34.99h-4.47v4.18h4.47v-4.18Z"/>
      <circle id="Ellipse_3" data-name="Ellipse 3" class="cls-7" cx="384.11" cy="62.91" r="6.6"/>
      <path id="Path_4478" data-name="Path 4478" class="cls-3" d="M253.47,356.37l9.71,34.09c3.4-14.59,9.19-44.68,5.11-48.35-5.11-4.59-8.12,20.93-5.11,27.51s14.82,2.59,13.32,0-16.32-7.68-48.06,6.58-7.21,19.84-3.6,14.26,5.11-30.99,8.71-24.42-7.21,24.42,0,24.42,4.1-16.75,8.21-10.67c5.69,8.53,12.92,6.81,15.82,4.89"/>
    </g>
  </g>
</svg>