<?xml version="1.0" encoding="UTF-8"?>
<svg id="Layer_2" data-name="Layer 2" xmlns="http://www.w3.org/2000/svg" viewBox="0 0 182.39 148.52">
  <defs>
    <style>
      .cls-1 {
        fill: #fff;
      }

      .cls-2 {
        fill: #6c3099;
      }

      .cls-3 {
        fill: #ed1e79;
      }
    </style>
  </defs>
  <g id="Layer_1-2" data-name="Layer 1">
    <g id="Group_47568" data-name="Group 47568">
      <path id="Path_4762" data-name="Path 4762" class="cls-2" d="M167.77,143.25c5.94-5.94,5.93-15.57,0-21.5-5.94-5.94-15.57-5.93-21.5,0-5.93,5.94-5.93,15.56,0,21.5,5.93,5.94,15.54,5.95,21.48,.03,0,0,.02-.02,.03-.03Z"/>
      <path id="Path_4763" data-name="Path 4763" class="cls-3" d="M175.27,17.6H76.36v19.81h98.91V17.6Z"/>
      <path id="Path_4764" data-name="Path 4764" d="M177.91,92.31H73.78c-2.54-.03-4.6-2.08-4.65-4.62V4.37C69.19,1.9,71.23-.05,73.7,0h104.29c2.38-.05,4.35,1.84,4.4,4.22,0,.03,0,.06,0,.09V87.75c.02,2.49-1.98,4.54-4.48,4.56h0ZM73.7,1.63c-1.56-.05-2.87,1.17-2.93,2.73V87.69c.05,1.64,1.37,2.95,3.01,2.99h104.13c1.59-.03,2.87-1.34,2.84-2.93V4.31c0-1.47-1.17-2.67-2.65-2.68-.04,0-.08,0-.12,0H73.7Z"/>
      <path id="Path_4765" data-name="Path 4765" d="M168.86,11.89H70.76c-.45,0-.82-.37-.82-.82,0-.45,.37-.82,.82-.82h98.1c.45,0,.82,.37,.82,.82,0,.45-.37,.82-.82,.82h0Z"/>
      <path id="Path_4766" data-name="Path 4766" d="M91.06,11.07c-.45,0-.82-.37-.82-.82h0V1.4c.02-.45,.39-.8,.85-.79,.43,.01,.77,.36,.79,.79V10.26c0,.45-.37,.82-.82,.82h0Z"/>
      <path id="Path_4767" data-name="Path 4767" d="M76.89,8.38c-1.46,0-2.65-1.19-2.64-2.65,0-1.46,1.19-2.65,2.65-2.64,1.46,0,2.64,1.19,2.64,2.65,0,1.46-1.19,2.65-2.65,2.65Zm0-3.66c-.56,0-1.02,.45-1.02,1.01,0,.56,.45,1.02,1.01,1.02s1.02-.45,1.02-1.01c0,0,0,0,0,0,0-.56-.45-1.01-1.01-1.01Z"/>
      <path id="Path_4768" data-name="Path 4768" d="M84.26,8.38c-1.46,0-2.65-1.18-2.65-2.64,0-1.46,1.18-2.65,2.64-2.65,1.46,0,2.65,1.18,2.65,2.64h0c0,1.46-1.18,2.65-2.64,2.65Zm0-3.66c-.56,0-1.01,.45-1.01,1.01s.45,1.01,1.01,1.01c.56,0,1.01-.45,1.01-1.01,0-.56-.45-1.01-1.01-1.01Z"/>
      <path id="Path_4769" data-name="Path 4769" d="M152.29,4.9h-57.15c-.45,0-.82-.37-.82-.82,0-.45,.37-.82,.82-.82h57.15c.45,0,.82,.37,.82,.82,0,.45-.37,.82-.82,.82h0Z"/>
      <path id="Path_4770" data-name="Path 4770" d="M125.82,8.51h-30.68c-.45,0-.82-.37-.82-.82,0-.45,.37-.82,.82-.82h30.68c.45,0,.82,.37,.82,.82,0,.45-.37,.82-.82,.82h0Z"/>
      <path id="Path_4771" data-name="Path 4771" d="M180.87,11.89h-4.9c-.45,0-.82-.37-.82-.82,0-.45,.37-.82,.82-.82h4.9c.45,0,.82,.37,.82,.82,0,.45-.37,.82-.82,.82h0Z"/>
      <path id="Path_4772" data-name="Path 4772" d="M176.09,37.42c0,.45-.36,.82-.81,.82H76.36c-.45,0-.82-.37-.82-.82h0V17.6c0-.45,.37-.82,.82-.82h98.91c.45,0,.82,.36,.82,.81h0v19.82Zm-98.91-.81h97.28V18.42H77.18v18.18Z"/>
      <path id="Path_4773" data-name="Path 4773" d="M175.39,83.1H76.36c-.45,0-.82-.36-.82-.81,0-.45,.36-.82,.81-.82h99.03c.45,0,.82,.37,.82,.82s-.37,.82-.82,.82Z"/>
      <path id="Path_4774" data-name="Path 4774" d="M92.34,61.31c0,.45-.37,.82-.82,.82h-15.16c-.45,0-.82-.37-.82-.82h0v-15.15c0-.45,.37-.82,.82-.82h15.16c.45,0,.82,.37,.82,.82h0s0,15.15,0,15.15Zm-15.16-.82h13.53v-13.52h-13.53v13.52Z"/>
      <path id="Path_4775" data-name="Path 4775" d="M120.22,61.31c0,.45-.37,.82-.82,.82h-15.16c-.45,0-.82-.36-.82-.81h0v-15.15c0-.45,.37-.82,.82-.82h15.16c.45,0,.82,.36,.82,.81h0s0,15.15,0,15.15Zm-15.16-.82h13.53v-13.52h-13.53v13.52Z"/>
      <path id="Path_4776" data-name="Path 4776" d="M148.1,61.31c0,.45-.36,.82-.81,.82h-15.17c-.45,0-.82-.36-.82-.81h0v-15.15c0-.45,.37-.82,.82-.82h15.16c.45,0,.82,.36,.82,.81h0s0,15.15,0,15.15Zm-15.16-.82h13.53v-13.52h-13.54v13.52Z"/>
      <path id="Path_4777" data-name="Path 4777" d="M176.09,61.31c0,.45-.36,.82-.81,.82h-15.28c-.45,0-.82-.36-.82-.81h0v-15.15c0-.45,.37-.82,.82-.82h15.28c.45,0,.82,.36,.82,.81h0v15.15Zm-15.28-.82h13.65v-13.52h-13.65v13.52Z"/>
      <path id="Path_4778" data-name="Path 4778" d="M175.39,73.66H76.36c-.45,0-.82-.36-.82-.81,0-.45,.36-.82,.81-.82h99.03c.45,0,.82,.37,.82,.82s-.37,.82-.82,.82Z"/>
      <path id="Path_4779" data-name="Path 4779" class="cls-2" d="M11.16,147.44c-1.17,0-2.3-.46-3.12-1.29l-2.93-2.93c-1.72-1.72-1.72-4.52,0-6.24,0,0,0,0,0,0l9.7-9.69c1.73-1.72,4.52-1.72,6.25,0l2.93,2.93c1.72,1.72,1.72,4.52,0,6.24,0,0,0,0,0,0l-9.7,9.69c-.83,.83-1.95,1.29-3.12,1.29Zm6.76-19.81c-.74,0-1.45,.29-1.97,.82l-9.7,9.69c-1.09,1.09-1.09,2.85,0,3.93,0,0,0,0,0,0l2.93,2.93c1.09,1.09,2.85,1.09,3.94,0l9.7-9.69c1.09-1.09,1.09-2.85,0-3.93l-2.93-2.93c-.52-.52-1.23-.82-1.97-.82Z"/>
      <path id="Path_4780" data-name="Path 4780" class="cls-2" d="M32.54,126.07c-1.17,0-2.3-.46-3.12-1.29l-2.93-2.93c-1.72-1.72-1.72-4.52,0-6.24l9.7-9.69c1.73-1.72,4.52-1.72,6.25,0l2.93,2.93c1.72,1.72,1.72,4.52,0,6.24,0,0,0,0,0,0l-9.7,9.69c-.83,.83-1.95,1.3-3.12,1.29h0Zm6.76-19.81c-.74,0-1.45,.29-1.97,.81l-9.7,9.69c-1.09,1.09-1.09,2.85,0,3.93l2.93,2.93c1.09,1.09,2.85,1.09,3.94,0l9.7-9.69c1.09-1.08,1.09-2.85,0-3.93,0,0,0,0,0,0l-2.93-2.93c-.52-.52-1.23-.82-1.97-.81Z"/>
      <path id="Path_4781" data-name="Path 4781" class="cls-2" d="M17.82,134.18c-.45,0-.82-.37-.82-.82,0-.22,.09-.42,.24-.58l14.76-14.75c.32-.32,.84-.32,1.15,0,.32,.32,.32,.84,0,1.15l-14.75,14.75c-.15,.15-.36,.24-.58,.24h0Z"/>
      <path id="Path_4782" data-name="Path 4782" class="cls-2" d="M25.23,147.15c-2.64,0-5.25-.49-7.71-1.45-.42-.17-.62-.64-.46-1.06,.17-.42,.64-.62,1.06-.46,10.03,3.93,21.34-1.02,25.27-11.05,1.7-4.34,1.79-9.14,.25-13.54-.15-.43,.07-.89,.5-1.04,.43-.15,.89,.07,1.04,.5h0c3.85,11.02-1.97,23.07-12.99,26.91-2.24,.78-4.59,1.18-6.96,1.18h0Z"/>
      <path id="Path_4783" data-name="Path 4783" class="cls-2" d="M5.97,133.32c-.35,0-.66-.22-.77-.55-3.7-11.07,2.27-23.05,13.34-26.76,4.31-1.44,8.97-1.46,13.29-.04,.43,.14,.66,.6,.52,1.03s-.6,.66-1.03,.52c-10.23-3.37-21.25,2.2-24.62,12.43-1.31,4-1.3,8.31,.04,12.3,.14,.43-.09,.89-.51,1.03-.08,.03-.17,.04-.26,.04h0Z"/>
      <path id="Path_4784" data-name="Path 4784" class="cls-1" d="M155.59,138.5c-.22,0-.42-.09-.58-.24l-4.65-4.51c-.32-.32-.32-.84,0-1.15,.32-.32,.84-.32,1.15,0l4.07,3.93,9.16-9.15c.32-.32,.84-.32,1.15,0,.32,.32,.32,.84,0,1.15l-9.74,9.73c-.15,.15-.36,.24-.58,.24Z"/>
      <path id="Path_4785" data-name="Path 4785" d="M157.01,148.52c-8.85,0-16.01-7.18-16.01-16.03,0-8.85,7.18-16.01,16.03-16,8.84,0,16,7.17,16.01,16.01-.01,8.85-7.18,16.01-16.03,16.02Zm0-30.4c-7.95,0-14.38,6.45-14.37,14.4,0,7.95,6.45,14.38,14.4,14.37,7.94,0,14.37-6.45,14.37-14.39,0-7.95-6.45-14.39-14.4-14.39h0Z"/>
      <path id="Path_4786" data-name="Path 4786" d="M25.22,101.46c-.48,0-.87-.39-.88-.87h0v-1.4c0-.48,.39-.88,.88-.88s.88,.39,.88,.88v1.4c0,.48-.39,.87-.87,.87h0Z"/>
      <path id="Path_4787" data-name="Path 4787" d="M25.22,95.05c-.48,0-.87-.39-.88-.87v-2.8c0-.48,.39-.88,.88-.88s.88,.39,.88,.88h0v2.8c0,.48-.39,.87-.88,.87Zm0-7.69c-.48,0-.87-.39-.88-.87v-2.8c0-.48,.39-.88,.88-.88s.88,.39,.88,.88v2.8c0,.48-.39,.87-.88,.87Zm0-7.69c-.48,0-.87-.39-.88-.87v-2.8c0-.48,.39-.88,.88-.88s.88,.39,.88,.88v2.8c0,.48-.39,.87-.88,.87Zm0-7.69c-.48,0-.87-.39-.88-.87v-2.8c0-.48,.39-.88,.88-.88s.88,.39,.88,.88v2.8c0,.48-.39,.87-.88,.87h0Zm0-7.69c-.48,0-.87-.39-.88-.87v-2.8c0-.48,.39-.88,.88-.88s.88,.39,.88,.88v2.8c0,.48-.39,.88-.88,.88h0Zm0-7.69c-.48,0-.87-.39-.88-.87v-2.8c0-.48,.39-.88,.88-.88s.88,.39,.88,.88v2.8c0,.48-.39,.88-.87,.88h0Zm0-7.7c-.48,0-.87-.39-.88-.87v-2.8c0-.48,.39-.88,.88-.88s.88,.39,.88,.88v2.8c0,.48-.39,.88-.87,.88h0Z"/>
      <path id="Path_4788" data-name="Path 4788" d="M25.22,41.32c-.48,0-.87-.39-.88-.87v-1.46c0-.48,.39-.87,.88-.87h1.46c.48,0,.87,.39,.87,.87s-.39,.87-.87,.87h-.58v.58c0,.48-.39,.87-.88,.87Z"/>
      <path id="Path_4789" data-name="Path 4789" d="M57,39.86h-2.68c-.48,0-.87-.39-.87-.87s.39-.87,.87-.87h2.68c.48,0,.87,.39,.87,.87s-.39,.87-.87,.87h0Zm-7.58,0h-2.68c-.48,0-.87-.39-.87-.87s.39-.87,.87-.87h2.68c.48,0,.87,.39,.87,.87s-.39,.87-.87,.87Zm-7.58,0h-2.68c-.48,0-.87-.39-.87-.87s.39-.87,.87-.87h2.68c.48,0,.87,.39,.87,.87s-.39,.87-.87,.87h0Zm-7.58,0h-2.68c-.48,0-.87-.39-.87-.87s.39-.87,.87-.87h2.68c.48,0,.87,.39,.87,.87s-.39,.87-.87,.87h0Z"/>
      <path id="Path_4790" data-name="Path 4790" d="M63.3,39.86h-1.52c-.48,0-.87-.39-.87-.87s.39-.87,.87-.87h1.52c.48,0,.87,.39,.87,.87s-.39,.87-.87,.87Z"/>
      <path id="Path_4791" data-name="Path 4791" d="M57.82,133.46h-1.4c-.48,0-.87-.39-.87-.87s.39-.87,.87-.87h1.4c.48,0,.87,.39,.87,.87s-.39,.87-.87,.87h0Z"/>
      <path id="Path_4792" data-name="Path 4792" d="M124.07,133.46h-2.92c-.48,0-.87-.39-.87-.87s.39-.87,.87-.87h2.92c.48,0,.87,.39,.87,.87s-.39,.87-.87,.87h0Zm-8.28,0h-2.92c-.48,0-.87-.39-.87-.87s.39-.87,.87-.87h2.92c.48,0,.87,.39,.87,.87s-.39,.87-.87,.87h0Zm-8.28,0h-2.92c-.48,0-.87-.39-.87-.87s.39-.87,.87-.87h2.91c.48,0,.87,.39,.87,.87s-.39,.87-.87,.87h0Zm-8.28,0h-2.92c-.48,0-.87-.39-.87-.87s.39-.87,.87-.87h2.92c.48,0,.87,.39,.87,.87s-.39,.87-.87,.87Zm-8.28,0h-2.92c-.48,0-.87-.39-.87-.87s.39-.87,.87-.87h2.92c.48,0,.87,.39,.87,.87s-.39,.87-.87,.87h0Zm-8.28,0h-2.92c-.48,0-.87-.39-.87-.87s.39-.87,.87-.87h2.92c.48,0,.87,.39,.87,.87s-.39,.87-.87,.87Zm-8.28,0h-2.92c-.48,0-.87-.39-.87-.87s.39-.87,.87-.87h2.92c.48,0,.87,.39,.87,.87s-.39,.87-.87,.87h0Zm-8.28,0h-2.92c-.48,0-.87-.39-.87-.87s.39-.87,.87-.87h2.92c.48,0,.87,.39,.87,.87s-.39,.87-.87,.87h0Z"/>
      <path id="Path_4793" data-name="Path 4793" d="M131.3,133.46h-1.52c-.48,0-.87-.39-.87-.87s.39-.87,.87-.87h1.52c.48,0,.87,.39,.87,.87s-.39,.87-.87,.87Z"/>
      <path id="Path_4794" data-name="Path 4794" d="M156.9,112.3c-.48,0-.87-.39-.88-.87h0v-1.4c.02-.48,.42-.86,.9-.84,.46,.02,.83,.38,.84,.84v1.4c0,.48-.39,.87-.87,.87Z"/>
      <path id="Path_4795" data-name="Path 4795" d="M156.9,106.47c-.48,0-.87-.39-.88-.87h0v-2.45c-.02-.48,.36-.89,.84-.9,.48-.02,.89,.36,.9,.84,0,.02,0,.04,0,.06v2.45c0,.48-.39,.87-.87,.87Z"/>
      <path id="Path_4796" data-name="Path 4796" d="M156.9,99.83c-.48,0-.87-.39-.88-.87v-1.52c.02-.48,.42-.86,.9-.84,.46,.02,.83,.38,.84,.84v1.51c0,.48-.39,.87-.87,.88h0Z"/>
      <path id="Path_4797" data-name="Path 4797" d="M10.29,8.45c-.48,0-.87-.39-.88-.87V2.33c0-.48,.39-.88,.88-.88s.88,.39,.88,.88V7.58c0,.48-.39,.87-.88,.87Z"/>
      <path id="Path_4798" data-name="Path 4798" d="M13.03,5.95H7.78c-.48,0-.87-.39-.87-.87s.39-.87,.87-.87h5.25c.48,0,.87,.39,.87,.87s-.39,.87-.87,.87h0Z"/>
      <path id="Path_4799" data-name="Path 4799" d="M47.49,64.86c-.48,0-.87-.39-.88-.87v-5.24c0-.48,.39-.88,.88-.88s.88,.39,.88,.88v5.24c0,.48-.39,.87-.88,.87Z"/>
      <path id="Path_4800" data-name="Path 4800" d="M50.23,62.36h-5.25c-.48,0-.87-.39-.87-.87s.39-.87,.87-.87h5.25c.48,0,.87,.39,.87,.87s-.39,.87-.87,.87h0Z"/>
      <path id="Path_4801" data-name="Path 4801" d="M95.08,120.93c-.48,0-.87-.39-.88-.87h0v-5.25c0-.48,.39-.88,.88-.88s.88,.39,.88,.88v5.25c0,.48-.39,.87-.87,.87h0Z"/>
      <path id="Path_4802" data-name="Path 4802" d="M97.82,118.42h-5.25c-.48,0-.87-.39-.87-.87s.39-.87,.87-.87h5.25c.48,0,.87,.39,.87,.87s-.39,.87-.87,.87h0Z"/>
      <path id="Path_4803" data-name="Path 4803" d="M51.86,15.56c-.02-.64,.49-1.18,1.13-1.2,.64-.02,1.18,.49,1.2,1.13,.02,.63-.48,1.16-1.1,1.17-.01,0-.02,0-.03,0h-.03c-.63,.01-1.15-.48-1.17-1.11h0Zm-3.46-.64c-.47-.45-.48-1.19-.03-1.65,.45-.47,1.19-.48,1.65-.03,.47,.45,.48,1.19,.03,1.65-.22,.23-.52,.36-.84,.36-.3,0-.59-.12-.81-.33Zm7.55-.18c-.47-.44-.49-1.18-.05-1.65,.44-.47,1.18-.49,1.65-.05,.47,.44,.49,1.18,.05,1.65-.22,.24-.53,.37-.85,.37-.3,0-.58-.11-.8-.32Zm-9.53-4.37c-.02-.64,.49-1.18,1.13-1.19,0,0,0,0,0,0,.63-.02,1.15,.48,1.16,1.11,0,.01,0,.02,0,.03,.03,.65-.47,1.19-1.11,1.23h-.01c-.64-.01-1.16-.53-1.17-1.18h0Zm10.6-.28c-.02-.64,.49-1.18,1.14-1.2,.63-.02,1.16,.47,1.19,1.1,.03,.63-.45,1.17-1.08,1.2-.01,0-.03,0-.04,0h-.04c-.62,0-1.14-.48-1.17-1.11h0Zm-8.72-2.72c-.46-.45-.46-1.19,0-1.65,.45-.46,1.19-.46,1.65,0s.46,1.19,0,1.65c-.22,.22-.52,.35-.83,.35-.31,0-.6-.12-.82-.34Zm7.38-.15c-.47-.44-.51-1.17-.07-1.65,.44-.47,1.17-.51,1.65-.07,.47,.44,.51,1.17,.07,1.65-.22,.24-.53,.38-.86,.38-.29,0-.57-.11-.79-.31Zm-3.96-2.25c0-.64,.52-1.17,1.17-1.17s1.17,.52,1.17,1.17-.52,1.17-1.17,1.17-1.17-.52-1.17-1.17h0Z"/>
      <path id="Path_4804" data-name="Path 4804" d="M5.44,76.28c-.02-.64,.49-1.18,1.13-1.2,.64-.02,1.18,.49,1.2,1.13h0c.02,.63-.48,1.16-1.1,1.17-.01,0-.02,0-.03,0h-.03c-.63,.01-1.15-.48-1.16-1.11Zm-3.45-.64c-.46-.45-.48-1.19-.03-1.65,.45-.46,1.19-.48,1.65-.03,.46,.45,.48,1.19,.03,1.65-.22,.23-.52,.36-.84,.36-.3,0-.59-.12-.81-.33h0Zm7.55-.18c-.47-.44-.49-1.18-.05-1.65,.44-.47,1.18-.49,1.65-.05,.47,.44,.49,1.18,.05,1.65-.22,.24-.53,.37-.85,.37-.3,0-.58-.11-.8-.32ZM0,71.09c0-.65,.51-1.18,1.15-1.19,.65,0,1.19,.52,1.2,1.17,0,.65-.52,1.19-1.17,1.2h-.01c-.64-.01-1.16-.53-1.17-1.18H0Zm10.6-.26c-.02-.64,.48-1.18,1.12-1.21,.64-.02,1.18,.48,1.21,1.12s-.48,1.18-1.12,1.21c0,0,0,0,0,0h-.04c-.63,0-1.14-.5-1.16-1.12Zm-8.72-2.74c-.46-.45-.46-1.19,0-1.65,.45-.46,1.19-.46,1.65,0,.46,.45,.46,1.19,0,1.65-.22,.22-.52,.35-.83,.35-.31,0-.6-.12-.82-.34Zm7.38-.15c-.47-.44-.51-1.17-.07-1.65,.44-.47,1.17-.51,1.65-.07s.51,1.17,.07,1.65c-.22,.24-.53,.38-.86,.38-.29,0-.57-.11-.79-.31Zm-3.96-2.25c0-.64,.52-1.17,1.17-1.17s1.17,.52,1.17,1.17c0,.64-.52,1.17-1.17,1.17s-1.17-.52-1.17-1.17h0Z"/>
      <path id="Path_4805" data-name="Path 4805" d="M62.24,105.89c-.02-.64,.49-1.18,1.13-1.2,.64-.02,1.18,.49,1.2,1.13,.02,.63-.47,1.16-1.1,1.18-.01,0-.02,0-.03,0h-.03c-.63,.01-1.15-.48-1.17-1.11h0Zm-3.45-.65c-.46-.45-.48-1.19-.03-1.65,.45-.46,1.19-.48,1.65-.03,.46,.45,.48,1.19,.03,1.65-.22,.23-.52,.36-.84,.36-.3,0-.59-.12-.81-.33Zm7.55-.18c-.47-.44-.49-1.18-.05-1.65,.44-.47,1.18-.49,1.65-.05,.47,.44,.49,1.18,.05,1.65-.22,.24-.53,.37-.85,.37-.3,0-.58-.11-.8-.32Zm-9.54-4.37c0-.64,.53-1.16,1.18-1.16,.64,0,1.16,.53,1.16,1.18,0,.64-.52,1.15-1.15,1.16h-.01c-.64-.01-1.16-.53-1.17-1.18h0Zm10.6-.26c-.02-.64,.48-1.18,1.12-1.21,.64-.02,1.18,.48,1.21,1.12s-.48,1.18-1.12,1.21c0,0,0,0,0,0h-.04c-.62,0-1.13-.5-1.16-1.12h0Zm-8.72-2.74c-.46-.45-.46-1.19,0-1.65,.45-.46,1.19-.46,1.65,0s.46,1.19,0,1.65c-.22,.22-.52,.35-.83,.35-.31,0-.6-.12-.82-.34Zm7.39-.15c-.47-.44-.51-1.17-.07-1.65,.44-.47,1.17-.51,1.65-.07s.51,1.17,.07,1.65c-.22,.24-.53,.38-.86,.38-.29,0-.57-.11-.78-.31h0Zm-3.95-2.25c-.01-.63,.49-1.15,1.12-1.17,.02,0,.04,0,.07,0,.63,.02,1.14,.53,1.15,1.17,0,.64-.52,1.17-1.17,1.17s-1.17-.52-1.17-1.17h0Z"/>
      <path id="Path_4806" data-name="Path 4806" d="M131.06,112.77c0-.64,.53-1.17,1.17-1.16,.62,0,1.12,.48,1.16,1.1,.02,.63-.48,1.16-1.11,1.17-.01,0-.02,0-.03,0h-.03c-.63,.01-1.15-.48-1.16-1.11Zm-3.45-.64c-.46-.45-.48-1.19-.03-1.65,.45-.46,1.19-.48,1.65-.03,.46,.45,.48,1.19,.03,1.65-.22,.23-.52,.36-.84,.36-.3,0-.59-.12-.81-.33h0Zm7.55-.18c-.47-.44-.49-1.18-.05-1.65,.44-.47,1.18-.49,1.65-.05,.47,.44,.49,1.18,.05,1.65-.22,.24-.53,.37-.85,.37-.3,0-.58-.11-.8-.32Zm-9.53-4.37c-.02-.64,.49-1.18,1.13-1.19,.63-.02,1.15,.48,1.16,1.11,0,.01,0,.02,0,.03,.03,.65-.47,1.19-1.11,1.23h-.01c-.64-.01-1.16-.53-1.17-1.18h0Zm10.6-.26c-.02-.64,.48-1.18,1.12-1.21,.64-.02,1.18,.48,1.21,1.12s-.48,1.18-1.12,1.21c0,0,0,0,0,0h-.04c-.63,0-1.14-.5-1.16-1.12h0Zm-8.72-2.74c-.46-.45-.46-1.19,0-1.65s1.19-.46,1.65,0c.46,.45,.46,1.19,0,1.65-.22,.22-.52,.35-.83,.35-.31,0-.6-.12-.82-.34Zm7.38-.15c-.47-.44-.51-1.17-.07-1.65,.44-.47,1.17-.51,1.65-.07,.47,.44,.51,1.17,.07,1.65-.22,.24-.53,.38-.86,.38-.29,0-.57-.11-.79-.31Zm-3.96-2.25c0-.64,.52-1.17,1.16-1.17s1.17,.52,1.17,1.17c0,.64-.52,1.17-1.17,1.17h0c-.64,0-1.17-.52-1.17-1.16h0s0,0,0,0Z"/>
    </g>
  </g>
</svg>