<?xml version="1.0" encoding="UTF-8"?>
<svg id="Layer_2" data-name="Layer 2" xmlns="http://www.w3.org/2000/svg" viewBox="0 0 350 371.43">
  <defs>
    <style>
      .cls-1 {
        fill: #fff;
      }

      .cls-2 {
        stroke: #6c3099;
      }

      .cls-2, .cls-3 {
        fill: none;
        stroke-width: .5px;
      }

      .cls-4 {
        fill: #c7c7c7;
      }

      .cls-3 {
        stroke: #fff;
      }

      .cls-5 {
        fill: #ebebeb;
      }

      .cls-6 {
        fill: #6c3099;
      }

      .cls-7 {
        fill: #ccc;
      }

      .cls-8 {
        fill: #ed1e79;
      }

      .cls-9 {
        fill-rule: evenodd;
      }
    </style>
  </defs>
  <g id="Layer_1-2" data-name="Layer 1">
    <g id="Group_252" data-name="Group 252">
      <path id="Path_4979" data-name="Path 4979" class="cls-1" d="M329.17,370.76s-77.13-57.46-43.91-81.67c39.76-28.98,60.56,81.7,60.56,81.7l-16.65-.03h0Z"/>
      <path id="Path_4980" data-name="Path 4980" class="cls-7" d="M201.61,301.28l-60.36-.1-.12,68.95,60.36,.1,.12-68.95Z"/>
      <path id="Path_4981" data-name="Path 4981" d="M201.6,309.29l-.05,30.24-60.33-16v-1.43l60.38-12.8Z"/>
      <path id="Path_4982" data-name="Path 4982" class="cls-7" d="M33.06,139.98l277.16,.48c4.37-.13,8.02,3.3,8.16,7.66l-.29,170.92c-.16,4.37-3.82,7.78-8.19,7.64l-277.16-.48c-4.37,.13-8.01-3.3-8.16-7.66l.29-170.92c.16-4.37,3.82-7.78,8.19-7.64h0Z"/>
      <path id="Path_4983" data-name="Path 4983" d="M317.87,148.12l-.29,169.33c.09,1.29-.04,2.59-.39,3.84-1.14,3.23-4.36,4.89-7.83,4.9h-3.09s-265.2-.46-265.2-.46c-2.66,0-5.32,0-7.97-.01-4.36-.03-7.91-3-8-7.18-.01-.69,0-1.39,0-2.09l.29-167.35c-.13-1.58,.14-3.17,.78-4.61,1.44-2.75,4.37-4.02,7.51-4.01l273.61,.47h2.57c4.38,.03,7.91,2.99,8.01,7.18,.02,.63,1.05,.63,1.04,0-.11-4.6-3.97-8.08-8.85-8.15-.78,0-1.57,0-2.35,0l-265.82-.46c-2.79,0-5.59-.02-8.38-.01-3.23-.14-6.3,1.45-8.05,4.17-.85,1.6-1.23,3.4-1.1,5.2l-.29,167.84c-.03,.86-.02,1.73,.04,2.59,.42,4.29,4.34,7.35,8.85,7.39,2.49,.02,4.99,0,7.48,.01l266.27,.46h2.82c3.48,.15,6.73-1.72,8.34-4.82,1.33-2.77,.77-6.67,.77-9.63l.28-164.59c-.03-.29-.28-.5-.57-.47-.25,.02-.44,.22-.47,.47h0Z"/>
      <path id="Path_4984" data-name="Path 4984" class="cls-1" d="M301.98,152.06l-262.19-.45c-3.98-.13-7.32,2.98-7.46,6.96l-.26,149.85c.13,3.98,3.46,7.11,7.44,6.98l262.19,.45c3.98,.13,7.32-2.98,7.46-6.96l.26-149.85c-.13-3.98-3.46-7.11-7.44-6.99Z"/>
      <path id="Path_4985" data-name="Path 4985" d="M308.9,159.04l-.25,147.27c0,.84,.01,1.68,0,2.52-.08,3.72-3.16,6.49-7.1,6.54-2.17,.03-4.33,0-6.49-.01l-248.1-.43c-2.37,0-4.75,0-7.12-.01-3.95-.03-7.16-2.71-7.24-6.5-.01-.66,0-1.33,0-1.98l.24-139.74c0-2.69-.05-5.39,.01-8.09,.09-3.72,3.19-6.49,7.14-6.52h2.21l257.14,.44h2.31c3.96,.03,7.16,2.7,7.25,6.5,.02,.63,1.05,.63,1.04,0-.11-4.22-3.63-7.4-8.11-7.47-.7,0-1.4,0-2.1,0l-257.9-.44c-.65,0-1.29-.01-1.93,0-4.45,.06-7.98,3.26-8.08,7.45-.06,2.56,0,5.12-.01,7.68l-.24,140.39c0,.82-.05,1.66,.03,2.47,.4,3.93,3.98,6.72,8.11,6.76,2.22,.02,4.44,0,6.66,.01l249.25,.43c2.01,0,4.02,.04,6.02,.01,4.45-.07,7.96-3.28,8.06-7.46,.02-.76,0-1.52,0-2.27l.25-147.55c-.03-.29-.29-.49-.57-.46-.24,.03-.44,.22-.46,.46h0Z"/>
      <path id="Path_4986" data-name="Path 4986" class="cls-7" d="M49.26,368.77l-16.16-.03c-1.1,.05-2.02-.8-2.08-1.89-.01-.22,.02-.43,.08-.64l1.34-4.09c.3-.84,1.1-1.4,2-1.39l13.65,.02c.92-.02,1.74,.58,2.02,1.46l1.16,4.1c.26,1.07-.39,2.15-1.46,2.41-.18,.05-.37,.06-.56,.05h.01Z"/>
      <path id="Path_4987" data-name="Path 4987" d="M49.26,368.29l-16.02-.03c-.8,.07-1.52-.47-1.69-1.25-.01-.06-.02-.13-.02-.19,0-.07,0-.14,.01-.22,0,.06,0-.05,.01-.06,0-.05,.02-.09,.04-.14,0-.02,.01-.04,.02-.06,.02-.08,.05-.15,.07-.23,.12-.37,.24-.74,.36-1.11,.28-.84,.55-1.69,.83-2.53,.08-.31,.24-.6,.47-.83,.31-.28,.72-.43,1.13-.42h1.23l11.3,.02h1.08c.54,0,1.04,.26,1.34,.7,.13,.24,.23,.5,.29,.77,.25,.89,.5,1.77,.76,2.66,.09,.32,.18,.64,.27,.96,.03,.11,.06,.22,.08,.33,.02,.26-.03,.53-.14,.77-.28,.53-.83,.86-1.44,.85-.27-.01-.5,.2-.51,.46-.01,.27,.2,.5,.46,.51,.01,0,.03,0,.04,0,1.39,.04,2.55-1.04,2.59-2.43,0-.22-.01-.44-.06-.65-.2-.73-.42-1.46-.62-2.2-.13-.45-.26-.9-.38-1.36-.06-.25-.13-.49-.22-.72-.32-.8-1.02-1.38-1.86-1.56-.25-.05-.5-.07-.76-.07l-13.01-.02c-.7-.06-1.4,.1-2.01,.46-.48,.33-.83,.81-1,1.37l-.32,.97-.88,2.7c-.13,.33-.2,.67-.22,1.02,0,.82,.43,1.59,1.12,2.03,.57,.34,1.24,.49,1.9,.44l15.74,.03c.27,.01,.5-.2,.51-.46,.01-.27-.2-.5-.46-.51-.01,0-.03,0-.04,0h0Z"/>
      <path id="Path_4988" data-name="Path 4988" class="cls-7" d="M71.26,368.81l-16.15-.03c-1.1,.05-2.02-.79-2.08-1.89-.01-.22,.02-.43,.08-.64l1.34-4.09c.3-.84,1.1-1.4,2-1.39l13.65,.02c.92-.02,1.74,.58,2.02,1.46l1.16,4.1c.26,1.07-.39,2.15-1.46,2.41-.18,.05-.37,.06-.56,.05h0Z"/>
      <path id="Path_4989" data-name="Path 4989" d="M71.26,368.33l-16.02-.03c-.8,.07-1.52-.47-1.69-1.25-.01-.06-.02-.13-.02-.19,0-.07,0-.15,0-.22,0,.06,0-.05,.01-.06,0-.05,.02-.09,.04-.14,0-.02,.01-.04,.02-.06,.02-.08,.05-.15,.07-.23,.12-.37,.24-.74,.36-1.11,.28-.84,.55-1.69,.83-2.53,.08-.31,.24-.6,.47-.83,.31-.28,.72-.43,1.13-.42h1.23l11.3,.02h1.08c.54,0,1.04,.26,1.34,.7,.13,.24,.23,.5,.29,.77,.25,.89,.5,1.77,.75,2.66,.09,.32,.18,.64,.27,.96,.03,.11,.06,.22,.08,.33,.02,.26-.03,.53-.14,.77-.28,.53-.83,.86-1.43,.85-.27,0-.49,.21-.49,.48,0,.27,.21,.49,.48,.49h0c1.39,.04,2.55-1.05,2.59-2.43,0-.22-.01-.44-.06-.65-.2-.73-.42-1.46-.62-2.2-.13-.45-.26-.9-.38-1.36-.06-.25-.13-.49-.22-.72-.32-.8-1.02-1.38-1.86-1.56-.25-.05-.5-.07-.75-.07l-13.01-.02c-.7-.06-1.4,.1-2.01,.47-.48,.33-.83,.81-1,1.36l-.32,.97-.88,2.69c-.13,.33-.2,.67-.22,1.02,0,.82,.43,1.59,1.12,2.03,.57,.34,1.24,.49,1.9,.44l15.74,.03c.27,.01,.5-.2,.51-.46s-.2-.5-.46-.51c-.01,0-.03,0-.04,0h0Z"/>
      <path id="Path_4990" data-name="Path 4990" class="cls-7" d="M93.28,368.85l-16.15-.03c-1.1,.05-2.02-.79-2.08-1.89-.01-.22,.02-.43,.08-.64l1.34-4.09c.3-.84,1.1-1.4,2-1.39l13.65,.02c.92-.02,1.74,.58,2.02,1.46l1.16,4.1c.26,1.07-.39,2.15-1.46,2.41-.18,.05-.38,.06-.57,.06h0Z"/>
      <path id="Path_4991" data-name="Path 4991" d="M93.28,368.37l-16.02-.03c-.8,.07-1.52-.47-1.69-1.25-.01-.06-.02-.13-.02-.19,0-.07,0-.14,.01-.22,0,.06,0-.05,.01-.06,0-.05,.02-.09,.04-.14,0-.02,.01-.04,.02-.06,.02-.08,.05-.15,.07-.23,.12-.37,.24-.74,.36-1.11,.27-.84,.55-1.69,.83-2.53,.08-.31,.24-.6,.47-.83,.31-.28,.72-.43,1.13-.42h1.23l11.3,.02h1.08c.54,0,1.04,.26,1.34,.7,.13,.24,.23,.5,.29,.77,.25,.89,.5,1.77,.76,2.66,.09,.32,.18,.64,.27,.96,.03,.11,.06,.22,.08,.33,.02,.26-.03,.53-.14,.77-.28,.53-.83,.86-1.43,.85-.27-.01-.5,.2-.51,.46s.2,.5,.46,.51c.01,0,.03,0,.04,0,1.39,.04,2.55-1.05,2.59-2.43,0-.22-.01-.44-.06-.65-.2-.73-.42-1.46-.62-2.19-.13-.45-.26-.9-.38-1.36-.06-.25-.13-.49-.22-.73-.32-.8-1.02-1.38-1.86-1.56-.25-.05-.5-.07-.75-.07l-13.01-.02c-.7-.06-1.4,.1-2.01,.46-.48,.33-.83,.81-1,1.36l-.32,.97-.88,2.69c-.13,.33-.2,.67-.22,1.02,0,.82,.43,1.59,1.12,2.03,.57,.34,1.24,.49,1.9,.44l15.74,.03c.27,.01,.5-.2,.51-.46s-.2-.5-.46-.51c-.01,0-.03,0-.04,0h0Z"/>
      <path id="Path_4992" data-name="Path 4992" class="cls-7" d="M217.54,369.06l-16.15-.03c-1.1,.05-2.02-.8-2.08-1.89-.01-.22,.02-.43,.08-.64l1.34-4.09c.3-.85,1.11-1.4,2.01-1.39l13.65,.02c.92-.02,1.74,.58,2.02,1.46l1.16,4.1c.26,1.07-.39,2.15-1.46,2.41-.18,.05-.37,.06-.56,.05h0Z"/>
      <path id="Path_4993" data-name="Path 4993" d="M217.54,368.58l-16.02-.03c-.8,.07-1.52-.47-1.69-1.25-.01-.06-.02-.13-.02-.19,0-.07,0-.14,0-.22,0,.06,0-.05,.01-.06,0-.05,.02-.09,.04-.14,0-.02,.01-.04,.02-.06,.02-.08,.05-.15,.07-.23,.12-.37,.24-.74,.36-1.11,.27-.84,.55-1.69,.83-2.53,.08-.31,.24-.6,.47-.83,.31-.28,.72-.43,1.13-.42h1.23l11.3,.02h1.08c.54,0,1.04,.26,1.34,.7,.13,.24,.23,.5,.29,.77,.25,.89,.5,1.77,.76,2.66l.27,.96c.03,.11,.06,.22,.08,.33,.02,.26-.03,.53-.14,.77-.28,.53-.83,.86-1.43,.85-.27-.01-.5,.2-.51,.46-.01,.27,.2,.5,.46,.51,.01,0,.03,0,.04,0,1.39,.04,2.55-1.04,2.59-2.43,0-.22-.01-.44-.06-.65-.2-.73-.42-1.46-.62-2.2-.13-.45-.26-.9-.38-1.36-.06-.25-.13-.49-.22-.72-.32-.8-1.02-1.38-1.86-1.56-.25-.05-.5-.07-.76-.07l-13.01-.02c-.7-.06-1.4,.1-2.01,.46-.48,.33-.83,.81-1,1.37-.1,.32-.21,.65-.32,.97-.29,.9-.59,1.8-.88,2.7-.13,.33-.2,.67-.22,1.02,0,.82,.43,1.58,1.12,2.03,.57,.34,1.24,.49,1.9,.44l15.74,.03c.27,.01,.5-.2,.51-.46,.01-.27-.2-.5-.46-.51-.01,0-.03,0-.04,0h0Z"/>
      <path id="Path_4994" data-name="Path 4994" class="cls-7" d="M239.39,369.1l-16.15-.03c-1.1,.05-2.02-.8-2.08-1.89-.01-.22,.02-.43,.08-.64l1.34-4.09c.3-.85,1.11-1.4,2.01-1.39l13.65,.02c.92-.02,1.74,.58,2.02,1.46l1.16,4.1c.26,1.07-.39,2.15-1.46,2.41-.18,.05-.37,.06-.56,.05h0Z"/>
      <path id="Path_4995" data-name="Path 4995" d="M239.39,368.62l-16.02-.03c-.8,.07-1.52-.47-1.69-1.25-.01-.06-.02-.13-.02-.19,0-.07,0-.14,0-.22,0,.06,0-.05,.01-.06,0-.05,.02-.09,.04-.14,0-.02,.01-.04,.02-.06,.02-.08,.05-.15,.07-.23,.12-.37,.24-.74,.36-1.11,.27-.84,.55-1.69,.83-2.53,.08-.31,.24-.6,.47-.83,.31-.28,.72-.43,1.13-.42h1.23l11.3,.02h1.08c.54,0,1.04,.26,1.34,.7,.13,.24,.23,.5,.29,.77,.25,.89,.5,1.77,.76,2.66,.09,.32,.18,.64,.27,.96,.03,.11,.06,.22,.08,.33,.02,.26-.03,.53-.14,.77-.28,.53-.83,.86-1.43,.85-.27-.01-.5,.2-.51,.46-.01,.27,.2,.5,.46,.51,.01,0,.03,0,.04,0,1.39,.04,2.55-1.05,2.59-2.43,0-.22-.01-.44-.06-.65-.2-.73-.42-1.46-.62-2.19-.13-.45-.26-.9-.38-1.36-.06-.25-.13-.49-.22-.72-.32-.8-1.02-1.38-1.86-1.56-.25-.05-.5-.07-.76-.07l-13.01-.02c-.7-.06-1.4,.1-2.01,.46-.48,.33-.83,.81-1,1.36-.11,.32-.21,.65-.32,.97l-.88,2.69c-.12,.33-.2,.67-.22,1.02,0,.82,.43,1.59,1.12,2.03,.57,.34,1.24,.49,1.9,.44l15.74,.03c.27,.01,.5-.2,.51-.46,.01-.27-.2-.5-.46-.51-.01,0-.03,0-.04,0h0Z"/>
      <path id="Path_4996" data-name="Path 4996" class="cls-7" d="M261.85,369.14l-16.15-.03c-1.1,.05-2.02-.8-2.08-1.89-.01-.22,.02-.43,.08-.64l1.34-4.09c.3-.85,1.11-1.4,2.01-1.39l13.65,.02c.92-.02,1.74,.58,2.02,1.46l1.16,4.1c.26,1.07-.39,2.15-1.46,2.41-.18,.05-.37,.06-.56,.05h0Z"/>
      <path id="Path_4997" data-name="Path 4997" d="M261.85,368.65l-16.02-.03c-.8,.07-1.52-.47-1.69-1.25-.01-.06-.02-.13-.02-.19,0-.07,0-.14,0-.22,0,.06,0-.05,.01-.06,0-.05,.02-.09,.04-.14,0-.02,.01-.04,.02-.06,.02-.08,.05-.15,.07-.23,.12-.37,.24-.74,.36-1.11,.27-.84,.55-1.69,.83-2.53,.08-.31,.24-.6,.47-.83,.31-.28,.72-.43,1.13-.42h1.23l11.31,.02h1.08c.54,0,1.04,.26,1.34,.7,.13,.24,.23,.5,.29,.77,.25,.89,.5,1.77,.76,2.66,.09,.32,.18,.64,.27,.96,.04,.11,.06,.22,.08,.33,.02,.26-.03,.53-.14,.77-.28,.53-.83,.86-1.43,.85-.27-.01-.5,.2-.51,.46s.2,.5,.46,.51c.01,0,.03,0,.04,0,1.39,.04,2.55-1.05,2.59-2.43,0-.22-.01-.44-.06-.65-.2-.73-.42-1.46-.62-2.2-.13-.45-.26-.9-.39-1.36-.06-.25-.13-.49-.22-.73-.32-.8-1.02-1.38-1.86-1.56-.25-.05-.5-.07-.76-.07l-13.01-.02c-.7-.06-1.4,.1-2.01,.46-.48,.33-.83,.81-1,1.37l-.32,.97-.88,2.7c-.13,.33-.2,.67-.22,1.02,0,.82,.43,1.59,1.12,2.03,.57,.34,1.24,.49,1.9,.44l15.74,.03c.27,.01,.5-.2,.51-.46s-.2-.5-.46-.51c-.01,0-.03,0-.04,0h0Z"/>
      <path id="Path_4998" data-name="Path 4998" class="cls-7" d="M284.33,369.18l-16.15-.03c-1.1,.05-2.02-.79-2.08-1.89-.01-.22,.02-.43,.08-.64l1.33-4.09c.3-.85,1.11-1.4,2.01-1.39l13.65,.02c.92-.02,1.74,.58,2.02,1.46l1.16,4.1c.26,1.07-.39,2.15-1.46,2.41-.18,.05-.37,.06-.56,.05h0Z"/>
      <path id="Path_4999" data-name="Path 4999" d="M284.33,368.69l-16.02-.03c-.8,.07-1.52-.47-1.69-1.25-.01-.06-.02-.13-.02-.19,0-.07,0-.14,.01-.22,0,.06,0-.05,.01-.06,0-.05,.02-.09,.04-.14,0-.02,.01-.04,.02-.06,.02-.08,.05-.15,.07-.23,.12-.37,.24-.74,.36-1.11,.27-.84,.55-1.69,.83-2.53,.08-.31,.24-.6,.47-.83,.31-.28,.72-.43,1.13-.42h1.23l11.3,.02h1.08c.54,0,1.04,.26,1.34,.7,.13,.24,.23,.5,.29,.77,.25,.89,.5,1.77,.76,2.66l.27,.96c.03,.11,.06,.22,.08,.33,.02,.26-.03,.53-.14,.77-.28,.53-.83,.86-1.43,.85-.27-.01-.5,.2-.51,.46s.2,.5,.46,.51c.01,0,.03,0,.04,0,1.39,.04,2.55-1.04,2.59-2.43,0-.22-.01-.44-.06-.65-.2-.73-.42-1.46-.62-2.19-.13-.45-.26-.9-.39-1.36-.06-.25-.13-.49-.22-.73-.32-.8-1.02-1.38-1.86-1.56-.25-.05-.5-.07-.76-.07l-13.01-.02c-.7-.06-1.4,.1-2.01,.46-.48,.33-.83,.81-1,1.36-.11,.32-.21,.65-.32,.97-.29,.9-.58,1.8-.88,2.7-.13,.33-.2,.67-.22,1.02,0,.82,.43,1.59,1.12,2.03,.57,.34,1.24,.49,1.9,.44l15.74,.03c.27,0,.49-.21,.49-.48s-.21-.49-.48-.49h0Z"/>
      <path id="Path_5000" data-name="Path 5000" class="cls-7" d="M306.79,369.22l-16.15-.03c-1.1,.05-2.02-.8-2.08-1.89-.01-.22,.02-.43,.08-.64l1.34-4.09c.3-.85,1.11-1.4,2.01-1.39l13.65,.02c.92-.02,1.74,.58,2.02,1.46l1.16,4.1c.26,1.07-.39,2.15-1.46,2.41-.18,.05-.37,.06-.56,.05h0Z"/>
      <path id="Path_5001" data-name="Path 5001" d="M306.79,368.73l-16.02-.03c-.8,.07-1.52-.47-1.69-1.25-.01-.06-.02-.13-.02-.19,0-.07,0-.14,0-.22,0,.06,0-.05,.01-.06,0-.05,.02-.09,.04-.14,0-.02,.01-.04,.02-.06,.02-.08,.05-.15,.07-.23,.12-.37,.24-.74,.36-1.11,.27-.84,.55-1.69,.83-2.53,.08-.31,.24-.6,.47-.83,.31-.28,.72-.43,1.13-.42h1.23l11.3,.02h1.08c.54,0,1.04,.26,1.34,.7,.13,.24,.23,.5,.29,.77,.25,.89,.5,1.77,.76,2.66l.27,.96c.04,.11,.06,.22,.08,.33,.02,.26-.03,.53-.14,.77-.28,.53-.83,.86-1.43,.85-.27-.01-.5,.2-.51,.46s.2,.5,.46,.51c.01,0,.03,0,.04,0,1.39,.04,2.55-1.05,2.59-2.43,0-.22-.01-.44-.06-.65-.2-.73-.42-1.46-.62-2.2-.13-.45-.26-.9-.39-1.36-.06-.25-.13-.49-.22-.72-.32-.8-1.02-1.38-1.86-1.56-.25-.05-.5-.07-.76-.07l-13.01-.02c-.7-.06-1.4,.1-2.01,.46-.48,.33-.83,.81-1,1.37l-.32,.97-.88,2.7c-.13,.33-.2,.67-.22,1.02,0,.82,.43,1.59,1.12,2.03,.57,.34,1.24,.49,1.9,.44l15.74,.03c.27,.01,.5-.2,.51-.46s-.2-.5-.46-.51c-.01,0-.03,0-.04,0h0Z"/>
      <path id="Path_5002" data-name="Path 5002" class="cls-7" d="M195.68,369.03l-97.31-.17c-1.1,.05-2.02-.79-2.08-1.89-.01-.22,.02-.43,.08-.64l1.33-4.09c.3-.84,1.1-1.4,2-1.39l94.81,.16c.92-.02,1.74,.58,2.02,1.46l1.16,4.1c.26,1.07-.39,2.15-1.46,2.41-.18,.05-.37,.06-.56,.05h0Z"/>
      <path id="Path_5003" data-name="Path 5003" d="M195.68,368.54l-95.98-.16h-1.24c-.57,.02-1.1-.24-1.43-.71-.53-.8,.06-1.87,.32-2.67,.28-.86,.53-1.74,.85-2.6,.24-.65,.87-1.08,1.57-1.05,.4,0,.79,0,1.19,0l93.31,.16h.25c.6,0,1.14,.32,1.43,.85,.12,.29,.22,.6,.28,.91,.28,.99,.57,1.98,.85,2.97,.11,.29,.17,.59,.18,.9-.08,.81-.77,1.42-1.58,1.4-.27-.01-.5,.2-.51,.46-.01,.27,.2,.5,.46,.51,.01,0,.03,0,.04,0,1.39,.04,2.55-1.06,2.59-2.45,0-.21-.02-.43-.06-.64-.22-.88-.5-1.75-.75-2.62-.12-.98-.54-1.9-1.19-2.64-.52-.42-1.16-.64-1.83-.63-1.32-.02-2.65,0-3.97,0l-86.97-.15c-1.25,0-2.5-.03-3.75,0-.94-.02-1.83,.46-2.33,1.26-.38,.81-.68,1.66-.89,2.53-.33,.81-.59,1.64-.76,2.5-.09,1.4,.97,2.61,2.37,2.7,.07,0,.15,0,.22,0,1.07,.03,2.14,0,3.21,0l94.1,.16c.27,.01,.5-.2,.51-.46,.01-.27-.2-.5-.46-.51-.01,0-.03,0-.04,0h0Z"/>
      <path id="Path_5004" data-name="Path 5004" class="cls-7" d="M320.98,370.82l-303.08-.52,1.8-2.43c1.73-2.27,4.43-3.6,7.29-3.57l286.46,.49c2.52-.03,4.86,1.3,6.12,3.48l1.42,2.54h0Z"/>
      <path id="Path_5005" data-name="Path 5005" d="M320.98,370.33l-298.52-.51c-1.35-.09-2.7-.09-4.06,0-.17,.01-.34,.01-.51,0,.15,.24,.3,.49,.45,.73,.77-1.17,1.63-2.28,2.58-3.32,1.64-1.56,3.81-2.44,6.08-2.44h.71l276.85,.48c2.95,0,5.92-.08,8.87,.02,2.05,0,3.98,.95,5.25,2.56,.68,1.03,1.3,2.11,1.86,3.22,.31,.55,1.21,.07,.9-.49-.57-1.17-1.23-2.31-1.98-3.38-1.37-1.71-3.4-2.75-5.58-2.87-.31-.02-.63-.01-.94-.01-1.41,0-2.81,0-4.22,0l-273.62-.47c-3.09,0-6.45-.35-9.52,.09-3.98,.57-6,3.27-8.11,6.13-.23,.31,.08,.73,.45,.73l290.78,.5c3.93,0,7.86,.06,11.79,.02h.52c.27,.01,.5-.2,.51-.46s-.2-.5-.46-.51c-.01,0-.03,0-.04,0h0Z"/>
      <path id="Path_5006" data-name="Path 5006" d="M.42,370.81l334.96,.58c4.52,0,9.05,.07,13.58,.02h.59c.56,0,.56-.97,0-.97l-334.95-.57c-4.52,0-9.06-.07-13.58-.02H.42c-.56,0-.56,.97,0,.97h0Z"/>
      <path id="Path_5007" data-name="Path 5007" class="cls-6" d="M242.12,90.45H99.68c-4.3,0-7.78,3.21-7.78,7.17v191.76c0,3.96,3.49,7.17,7.78,7.17H242.12c4.3,0,7.78-3.21,7.78-7.17V97.62c0-3.96-3.49-7.17-7.78-7.17Z"/>
      <path id="Path_5008" data-name="Path 5008" class="cls-6" d="M242.12,85.45H99.68c-4.3,0-7.78,3.08-7.78,6.89v184.3c0,3.8,3.49,6.89,7.78,6.89H242.12c4.3,0,7.78-3.08,7.78-6.89V92.34c0-3.81-3.49-6.89-7.78-6.89Z"/>
      <path id="Path_5009" data-name="Path 5009" class="cls-9" d="M315.9,61.44h-10v2h10v10h2v-12h-2Z"/>
      <path id="Path_5010" data-name="Path 5010" class="cls-9" d="M25.9,63.44v10h2v-10h10v-2h-12v2Z"/>
      <g id="Group_12" data-name="Group 12">
        <rect id="Rectangle_5" data-name="Rectangle 5" class="cls-8" x="36.9" y="268.46" width="17" height="3"/>
        <rect id="Rectangle_6" data-name="Rectangle 6" class="cls-8" x="61.9" y="268.46" width="17" height="3"/>
        <rect id="Rectangle_7" data-name="Rectangle 7" class="cls-8" x="86.9" y="268.46" width="17" height="3"/>
        <rect id="Rectangle_8" data-name="Rectangle 8" class="cls-8" x="111.9" y="268.46" width="17" height="3"/>
        <rect id="Rectangle_9" data-name="Rectangle 9" class="cls-8" x="136.9" y="268.46" width="17" height="3"/>
        <rect id="Rectangle_10" data-name="Rectangle 10" class="cls-8" x="161.9" y="268.46" width="17" height="3"/>
        <rect id="Rectangle_11" data-name="Rectangle 11" class="cls-8" x="186.9" y="268.46" width="17" height="3"/>
        <rect id="Rectangle_12" data-name="Rectangle 12" class="cls-8" x="211.9" y="268.46" width="17" height="3"/>
        <rect id="Rectangle_13" data-name="Rectangle 13" class="cls-8" x="236.9" y="268.46" width="17" height="3"/>
        <rect id="Rectangle_14" data-name="Rectangle 14" class="cls-8" x="261.9" y="268.46" width="17" height="3"/>
        <rect id="Rectangle_15" data-name="Rectangle 15" class="cls-8" x="286.9" y="268.46" width="17" height="3"/>
      </g>
      <path id="Path_5011" data-name="Path 5011" class="cls-1" d="M253.9,288.53H90.9v3H253.9v-3Z"/>
      <path id="Path_5012" data-name="Path 5012" class="cls-8" d="M129.76,168.84h-27.26v1.85h27.27v-1.85Z"/>
      <path id="Path_5013" data-name="Path 5013" class="cls-8" d="M129.76,255.84h-27.26v1.85h27.27v-1.85Z"/>
      <path id="Path_5014" data-name="Path 5014" class="cls-1" d="M151.9,265.52h-40v2h40v-2Z"/>
      <path id="Path_5015" data-name="Path 5015" class="cls-1" d="M151.9,276.53h-40v2h40v-2Z"/>
      <path id="Path_5016" data-name="Path 5016" class="cls-1" d="M238.9,276.53h-40v2h40v-2Z"/>
      <path id="Path_5017" data-name="Path 5017" class="cls-1" d="M238.9,265.52h-40v2h40v-2Z"/>
      <path id="Path_5018" data-name="Path 5018" class="cls-8" d="M129.76,221.54h-27.26v1.85h27.27v-1.85Z"/>
      <path id="Path_5019" data-name="Path 5019" class="cls-5" d="M165.54,176.9h-54.91v2.55h54.91v-2.55Z"/>
      <path id="Path_5020" data-name="Path 5020" class="cls-1" d="M150.33,176.9h-39.7v2.55h39.7v-2.55Z"/>
      <path id="Path_5021" data-name="Path 5021" class="cls-5" d="M165.54,183.5h-54.91v2.55h54.91v-2.55Z"/>
      <path id="Path_5022" data-name="Path 5022" class="cls-1" d="M160.98,183.5h-50.35v2.55h50.35v-2.55Z"/>
      <path id="Path_5023" data-name="Path 5023" class="cls-5" d="M165.54,190.09h-54.91v2.55h54.91v-2.55Z"/>
      <path id="Path_5024" data-name="Path 5024" class="cls-1" d="M153.42,190.09h-42.79v2.55h42.79v-2.55Z"/>
      <path id="Path_5025" data-name="Path 5025" class="cls-5" d="M165.54,196.69h-54.91v2.55h54.91v-2.55Z"/>
      <path id="Path_5026" data-name="Path 5026" class="cls-1" d="M157.82,196.69h-47.19v2.55h47.19v-2.55Z"/>
      <path id="Path_5027" data-name="Path 5027" class="cls-5" d="M165.54,203.29h-54.91v2.55h54.91v-2.55Z"/>
      <path id="Path_5028" data-name="Path 5028" class="cls-1" d="M162.27,203.29h-51.64v2.55h51.64v-2.55Z"/>
      <path id="Path_5029" data-name="Path 5029" class="cls-1" d="M106.61,176.12h-4.11v4.12h4.12v-4.12Z"/>
      <path id="Path_5030" data-name="Path 5030" class="cls-8" d="M106.61,182.71h-4.11v4.12h4.12v-4.12Z"/>
      <path id="Path_5031" data-name="Path 5031" class="cls-4" d="M106.61,189.31h-4.11v4.12h4.12v-4.12Z"/>
      <path id="Path_5032" data-name="Path 5032" class="cls-1" d="M106.61,195.91h-4.11v4.12h4.12v-4.12Z"/>
      <path id="Path_5033" data-name="Path 5033" class="cls-8" d="M106.61,202.51h-4.11v4.12h4.12v-4.12Z"/>
      <path id="Path_5034" data-name="Path 5034" class="cls-8" d="M215.35,168.84h-34.99v1.85h34.99v-1.85Z"/>
      <path id="Path_5035" data-name="Path 5035" class="cls-4" d="M193.65,176.01h-13.3v1.85h13.3v-1.85Z"/>
      <path id="Path_5036" data-name="Path 5036" class="cls-4" d="M193.65,191.72h-13.3v1.85h13.3v-1.85Z"/>
      <path id="Path_5037" data-name="Path 5037" class="cls-4" d="M193.65,207.43h-13.3v1.85h13.3v-1.85Z"/>
      <path id="Path_5038" data-name="Path 5038" class="cls-4" d="M193.65,223.14h-13.3v1.85h13.3v-1.85Z"/>
      <path id="Path_5039" data-name="Path 5039" class="cls-4" d="M193.65,239.59h-13.3v1.85h13.3v-1.85Z"/>
      <path id="Path_5040" data-name="Path 5040" class="cls-1" d="M201.03,176.94c0,.45-.37,.82-.82,.82s-.82-.37-.82-.82c0-.45,.37-.82,.82-.82s.82,.37,.82,.82h0Z"/>
      <path id="Path_5041" data-name="Path 5041" class="cls-1" d="M201.03,192.69c0,.45-.37,.82-.82,.82s-.82-.37-.82-.82,.37-.82,.82-.82h0c.45,0,.82,.37,.82,.82Z"/>
      <path id="Path_5042" data-name="Path 5042" class="cls-1" d="M201.03,208.44c0,.45-.37,.82-.82,.82s-.82-.37-.82-.82,.37-.82,.82-.82h0c.45,0,.82,.37,.82,.82Z"/>
      <path id="Path_5043" data-name="Path 5043" class="cls-1" d="M201.03,224.2c0,.45-.37,.82-.82,.82s-.82-.37-.82-.82,.37-.82,.82-.82h0c.45,0,.82,.37,.82,.82h0Z"/>
      <path id="Path_5044" data-name="Path 5044" class="cls-1" d="M201.03,239.96c0,.45-.37,.82-.82,.82s-.82-.37-.82-.82,.37-.82,.82-.82h0c.45,0,.82,.37,.82,.82Z"/>
      <path id="Path_5045" data-name="Path 5045" class="cls-1" d="M107.08,269.53c-.09,.08-.2,.14-.32,.17-.05,.01-.11,.02-.16,.03h-.29c-.09-.01-.19-.03-.29-.05-.37-.08-.72-.24-1.03-.46-.73-.49-1.35-1.12-1.84-1.85-.21-.31-.37-.65-.45-1.02-.02-.1-.03-.19-.05-.29v-.27c.02-.09,.03-.18,.06-.27,.03-.08,.07-.16,.12-.23,.02,.01,.03,.03,.05,.04l1.17,1.17s.03,.05,.02,.07c-.06,.2-.02,.41,.13,.56,.33,.37,.68,.72,1.05,1.05,.15,.14,.37,.19,.56,.13,.03,0,.05-.01,.07,.01,.39,.4,.79,.79,1.18,1.19l.02,.02h0Z"/>
      <path id="Path_5046" data-name="Path 5046" class="cls-1" d="M107.76,268.85l-.41,.41-.03,.03-1.19-1.19s.06-.05,.09-.09l.35-.35c.07-.08,.19-.1,.27-.03,.01,0,.02,.02,.03,.03,.3,.3,.6,.59,.89,.89,.08,.06,.1,.18,.04,.26-.01,.01-.02,.03-.04,.04h0Z"/>
      <path id="Path_5047" data-name="Path 5047" class="cls-1" d="M104.73,265.81l-.46,.44c-.39-.38-.78-.77-1.18-1.18,0,0,.01-.02,.03-.03l.42-.42c.07-.08,.18-.09,.26-.03,.01,0,.02,.02,.03,.03l.9,.9c.08,.06,.09,.17,.03,.25,0,.01-.02,.02-.03,.03h0Z"/>
      <path id="Path_5048" data-name="Path 5048" class="cls-1" d="M107.6,275.58s-.09,.08-.13,.12c-.66,.63-1.32,1.27-1.99,1.89-.11,.13-.3,.14-.42,.03-.01-.01-.02-.02-.03-.03-.68-.64-1.36-1.29-2.05-1.93l-.08-.08c.05-.04,.12-.05,.18-.05h1.38c.96,0,1.92,0,2.89-.01,.09,0,.17,0,.25,.05h0Z"/>
      <path id="Path_5049" data-name="Path 5049" class="cls-1" d="M107.59,279.1c-.06,.02-.11,.03-.17,.03-.55,0-1.1,0-1.65,0-.89,0-1.78,0-2.66,.01-.07,0-.15-.02-.21-.05,.55-.53,1.1-1.05,1.65-1.57l.32,.3s.09,.09,.13,.13c.14,.14,.37,.14,.51,0l.44-.42c.55,.52,1.09,1.03,1.64,1.55v.02h0Z"/>
      <path id="Path_5050" data-name="Path 5050" class="cls-1" d="M104.34,277.34c-.54,.52-1.08,1.03-1.61,1.55,0-.02-.01-.05-.01-.08,0-.97,0-1.94-.01-2.92,0-.03,0-.06,.01-.09,.54,.51,1.08,1.02,1.62,1.53h0Z"/>
      <path id="Path_5051" data-name="Path 5051" class="cls-1" d="M107.77,278.87c-.2-.19-.4-.38-.6-.58-.32-.3-.65-.62-.98-.92-.01-.01-.03-.02-.04-.03,.54-.52,1.08-1.03,1.61-1.55,.02,.05,.03,3,.01,3.08Z"/>
      <path id="Path_5052" data-name="Path 5052" class="cls-1" d="M187.11,265.83c-.15,.37-.23,.76-.25,1.15h-1.02v-.03s0-.05,0-.08c.01-.13,.03-.27,.07-.4,.05-.22,.13-.43,.23-.63,0-.01,.01-.01,.03-.01h.95Z"/>
      <path id="Path_5053" data-name="Path 5053" class="cls-1" d="M187.08,268.4h-.93s-.02,0-.02-.01c-.11-.23-.19-.46-.23-.71-.02-.12-.04-.24-.05-.36v-.04h1s.02,0,.02,.02c0,0,0,0,0,0,0,.08,.01,.17,.02,.24,.01,.13,.03,.26,.06,.38,.03,.16,.08,.31,.13,.46h0Z"/>
      <path id="Path_5054" data-name="Path 5054" class="cls-1" d="M191.02,268.7h0c-.08,.13-.17,.25-.27,.36-.12,.13-.25,.25-.39,.36-.14,.11-.29,.2-.44,.28-.15,.08-.31,.14-.47,.19-.13,.04-.26,.07-.39,.09h-.08s.03-.03,.03-.03c.28-.2,.54-.44,.74-.72,.12-.16,.22-.32,.3-.5,0-.01,.01-.01,.03-.01h.95Z"/>
      <path id="Path_5055" data-name="Path 5055" class="cls-1" d="M190.09,266.98h-1.32v-1.15h1.03s.01,0,.02,.01c.09,.22,.16,.44,.21,.67,.03,.12,.04,.24,.05,.36,0,.03,0,.07,0,.1Z"/>
      <path id="Path_5056" data-name="Path 5056" class="cls-1" d="M190.08,267.29v.08c0,.06,0,.13-.02,.19-.01,.09-.03,.18-.05,.27-.04,.19-.1,.38-.17,.56,0,.01-.01,.02-.03,.02h-1.06v-1.12h1.32Z"/>
      <path id="Path_5057" data-name="Path 5057" class="cls-1" d="M188.48,265.84v1.15h-1.29v-.09c0-.06,.01-.13,.02-.19,.01-.1,.03-.2,.05-.29,.04-.2,.1-.39,.19-.57,0-.01,.01-.01,.02-.01h1.01Z"/>
      <path id="Path_5058" data-name="Path 5058" class="cls-1" d="M188.48,267.3v1.1h-1.03s-.02,0-.02-.01c-.08-.19-.14-.38-.17-.58-.02-.1-.03-.2-.05-.31,0-.07-.01-.14-.01-.2h.01c.42,0,.84,0,1.26,0t.01,.02h0Z"/>
      <path id="Path_5059" data-name="Path 5059" class="cls-1" d="M191.49,266.99h-1.08c-.02-.4-.11-.79-.25-1.16h1.01s.02,0,.03,.01c.11,.23,.2,.47,.25,.72,.03,.13,.05,.27,.05,.4v.02h0Z"/>
      <path id="Path_5060" data-name="Path 5060" class="cls-1" d="M191.49,267.28v.07c0,.1-.02,.19-.03,.29-.04,.22-.11,.44-.2,.65-.01,.03-.03,.07-.05,.1,0,0,0,.01-.01,.01h-1.01s.02-.07,.03-.1c.06-.17,.1-.35,.13-.52,.02-.13,.04-.26,.05-.39v-.09s0-.01,.01-.01h1.07Z"/>
      <path id="Path_5061" data-name="Path 5061" class="cls-1" d="M191,265.53h-.96s-.02,0-.02-.01c-.13-.25-.28-.49-.47-.7-.11-.12-.23-.23-.36-.33-.07-.05-.13-.09-.2-.15h-.01v-.02s.01-.02,.01-.02c.81,.1,1.55,.54,2.01,1.22h0Z"/>
      <path id="Path_5062" data-name="Path 5062" class="cls-1" d="M188.29,269.95h-.03c-.11-.01-.21-.03-.31-.06-.19-.05-.37-.12-.55-.2-.2-.1-.38-.22-.56-.36-.12-.1-.24-.21-.34-.34-.07-.09-.15-.19-.21-.29h.01c.29,0,.59,0,.88,0,.01,0,.02,0,.02,.01,.09,.19,.2,.36,.32,.53,.11,.15,.24,.29,.38,.42,.11,.11,.24,.2,.36,.29h.01Z"/>
      <path id="Path_5063" data-name="Path 5063" class="cls-1" d="M188.28,264.34s-.09,.06-.13,.1c-.15,.12-.29,.25-.42,.4-.18,.19-.33,.41-.45,.64,0,.01-.01,.03-.02,.05,0,0,0,0-.01,0h-.91c.45-.66,1.15-1.1,1.94-1.2v.02h0Z"/>
      <path id="Path_5064" data-name="Path 5064" class="cls-1" d="M189.69,268.7c-.12,.21-.27,.41-.44,.59-.15,.16-.32,.3-.5,.42v-1.01h.94Z"/>
      <path id="Path_5065" data-name="Path 5065" class="cls-1" d="M188.48,268.7v.99c-.37-.25-.68-.6-.89-.99h.89Z"/>
      <path id="Path_5066" data-name="Path 5066" class="cls-1" d="M189.67,265.52h-.89v-.95c.18,.12,.35,.26,.5,.42,.15,.16,.28,.33,.39,.52Z"/>
      <path id="Path_5067" data-name="Path 5067" class="cls-1" d="M188.48,264.61v.92h-.86c.21-.37,.51-.69,.86-.92Z"/>
      <path id="Path_5068" data-name="Path 5068" class="cls-1" d="M190.85,275.6c-.5-1.04-1.68-1.58-2.8-1.29-1.1,.25-1.85,1.28-1.75,2.4,.04,.37,.15,.72,.32,1.05,.35,.72,.81,1.38,1.36,1.97,.22,.24,.45,.48,.68,.71,.03-.02,.05-.04,.07-.07,.29-.31,.6-.62,.88-.95,.53-.59,.96-1.28,1.26-2.01,.25-.58,.25-1.24,0-1.82h0Zm-.72,.88c.77,0,1.39-.63,1.39-1.39,0-.77-.63-1.39-1.39-1.39-.77,0-1.39,.63-1.39,1.39,0,.77,.62,1.39,1.39,1.39h0Z"/>
      <path id="Path_5069" data-name="Path 5069" class="cls-1" d="M161,107.99h-58.11v51.29h58.11v-51.29Z"/>
      <path id="Path_5070" data-name="Path 5070" class="cls-8" d="M223.26,106.46h-44.63v5.19h44.63v-5.19Z"/>
      <path id="Path_5071" data-name="Path 5071" class="cls-3" d="M206.9,236.51h34m-34,2.5h34m-34,2.5h34"/>
      <path id="Path_5072" data-name="Path 5072" class="cls-3" d="M102.9,226.51h34m-34,2.5h34m-34,2.5h34"/>
      <path id="Path_5073" data-name="Path 5073" class="cls-3" d="M102.9,235.51h23m-23,2.5h23m-23,2.5h23"/>
      <path id="Path_5074" data-name="Path 5074" class="cls-3" d="M206.9,221.5h34m-34,2.5h34m-34,2.5h34"/>
      <path id="Path_5075" data-name="Path 5075" class="cls-3" d="M206.9,205.5h34m-34,2.5h34m-34,2.5h34"/>
      <path id="Path_5076" data-name="Path 5076" class="cls-3" d="M206.9,189.49h34m-34,2.5h34m-34,2.5h34"/>
      <path id="Path_5077" data-name="Path 5077" class="cls-3" d="M206.9,174.49h34m-34,2.5h34m-34,2.5h34"/>
      <path id="Path_5078" data-name="Path 5078" class="cls-3" d="M178.9,118.46h44m-44,2.5h44m-44,2.5h44"/>
      <path id="Path_5079" data-name="Path 5079" class="cls-3" d="M178.9,126.47h30m-30,2.5h30m-30,2.5h30"/>
      <path id="Rectangle_26" data-name="Rectangle 26" class="cls-2" d="M7,25.69H343c3.73,0,6.75,3.02,6.75,6.75h0c0,3.73-3.02,6.75-6.75,6.75H7c-3.73,0-6.75-3.02-6.75-6.75H.25c0-3.73,3.02-6.75,6.75-6.75Z"/>
      <path id="Rectangle_27" data-name="Rectangle 27" class="cls-8" d="M.3,25.44H11.81c.17,0,.3,3.13,.3,7h0c0,3.87-.13,7-.3,7H.3c-.17,0-.3-3.13-.3-7H0c0-3.87,.13-7,.3-7Z"/>
      <path id="Path_5080" data-name="Path 5080" d="M159.29,5.55c.51,.24,.95,.62,1.26,1.09,.3,.46,.46,1,.45,1.55,.01,.66-.2,1.3-.59,1.82-.44,.54-1.01,.96-1.66,1.2-1.61,.55-3.35,.55-4.96,0-.65-.25-1.22-.66-1.65-1.2-.39-.53-.59-1.17-.58-1.82-.01-.55,.14-1.09,.43-1.55,.32-.47,.76-.84,1.26-1.09-.4-.23-.73-.56-.96-.96-.23-.41-.34-.87-.34-1.34-.01-.61,.18-1.21,.54-1.7,.39-.5,.92-.88,1.52-1.1,1.45-.53,3.05-.53,4.5,0,.61,.21,1.14,.6,1.54,1.1,.37,.49,.56,1.09,.54,1.7,0,.47-.11,.93-.34,1.34-.24,.4-.58,.73-.98,.96Zm-3.02-3.6c-.45-.02-.9,.12-1.26,.39-.31,.25-.48,.63-.46,1.02-.01,.39,.16,.76,.46,1,.37,.26,.81,.39,1.26,.37,.46,.02,.91-.11,1.28-.37,.32-.24,.5-.61,.48-1.01,.02-.4-.16-.78-.48-1.02-.37-.27-.82-.41-1.28-.38h0Zm0,7.78c.55,.03,1.09-.12,1.54-.43,.37-.28,.59-.72,.58-1.18,.02-.46-.2-.9-.58-1.17-.45-.31-.99-.46-1.54-.43-.54-.03-1.08,.12-1.52,.43-.37,.27-.58,.71-.56,1.17-.02,.46,.19,.9,.56,1.18,.44,.31,.98,.46,1.52,.44h0Zm10.72,1.9c-.88,.01-1.74-.22-2.48-.69-.75-.48-1.34-1.17-1.71-1.98-.43-.98-.64-2.05-.61-3.12-.03-1.07,.18-2.12,.61-3.1,.37-.82,.96-1.51,1.71-2,2.11-1.37,4.93-.77,6.3,1.34,.14,.21,.25,.43,.35,.66,.44,.97,.65,2.03,.62,3.1,.03,1.07-.19,2.14-.62,3.12-.72,1.66-2.37,2.71-4.18,2.67h0Zm0-2.19c.65,.02,1.26-.32,1.6-.88,.45-.83,.66-1.78,.59-2.72,.07-.94-.14-1.89-.59-2.72-.34-.56-.95-.9-1.6-.88-.65-.01-1.26,.32-1.6,.88-.44,.84-.64,1.78-.58,2.72-.07,.94,.13,1.88,.58,2.72,.34,.56,.95,.89,1.6,.88h0Zm8.65-3.16c-.76,.03-1.49-.28-2.02-.83-.53-.63-.81-1.43-.77-2.26-.04-.82,.23-1.62,.77-2.24,.52-.56,1.25-.87,2.02-.85,.76-.03,1.49,.28,2,.85,.54,.62,.81,1.42,.77,2.24,.04,.82-.23,1.63-.77,2.26-.51,.56-1.24,.86-2,.84h0ZM182.31,.24h1.9l-7.64,11.2h-1.9L182.31,.24Zm-6.67,4.74c.34,.01,.66-.16,.85-.45,.24-.4,.35-.86,.32-1.33,.03-.46-.08-.93-.32-1.33-.18-.29-.51-.46-.85-.45-.34,0-.67,.17-.85,.46-.24,.39-.35,.85-.32,1.31-.03,.46,.08,.93,.32,1.33,.19,.28,.51,.45,.85,.45Zm7.6,6.59c-.5,0-1-.12-1.44-.37-.42-.26-.76-.64-.98-1.09-.24-.51-.36-1.07-.35-1.63-.01-.56,.11-1.12,.35-1.63,.21-.45,.55-.82,.98-1.07,.44-.26,.93-.39,1.44-.38,.76-.03,1.49,.28,2,.85,.55,.61,.83,1.42,.78,2.24,.04,.83-.24,1.63-.78,2.26-.51,.56-1.24,.86-2,.83Zm0-1.31c.34,.01,.66-.16,.85-.45,.24-.4,.35-.86,.32-1.33,.03-.46-.08-.92-.32-1.31-.18-.3-.5-.47-.85-.46-.34,0-.66,.16-.85,.45-.24,.4-.35,.86-.32,1.33-.03,.46,.08,.93,.32,1.33,.19,.28,.51,.45,.85,.45Z"/>
      <path id="Path_5176" data-name="Path 5176" class="cls-9" d="M315.9,353.44h-10v-2h10v-10h2v12h-2Z"/>
      <path id="Path_5177" data-name="Path 5177" class="cls-9" d="M25.9,351.44v-10h2v10h10v2h-12v-2Z"/>
    </g>
  </g>
</svg>