<?xml version="1.0" encoding="UTF-8"?>
<svg id="Layer_2" data-name="Layer 2" xmlns="http://www.w3.org/2000/svg" viewBox="0 0 185 150.82">
  <defs>
    <style>
      .cls-1 {
        fill: #6c3099;
      }

      .cls-2 {
        fill: #ed1e79;
      }
    </style>
  </defs>
  <g id="Layer_1-2" data-name="Layer 1">
    <g id="Group_47567" data-name="Group 47567">
      <path id="Path_4718" data-name="Path 4718" class="cls-1" d="M153.28,14.72l29.28-5.22V.81l-29.28,5.22V14.72Z"/>
      <path id="Path_4719" data-name="Path 4719" class="cls-1" d="M149.32,38.54c2.11,0,3.83-1.71,3.83-3.83,0-2.11-1.71-3.83-3.83-3.83-2.11,0-3.83,1.71-3.83,3.83,0,2.11,1.71,3.83,3.82,3.83h0Z"/>
      <path id="Path_4720" data-name="Path 4720" class="cls-1" d="M178.65,33.32c2.11,0,3.83-1.71,3.83-3.83,0-2.11-1.71-3.83-3.83-3.83-2.11,0-3.83,1.71-3.83,3.83,0,2.11,1.71,3.83,3.82,3.83h0Z"/>
      <path id="Path_4721" data-name="Path 4721" class="cls-2" d="M24.47,43.3h44.38V18.08H24.47v25.22Zm19.4-17.58l8.26,4.94-8.26,4.94v-9.88h0Z"/>
      <path id="Path_4722" data-name="Path 4722" d="M153.34,150.82H31.28c-3.15,0-5.71-2.56-5.71-5.71v-2.36c0-.45,.36-.81,.8-.81H158.24c.45,0,.81,.36,.81,.81h0v2.36c0,3.15-2.56,5.71-5.71,5.71h0Zm-126.15-7.26v1.55c0,2.26,1.84,4.1,4.1,4.1h122.05c2.26,0,4.1-1.84,4.1-4.1h0v-1.55H27.18Z"/>
      <path id="Path_4723" data-name="Path 4723" d="M101.53,147.33h-18.56c-.45,0-.81-.36-.81-.8h0v-3.69c0-.45,.36-.81,.81-.81,.45,0,.81,.36,.81,.81h0v2.88h16.94v-2.88c0-.45,.36-.81,.81-.81,.45,0,.81,.36,.81,.81h0v3.69c0,.45-.36,.81-.81,.81h0Z"/>
      <path id="Path_4724" data-name="Path 4724" d="M35.25,143.18c-.45,0-.81-.36-.81-.8h0v-63.15c.06-3.37,2.83-6.06,6.2-6.01h103.27c3.29-.04,5.99,2.59,6.03,5.88,0,.04,0,.09,0,.13v62.57c0,.45-.36,.81-.81,.81-.45,0-.81-.36-.81-.81h0v-62.57c.02-2.41-1.91-4.38-4.32-4.4-.03,0-.07,0-.1,0H40.65c-2.48-.05-4.53,1.92-4.59,4.4v63.15c0,.45-.36,.81-.81,.81h0Z"/>
      <path id="Path_4725" data-name="Path 4725" d="M42.74,137.42c-.21,0-.42-.07-.57-.22-.15-.14-.24-.34-.24-.55v-55.13c0-.45,.36-.81,.81-.81h99.02c.45,0,.81,.36,.81,.8h0v55.07c0,.44-.36,.79-.8,.79,0,0,0,0-.01,0l-99.01,.04h0Zm.81-55.1v53.52l97.4-.06v-53.46H43.55Z"/>
      <path id="Path_4726" data-name="Path 4726" d="M90.02,64.74H3.27c-1.8,0-3.26-1.46-3.27-3.27V3.4C0,1.6,1.46,.13,3.27,.13H90.02c1.8,0,3.27,1.46,3.27,3.27V61.47c0,1.8-1.46,3.26-3.26,3.27h0ZM3.27,1.75c-.91,0-1.65,.74-1.65,1.66V61.47c0,.91,.74,1.65,1.65,1.65H90.02c.91,0,1.65-.74,1.65-1.65V3.4c0-.91-.74-1.65-1.65-1.65H3.27Z"/>
      <path id="Path_4727" data-name="Path 4727" d="M92.42,12.24H1.13c-.45,0-.81-.36-.81-.81s.36-.81,.81-.81H92.42c.45,0,.81,.36,.81,.81s-.36,.81-.81,.81Z"/>
      <path id="Path_4728" data-name="Path 4728" d="M68.82,44.14H24.47c-.47,0-.85-.38-.85-.85h0V18.02c0-.47,.38-.85,.85-.85h44.36c.47,0,.85,.38,.85,.85h0v25.27c0,.47-.38,.85-.85,.85h0Zm-43.51-1.7h42.66V18.87H25.32v23.58Z"/>
      <path id="Path_4729" data-name="Path 4729" d="M43.84,36.44c-.47,0-.85-.38-.85-.85v-9.87c0-.47,.38-.85,.85-.85,.15,0,.3,.04,.44,.12l8.26,4.94c.4,.24,.53,.76,.29,1.16-.07,.12-.17,.22-.29,.29l-8.26,4.94c-.13,.08-.28,.12-.44,.12h0Zm.85-9.23v6.88l5.76-3.44-5.76-3.44h0Z"/>
      <path id="Path_4730" data-name="Path 4730" d="M87,56.5H6.55c-.45,0-.81-.36-.81-.81,0-.44,.36-.81,.81-.81H87c.45,0,.81,.36,.81,.81,0,.44-.36,.81-.81,.81Z"/>
      <path id="Path_4731" data-name="Path 4731" d="M16.23,58.81c-.45,0-.81-.36-.81-.8,0,0,0,0,0,0v-4.72c0-.45,.36-.81,.81-.81,.45,0,.81,.36,.81,.81h0v4.72c0,.45-.36,.81-.8,.81,0,0,0,0,0,0Z"/>
      <path id="Path_4732" data-name="Path 4732" d="M87,51.78H6.55c-.45,0-.81-.36-.81-.81,0-.44,.36-.81,.81-.81H87c.45,0,.81,.36,.81,.81,0,.44-.36,.81-.81,.81Z"/>
      <path id="Path_4733" data-name="Path 4733" d="M77.32,54.08c-.45,0-.81-.36-.81-.81h0v-4.73c0-.45,.36-.81,.81-.81,.45,0,.81,.36,.81,.81h0v4.73c0,.45-.36,.81-.81,.81h0Z"/>
      <path id="Path_4734" data-name="Path 4734" d="M6.27,8.8c-1.32,0-2.39-1.07-2.39-2.39,0-1.32,1.07-2.39,2.39-2.39,1.32,0,2.38,1.07,2.39,2.38,0,1.32-1.07,2.39-2.39,2.39h0Zm0-3.16c-.43,0-.77,.35-.77,.77s.35,.77,.77,.77,.77-.35,.77-.77h0c0-.43-.34-.78-.77-.78,0,0,0,0,0,0h0Z"/>
      <path id="Path_4735" data-name="Path 4735" d="M19.62,8.8c-1.32,0-2.39-1.07-2.39-2.39s1.07-2.39,2.39-2.39,2.39,1.07,2.39,2.39c0,1.32-1.07,2.39-2.39,2.39Zm0-3.16c-.43,0-.77,.35-.77,.77s.35,.77,.77,.77,.77-.35,.77-.77c0-.43-.34-.78-.77-.78,0,0,0,0,0,0h0Z"/>
      <path id="Path_4736" data-name="Path 4736" d="M12.94,8.8c-1.32,0-2.39-1.07-2.39-2.39s1.07-2.39,2.39-2.39,2.39,1.07,2.39,2.39c0,1.32-1.07,2.39-2.39,2.39Zm0-3.16c-.43,0-.77,.35-.77,.77,0,.43,.35,.77,.77,.77,.43,0,.77-.35,.77-.77,0-.43-.34-.78-.77-.78,0,0,0,0,0,0h0Z"/>
      <path id="Path_4737" data-name="Path 4737" d="M59.57,5.21H30.75c-.45,0-.81-.36-.81-.81,0-.45,.36-.81,.81-.81h28.82c.45,0,.81,.36,.81,.81,0,.45-.36,.81-.81,.81h0Z"/>
      <path id="Path_4738" data-name="Path 4738" d="M80.66,8.32H30.75c-.45,0-.81-.36-.81-.81,0-.45,.36-.81,.81-.81h49.91c.45,0,.81,.36,.81,.81,0,.45-.36,.81-.81,.81h0Z"/>
      <path id="Path_4739" data-name="Path 4739" d="M26.72,11.78c-.45,0-.81-.36-.81-.8h0V1.18c0-.45,.36-.81,.81-.81s.81,.36,.81,.81V10.98c0,.45-.36,.81-.8,.81,0,0,0,0,0,0Z"/>
      <path id="Path_4740" data-name="Path 4740" d="M153.28,15.53c-.45,0-.81-.36-.81-.8h0V6.02c0-.39,.28-.73,.66-.79L182.42,.01c.44-.08,.86,.22,.94,.65,0,.05,.01,.1,.01,.15V9.5c0,.39-.28,.73-.66,.79l-29.28,5.22s-.09,.01-.14,.01h0Zm.81-8.82v7.06l27.66-4.93V1.77l-27.66,4.93h0Z"/>
      <path id="Path_4741" data-name="Path 4741" d="M153.16,35.76h0c-.44,0-.8-.37-.8-.81l.12-20.17c0-.44,.36-.8,.81-.8h0c.44,0,.8,.37,.8,.81l-.12,20.17c0,.44-.36,.8-.81,.8h0Z"/>
      <path id="Path_4742" data-name="Path 4742" d="M149.32,39.35c-2.56,0-4.63-2.07-4.63-4.63,0-2.56,2.07-4.63,4.63-4.63,2.56,0,4.63,2.07,4.63,4.63h0c0,2.56-2.08,4.63-4.63,4.63Zm0-7.65c-1.67,0-3.02,1.35-3.02,3.02s1.35,3.02,3.02,3.02c1.67,0,3.02-1.35,3.02-3.02h0c0-1.67-1.35-3.01-3.02-3.02h0Z"/>
      <path id="Path_4743" data-name="Path 4743" d="M182.44,30.46h0c-.44,0-.8-.37-.8-.81l.12-19.83c0-.44,.36-.8,.81-.8h0c.44,0,.8,.37,.8,.81l-.12,19.83c0,.44-.36,.8-.81,.8h0Z"/>
      <path id="Path_4744" data-name="Path 4744" d="M178.65,34.13c-2.56,0-4.63-2.07-4.63-4.63,0-2.56,2.07-4.63,4.63-4.63,2.56,0,4.63,2.07,4.63,4.63h0c0,2.56-2.07,4.63-4.63,4.63Zm0-7.65c-1.67,0-3.02,1.35-3.02,3.02s1.35,3.02,3.02,3.02c1.67,0,3.02-1.35,3.02-3.02,0-1.67-1.35-3.02-3.02-3.02Z"/>
      <path id="Path_4745" data-name="Path 4745" d="M154.02,11.18c-.45,0-.81-.36-.81-.81,0-.39,.28-.72,.66-.79l13.88-2.61c.44-.08,.86,.21,.94,.64,.08,.44-.21,.86-.64,.94l-13.88,2.61s-.1,.01-.15,.01h0Z"/>
      <path id="Path_4746" data-name="Path 4746" d="M174.78,42.96c-.48,0-.86-.39-.86-.86v-1.5c-.02-.48,.36-.88,.84-.89,.48-.02,.88,.36,.89,.84,0,.02,0,.04,0,.06v1.5c0,.48-.39,.86-.87,.86Z"/>
      <path id="Path_4747" data-name="Path 4747" d="M174.78,101.86c-.48,0-.86-.39-.86-.86v-3c.02-.48,.42-.85,.89-.84,.45,.02,.82,.38,.84,.84v3c0,.48-.39,.86-.87,.86Zm0-8.42c-.48,0-.86-.39-.86-.86v-3c-.02-.48,.36-.88,.84-.89,.48-.02,.88,.36,.89,.84,0,.02,0,.04,0,.06v3c0,.48-.39,.86-.87,.86h0Zm0-8.41c-.48,0-.86-.39-.86-.86v-3c-.02-.48,.36-.88,.84-.89,.48-.02,.88,.36,.89,.84,0,.02,0,.04,0,.06v3c0,.48-.39,.86-.87,.86Zm0-8.41c-.48,0-.86-.39-.86-.86v-3c-.02-.48,.36-.88,.84-.89,.48-.02,.88,.36,.89,.84,0,.02,0,.04,0,.06v3c0,.48-.39,.86-.87,.86Zm0-8.41c-.48,0-.86-.39-.86-.86v-3c-.02-.48,.36-.88,.84-.89,.48-.02,.88,.36,.89,.84,0,.02,0,.04,0,.06v3c0,.48-.39,.86-.87,.86h0Zm0-8.41c-.48,0-.86-.39-.86-.87v-3c-.02-.48,.36-.88,.84-.89,.48-.02,.88,.36,.89,.84,0,.02,0,.04,0,.06v3c0,.48-.39,.86-.87,.86h0Zm0-8.41c-.48,0-.86-.39-.86-.87v-3c-.02-.48,.36-.88,.84-.89,.48-.02,.88,.36,.89,.84,0,.02,0,.04,0,.06v3c0,.48-.39,.86-.87,.86h0Z"/>
      <path id="Path_4748" data-name="Path 4748" d="M174.78,109.18h-1.44c-.48,0-.86-.39-.86-.86s.39-.86,.86-.86h.58v-.58c-.02-.48,.36-.88,.84-.89,.48-.02,.88,.36,.89,.84,0,.02,0,.04,0,.06v1.44c0,.48-.39,.86-.86,.86h0Z"/>
      <path id="Path_4749" data-name="Path 4749" d="M167.11,109.18h-3.46c-.48,0-.86-.39-.86-.86s.39-.86,.86-.86h3.46c.48,0,.86,.39,.86,.86s-.39,.86-.86,.86h0Z"/>
      <path id="Path_4750" data-name="Path 4750" d="M157.43,109.18h-1.38c-.48,0-.86-.39-.86-.86s.39-.86,.86-.86h1.38c.48,0,.86,.39,.86,.86s-.39,.86-.86,.86h0Z"/>
      <path id="Path_4751" data-name="Path 4751" d="M7.87,74.89c-.48,0-.86-.39-.86-.86v-1.5c0-.48,.39-.86,.86-.86s.86,.39,.86,.86h0v1.5c0,.48-.39,.86-.87,.86Z"/>
      <path id="Path_4752" data-name="Path 4752" d="M7.87,101.86c-.48,0-.86-.39-.86-.86v-3.23c0-.48,.39-.86,.86-.86s.86,.39,.86,.86v3.23c0,.48-.39,.86-.86,.86Zm0-8.99c-.48,0-.86-.39-.86-.86v-3.23c0-.48,.39-.86,.86-.86s.86,.39,.86,.86v3.23c0,.48-.39,.86-.87,.86Zm0-8.99c-.48,0-.86-.39-.86-.86v-3.23c0-.48,.39-.86,.86-.86s.86,.39,.86,.86v3.23c0,.48-.39,.86-.87,.86h0Z"/>
      <path id="Path_4753" data-name="Path 4753" d="M9.31,109.18h-1.44c-.48,0-.86-.39-.86-.86v-1.44c0-.48,.39-.86,.86-.86s.86,.39,.86,.86v.58h.58c.48,0,.86,.39,.86,.86s-.39,.86-.86,.86h0Z"/>
      <path id="Path_4754" data-name="Path 4754" d="M22.91,109.18h-2.42c-.48,0-.86-.39-.86-.86s.39-.86,.86-.86h2.42c.48,0,.86,.39,.86,.86s-.39,.86-.86,.86h0Zm-6.8,0h-2.42c-.48,0-.86-.39-.86-.86s.39-.86,.86-.86h2.42c.48,0,.86,.39,.86,.86s-.39,.86-.86,.86Z"/>
      <path id="Path_4755" data-name="Path 4755" d="M28.79,109.18h-1.5c-.48,0-.86-.39-.86-.86s.39-.86,.86-.86h1.5c.48,0,.86,.39,.86,.86s-.39,.86-.86,.86Z"/>
      <path id="Path_4756" data-name="Path 4756" d="M104.81,59.1c-.48,0-.86-.39-.86-.86v-5.19c-.02-.48,.36-.88,.84-.89,.48-.02,.88,.36,.89,.84,0,.02,0,.04,0,.06v5.19c0,.48-.39,.87-.86,.87Z"/>
      <path id="Path_4757" data-name="Path 4757" d="M107.52,56.62h-5.19c-.48,0-.86-.39-.86-.86s.39-.86,.86-.86h5.19c.48,0,.86,.39,.86,.86s-.39,.86-.86,.86Z"/>
      <path id="Path_4758" data-name="Path 4758" d="M121.34,19.79c.03-.64,.56-1.13,1.2-1.11,.58,.02,1.05,.47,1.1,1.04,.02,.62-.47,1.14-1.09,1.16-.01,0-.02,0-.03,0h-.03c-.62,.01-1.13-.48-1.15-1.1h0Zm-3.42-.64c-.46-.44-.47-1.17-.03-1.63,.44-.46,1.17-.47,1.63-.03s.47,1.17,.03,1.63c-.22,.23-.52,.35-.83,.35-.3,0-.59-.12-.8-.32Zm7.46-.18c-.47-.44-.49-1.17-.05-1.63,.44-.47,1.17-.49,1.63-.05,.47,.44,.49,1.17,.05,1.63-.22,.23-.52,.36-.84,.36-.29,0-.58-.11-.79-.31Zm-9.42-4.32c0-.64,.53-1.15,1.16-1.14,.64,0,1.15,.53,1.14,1.16,0,.63-.51,1.13-1.14,1.14h-.01c-.64-.01-1.15-.53-1.15-1.16h0Zm10.48-.26c-.02-.64,.47-1.17,1.11-1.19,.64-.02,1.17,.47,1.19,1.11,.02,.64-.47,1.17-1.11,1.19h-.04c-.62,0-1.13-.49-1.15-1.11h0Zm-8.62-2.71c-.45-.45-.46-1.18,0-1.63,.45-.45,1.18-.46,1.63,0,.45,.45,.46,1.18,0,1.63-.22,.22-.51,.34-.82,.34-.3,0-.59-.12-.81-.34h0Zm7.3-.15c-.47-.43-.51-1.16-.08-1.63s1.16-.51,1.63-.08c.47,.43,.51,1.16,.08,1.63-.22,.24-.53,.38-.85,.38-.29,0-.57-.11-.78-.3Zm-3.92-2.23c0-.64,.52-1.15,1.15-1.15s1.15,.52,1.15,1.15-.52,1.15-1.15,1.15h0c-.64,0-1.15-.51-1.15-1.15h0Z"/>
      <path id="Path_4759" data-name="Path 4759" d="M158.34,65.9c.03-.64,.56-1.13,1.2-1.11,.58,.02,1.05,.47,1.1,1.04,.02,.62-.47,1.14-1.09,1.16-.01,0-.02,0-.03,0h-.03c-.62,.01-1.14-.48-1.15-1.1h0Zm-3.41-.64c-.46-.44-.47-1.17-.03-1.63,.44-.46,1.17-.47,1.63-.03s.47,1.17,.03,1.63c-.22,.23-.52,.35-.83,.35-.3,0-.59-.12-.8-.33h0Zm7.46-.17c-.46-.44-.49-1.17-.05-1.63,.44-.46,1.17-.49,1.63-.05,.46,.44,.49,1.17,.05,1.63-.22,.23-.52,.36-.84,.36-.29,0-.58-.11-.79-.31Zm-9.42-4.32c0-.64,.53-1.15,1.16-1.14s1.15,.53,1.14,1.16c0,.63-.51,1.14-1.14,1.14h-.01c-.64-.01-1.15-.53-1.15-1.16h0Zm10.48-.27c0-.64,.52-1.15,1.16-1.15,.6,0,1.09,.46,1.14,1.06,.03,.62-.45,1.15-1.07,1.18-.01,0-.03,0-.04,0h-.04c-.62,0-1.13-.48-1.15-1.09h0Zm-8.62-2.69c-.45-.45-.46-1.18,0-1.63s1.18-.46,1.63,0,.46,1.18,0,1.63c-.22,.22-.51,.34-.82,.34-.3,0-.59-.12-.81-.33Zm7.3-.15c-.47-.43-.51-1.16-.08-1.63,.43-.47,1.16-.51,1.63-.08,.47,.43,.51,1.16,.08,1.63-.22,.24-.53,.38-.85,.38-.29,0-.57-.11-.78-.3Zm-3.91-2.23c0-.64,.52-1.15,1.15-1.15s1.15,.52,1.15,1.15-.52,1.15-1.15,1.15h0c-.64,0-1.15-.51-1.15-1.15,0,0,0,0,0,0h0Z"/>
      <path id="Path_4760" data-name="Path 4760" d="M177.59,148.54c.02-.64,.56-1.13,1.2-1.11,.58,.02,1.05,.47,1.1,1.04,.02,.62-.47,1.14-1.09,1.16-.01,0-.02,0-.03,0h-.03c-.62,.01-1.14-.48-1.15-1.1h0Zm-3.41-.63c-.46-.44-.47-1.17-.03-1.63,.44-.46,1.17-.47,1.63-.03,.46,.44,.47,1.17,.03,1.63-.22,.23-.52,.35-.83,.35-.3,0-.59-.11-.8-.32h0Zm7.46-.18c-.47-.44-.49-1.17-.05-1.63,.44-.47,1.17-.49,1.63-.05,.47,.44,.49,1.17,.05,1.63-.22,.23-.52,.36-.84,.36-.29,0-.58-.11-.79-.31Zm-9.42-4.33c0-.64,.53-1.15,1.16-1.14,.64,0,1.15,.53,1.14,1.16,0,.63-.51,1.14-1.14,1.14h-.01c-.64-.01-1.15-.53-1.15-1.16h0Zm10.48-.26c-.02-.64,.47-1.17,1.11-1.19s1.17,.47,1.19,1.11c.02,.64-.47,1.17-1.11,1.19h-.04c-.62,0-1.13-.49-1.15-1.11h0Zm-8.62-2.71c-.45-.45-.46-1.18,0-1.63s1.18-.46,1.63,0,.46,1.18,0,1.63c-.22,.22-.51,.34-.82,.34-.3,0-.59-.12-.81-.33Zm7.3-.15c-.47-.43-.51-1.16-.08-1.63,.43-.47,1.16-.51,1.63-.08,.47,.43,.51,1.16,.08,1.63-.22,.24-.53,.38-.85,.38-.29,0-.57-.11-.78-.3Zm-3.9-2.23c-.01-.62,.48-1.14,1.11-1.15,.02,0,.04,0,.06,0,.63,.02,1.13,.53,1.14,1.15,0,.64-.52,1.15-1.15,1.15-.64,0-1.15-.52-1.15-1.15Z"/>
      <path id="Path_4761" data-name="Path 4761" d="M6.88,133.33c.02-.64,.56-1.13,1.2-1.11,.58,.02,1.05,.47,1.1,1.04,.02,.62-.47,1.14-1.09,1.16-.01,0-.02,0-.03,0h-.03c-.62,.01-1.13-.48-1.15-1.1h0Zm-3.41-.64c-.46-.44-.47-1.17-.03-1.63,.44-.46,1.17-.47,1.63-.03,.46,.44,.47,1.17,.03,1.63-.22,.22-.52,.35-.83,.35-.3,0-.59-.12-.8-.32Zm7.46-.18c-.47-.44-.49-1.17-.05-1.63,.44-.47,1.17-.49,1.63-.05s.49,1.17,.05,1.63c-.22,.23-.52,.37-.84,.37-.29,0-.58-.11-.79-.31h0Zm-9.42-4.32c0-.64,.5-1.17,1.14-1.18,.65,0,1.16,.54,1.16,1.19,0,.62-.5,1.13-1.13,1.15h-.02c-.64-.01-1.15-.53-1.15-1.16h0Zm10.48-.27c0-.64,.52-1.15,1.16-1.15,.6,0,1.09,.46,1.14,1.06,.03,.62-.45,1.15-1.07,1.18-.01,0-.02,0-.04,0h-.04c-.62,0-1.13-.48-1.15-1.09h0Zm-8.62-2.69c-.45-.45-.46-1.18,0-1.63s1.18-.46,1.63,0,.46,1.18,0,1.63c-.22,.22-.51,.34-.82,.34-.3,0-.59-.12-.81-.33Zm7.3-.15c-.47-.43-.51-1.16-.08-1.63,.43-.47,1.16-.51,1.63-.08,.47,.43,.51,1.16,.08,1.63-.22,.24-.53,.38-.85,.38-.29,0-.57-.11-.78-.3h0Zm-3.91-2.23c0-.64,.52-1.15,1.15-1.15,.64,0,1.15,.52,1.15,1.15,0,.64-.52,1.15-1.15,1.15,0,0,0,0,0,0-.64,0-1.15-.52-1.15-1.15h0Z"/>
    </g>
  </g>
</svg>