<svg xmlns="http://www.w3.org/2000/svg" xmlns:xlink="http://www.w3.org/1999/xlink" width="376" height="388" viewBox="0 0 376 388">
  <defs>
    <clipPath id="clip-path">
      <rect id="Rectangle_124" data-name="Rectangle 124" width="376" height="388" transform="translate(-10112 -9854)" fill="#fff" stroke="#707070" stroke-width="1"/>
    </clipPath>
  </defs>
  <g id="Logo_half" data-name="Logo half" transform="translate(10112 9854)" clip-path="url(#clip-path)">
    <g id="Group_260" data-name="Group 260" transform="translate(794.023 1503.802)" opacity="0.1">
      <path id="Path_5194" data-name="Path 5194" d="M56.4,108.845A47.573,47.573,0,1,0,8.542,61.272,47.717,47.717,0,0,0,56.4,108.845Z" transform="translate(-10802.425 -11185.881)" fill="#ed1e79"/>
      <path id="Path_5195" data-name="Path 5195" d="M58.885,86.814a36.042,36.042,0,1,0-36.26-36.042A36.152,36.152,0,0,0,58.885,86.814Z" transform="translate(-10631.669 -11173.379)" fill="#ed1e79"/>
      <path id="Path_5196" data-name="Path 5196" d="M357.9,40.242A111.9,111.9,0,0,0,263.08,92.578,135.994,135.994,0,0,0,135.989,5.272C60.908,5.31,0,65.849,0,140.528S60.92,275.722,136,275.722a136.022,136.022,0,0,0,78.607-24.964l35.639,56a12.234,12.234,0,0,0,10.4,5.71h.482a12.317,12.317,0,0,0,10.422-6.491l30.91-57.83a111.909,111.909,0,0,0,55.456,14.707c61.908-.013,111.99-49.828,112.04-111.312C469.891,90.058,419.811,40.242,357.9,40.242ZM27.956,140.528C28.058,81.2,76.325,33.2,135.989,33.085,195.706,33.2,243.973,81.2,244.061,140.528c-.1,59.318-48.355,107.318-108.072,107.406C76.325,247.846,28.045,199.845,27.956,140.528ZM259.732,275.86,233.55,234.677a134.843,134.843,0,0,0,24.077-33.824,111.925,111.925,0,0,0,24.761,32.664ZM357.9,235.08c-46.39-.1-83.907-37.39-83.97-83.526.063-46.134,37.579-83.437,83.97-83.525,46.417.088,83.983,37.39,84.072,83.525C441.884,197.69,404.318,234.979,357.9,235.08Z" transform="translate(-10906 -11288.072)" fill="#ed1e79"/>
      <path id="Path_5197" data-name="Path 5197" d="M151.305,91.19c-35.83-42.33-91.172-57.275-116.363-61.6-8.342-1.487-12.908-1.8-12.919-1.8h.012A14,14,0,0,1,9.1,12.869,14.018,14.018,0,0,1,24.14.04c1.306.353,82.283,5.671,139.881,63.854,16.736-10.749,51.652-29.791,93.315-32.488a13.9,13.9,0,1,1,1.622,27.749c-35.208,1.953-68.071,20.276-81.662,29.312-4.552,2.961-6.72,4.663-6.783,4.663a14.012,14.012,0,0,1-19.208-1.941Z" transform="translate(-10796.037 -11352)" fill="#ed1e79"/>
    </g>
  </g>
</svg>
