<svg id="Amazon__company_-Logo.wine" data-name="Amazon_(company)-Logo.wine" xmlns="http://www.w3.org/2000/svg" width="111.902" height="33.722" viewBox="0 0 111.902 33.722">
  <path id="Path_5210" data-name="Path 5210" d="M194.371,197.124c-6.5,4.793-15.928,7.35-24.044,7.35a43.509,43.509,0,0,1-29.373-11.208c-.609-.551-.063-1.3.667-.872a59.117,59.117,0,0,0,29.387,7.794,58.437,58.437,0,0,0,22.417-4.584c1.1-.468,2.021.721.945,1.52" transform="translate(-124.948 -170.752)" fill="#f90" fill-rule="evenodd"/>
  <path id="Path_5211" data-name="Path 5211" d="M580.021,184.748c-.828-1.062-5.495-.5-7.589-.253-.638.078-.735-.477-.161-.877,3.717-2.616,9.815-1.861,10.526-.984s-.185,6.995-3.678,9.913c-.536.448-1.047.209-.809-.385.784-1.958,2.543-6.347,1.71-7.414" transform="translate(-507.895 -161.469)" fill="#f90" fill-rule="evenodd"/>
  <path id="Path_5212" data-name="Path 5212" d="M64.683,3.683V1.14A.627.627,0,0,1,65.326.5H76.71a.634.634,0,0,1,.658.643V3.317a3.583,3.583,0,0,1-.857,1.6l-5.9,8.422A12.569,12.569,0,0,1,77.1,14.73a1.158,1.158,0,0,1,.6.989v2.713c0,.37-.409.8-.838.58a13.114,13.114,0,0,0-12.027.019c-.395.214-.809-.214-.809-.584V15.87a3.074,3.074,0,0,1,.419-1.749l6.834-9.8H65.34a.63.63,0,0,1-.658-.638M23.157,19.548H19.694a.654.654,0,0,1-.619-.589V1.184a.65.65,0,0,1,.667-.638h3.23a.652.652,0,0,1,.628.594V3.463h.063A4.571,4.571,0,0,1,28.223.171c2.168,0,3.522,1.047,4.5,3.293a5.115,5.115,0,0,1,8.792-1.349c1.1,1.5.872,3.668.872,5.572l0,11.218a.654.654,0,0,1-.667.643H38.252a.658.658,0,0,1-.624-.643V9.484a22.248,22.248,0,0,0-.1-3.332A1.8,1.8,0,0,0,35.5,4.623a2.3,2.3,0,0,0-2.07,1.457,10.762,10.762,0,0,0-.321,3.4V18.9a.654.654,0,0,1-.667.643H28.978a.655.655,0,0,1-.624-.643l0-9.421c0-1.983.326-4.9-2.134-4.9-2.489,0-2.392,2.845-2.392,4.9V18.9a.654.654,0,0,1-.667.643M87.168.171c5.139,0,7.92,4.413,7.92,10.025,0,5.421-3.074,9.723-7.921,9.723-5.046,0-7.794-4.413-7.794-9.913,0-5.533,2.781-9.835,7.794-9.835M87.2,3.8c-2.553,0-2.713,3.478-2.713,5.646s-.034,6.81,2.684,6.81c2.684,0,2.811-3.741,2.811-6.021a16.433,16.433,0,0,0-.516-4.715A2.166,2.166,0,0,0,87.2,3.8m14.555,15.748H98.3a.658.658,0,0,1-.624-.643l0-17.779a.655.655,0,0,1,.667-.58h3.21a.663.663,0,0,1,.619.5V3.761h.063c.969-2.431,2.328-3.59,4.72-3.59A4.544,4.544,0,0,1,111,2.265c.906,1.422.906,3.814.906,5.534V18.987a.665.665,0,0,1-.667.56h-3.473a.656.656,0,0,1-.614-.56V9.333c0-1.944.224-4.788-2.168-4.788a2.264,2.264,0,0,0-2,1.422,7.866,7.866,0,0,0-.551,3.366V18.9a.666.666,0,0,1-.677.643m-46.144-8.49a6.773,6.773,0,0,1-.648,3.673,2.813,2.813,0,0,1-2.4,1.573c-1.33,0-2.109-1.013-2.109-2.509,0-2.952,2.645-3.488,5.154-3.488v.75M59.1,19.5a.723.723,0,0,1-.818.083,8.441,8.441,0,0,1-1.987-2.309,6.858,6.858,0,0,1-5.709,2.518c-2.918,0-5.183-1.8-5.183-5.4A5.878,5.878,0,0,1,49.1,8.734c1.88-.828,4.506-.974,6.513-1.2V7.083a4.417,4.417,0,0,0-.424-2.509,2.305,2.305,0,0,0-1.944-.9,2.635,2.635,0,0,0-2.781,2.08.725.725,0,0,1-.6.633L46.5,6.026a.61.61,0,0,1-.516-.726c.77-4.072,4.452-5.3,7.745-5.3a7.852,7.852,0,0,1,5.217,1.724C60.63,3.3,60.47,5.4,60.47,7.682v5.4a4.737,4.737,0,0,0,1.305,3.21.655.655,0,0,1-.015.921c-.706.589-1.963,1.685-2.655,2.3l0-.01M10.2,11.057a6.773,6.773,0,0,1-.648,3.673A2.808,2.808,0,0,1,7.16,16.3c-1.33,0-2.1-1.013-2.1-2.509,0-2.952,2.645-3.488,5.149-3.488v.75M13.7,19.5a.723.723,0,0,1-.818.083,8.526,8.526,0,0,1-1.987-2.309,6.852,6.852,0,0,1-5.709,2.518c-2.913,0-5.183-1.8-5.183-5.4a5.885,5.885,0,0,1,3.692-5.66c1.88-.828,4.506-.974,6.513-1.2V7.083a4.456,4.456,0,0,0-.419-2.509,2.317,2.317,0,0,0-1.944-.9,2.64,2.64,0,0,0-2.786,2.08.725.725,0,0,1-.6.633L1.1,6.026A.613.613,0,0,1,.58,5.3C1.354,1.228,5.032,0,8.325,0a7.852,7.852,0,0,1,5.217,1.724C15.227,3.3,15.066,5.4,15.066,7.682v5.4a4.737,4.737,0,0,0,1.305,3.21.651.651,0,0,1-.01.921c-.706.589-1.963,1.685-2.655,2.3l-.01-.01" fill-rule="evenodd"/>
</svg>
