<svg id="Microsoft-Logo.wine" xmlns="http://www.w3.org/2000/svg" width="138.029" height="29.485" viewBox="0 0 138.029 29.485">
  <path id="Path_5213" data-name="Path 5213" d="M178.023,32.488,177.2,34.82h-.069a16.554,16.554,0,0,0-.8-2.286L171.92,21.449H167.6V39.117h2.857v-10.9c0-.686,0-1.463-.023-2.423-.023-.48-.069-.846-.091-1.12h.069a10.679,10.679,0,0,0,.411,1.509l5.3,12.891h2.011l5.257-13.005a13.846,13.846,0,0,0,.343-1.394h.069c-.069,1.3-.114,2.469-.137,3.177v11.2h3.04V21.4h-4.16Zm11.565-6.1h2.971V39.048h-2.971Zm1.509-5.348a1.78,1.78,0,0,0-1.257.5,1.685,1.685,0,0,0,0,2.446,1.762,1.762,0,0,0,1.257.48,1.823,1.823,0,0,0,1.257-.48,1.608,1.608,0,0,0,.526-1.211,1.694,1.694,0,0,0-.526-1.234,1.667,1.667,0,0,0-1.257-.5m12,5.234a8.288,8.288,0,0,0-1.669-.183,7.171,7.171,0,0,0-3.611.891,5.97,5.97,0,0,0-2.377,2.446,7.774,7.774,0,0,0-.823,3.657,6.784,6.784,0,0,0,.8,3.268,5.479,5.479,0,0,0,2.24,2.263,6.594,6.594,0,0,0,3.268.8,7.184,7.184,0,0,0,3.588-.846l.023-.023V35.8l-.114.091a5.108,5.108,0,0,1-1.44.754,4.405,4.405,0,0,1-1.417.274,3.506,3.506,0,0,1-2.788-1.1,4.216,4.216,0,0,1-1.029-2.994,4.321,4.321,0,0,1,1.051-3.086,3.668,3.668,0,0,1,2.788-1.143,4.864,4.864,0,0,1,2.834.96l.114.091v-2.9l-.023-.023a6.892,6.892,0,0,0-1.417-.457m9.805-.091a3.135,3.135,0,0,0-2.011.709,4.264,4.264,0,0,0-1.143,1.714h-.023V26.386h-2.971V39.048h2.971V32.58a4.361,4.361,0,0,1,.731-2.674,2.291,2.291,0,0,1,1.92-1.029,7.33,7.33,0,0,1,.891.114,2.345,2.345,0,0,1,.709.3l.114.091V26.408l-.069-.023a2.259,2.259,0,0,0-1.12-.206m8.091-.069a6.552,6.552,0,0,0-4.914,1.829,6.808,6.808,0,0,0-1.76,4.983,6.516,6.516,0,0,0,1.737,4.731,7.137,7.137,0,0,0,9.463-.114,6.785,6.785,0,0,0,1.76-4.914,6.614,6.614,0,0,0-1.669-4.777,6.015,6.015,0,0,0-4.617-1.737m2.377,9.737a3,3,0,0,1-2.491,1.051,3.121,3.121,0,0,1-2.56-1.1,4.515,4.515,0,0,1-.914-3.04,4.8,4.8,0,0,1,.914-3.108,3.143,3.143,0,0,1,2.537-1.1,3.039,3.039,0,0,1,2.468,1.051,4.688,4.688,0,0,1,.914,3.086,5.288,5.288,0,0,1-.869,3.154m10.537-4.206a7.118,7.118,0,0,1-1.806-.937,1.3,1.3,0,0,1-.343-.96,1.062,1.062,0,0,1,.48-.914,2.2,2.2,0,0,1,1.3-.343,5.917,5.917,0,0,1,1.531.229,3.941,3.941,0,0,1,1.326.617l.114.091V26.637l-.069-.023a8.246,8.246,0,0,0-1.349-.389,9.162,9.162,0,0,0-1.463-.137,5.3,5.3,0,0,0-3.5,1.1,3.379,3.379,0,0,0-1.349,2.788,3.629,3.629,0,0,0,.3,1.554A3.464,3.464,0,0,0,230,32.717a7.965,7.965,0,0,0,1.829,1.029c.686.3,1.211.526,1.531.709a3.1,3.1,0,0,1,.686.549,1.3,1.3,0,0,1,.183.709c0,.846-.64,1.257-1.943,1.257a5.13,5.13,0,0,1-1.646-.3,6.359,6.359,0,0,1-1.669-.846l-.114-.091v2.9l.069.023a8.865,8.865,0,0,0,1.6.5,10.205,10.205,0,0,0,1.714.206,5.566,5.566,0,0,0,3.68-1.1,3.5,3.5,0,0,0,1.394-2.88,3.2,3.2,0,0,0-.731-2.171,9.267,9.267,0,0,0-2.674-1.577m11.245-5.531a6.552,6.552,0,0,0-4.914,1.829,6.9,6.9,0,0,0-1.76,4.983,6.516,6.516,0,0,0,1.737,4.731,7.137,7.137,0,0,0,9.463-.114,6.785,6.785,0,0,0,1.76-4.914,6.614,6.614,0,0,0-1.669-4.777,6.015,6.015,0,0,0-4.617-1.737m2.354,9.737a3,3,0,0,1-2.491,1.051,3.092,3.092,0,0,1-2.56-1.1,4.515,4.515,0,0,1-.914-3.04,4.8,4.8,0,0,1,.914-3.108,3.143,3.143,0,0,1,2.537-1.1,3.07,3.07,0,0,1,2.468,1.051,4.688,4.688,0,0,1,.914,3.086,4.987,4.987,0,0,1-.869,3.154m19.817-7.017V26.386h-2.994V22.637l-.091.023-2.834.846-.069.023v2.857h-4.48v-1.6a2.506,2.506,0,0,1,.5-1.669,1.775,1.775,0,0,1,1.394-.549,3.335,3.335,0,0,1,1.326.3l.114.069V20.351l-.069-.023a5.715,5.715,0,0,0-4.046.32,3.965,3.965,0,0,0-1.623,1.623,4.677,4.677,0,0,0-.594,2.354v1.76h-2.08v2.423h2.08v10.24h2.994V28.831h4.48v6.514c0,2.674,1.257,4.023,3.771,4.023a7.833,7.833,0,0,0,1.257-.137,4.112,4.112,0,0,0,.937-.3l.023-.023V36.465l-.114.091a1.931,1.931,0,0,1-.617.274,2.092,2.092,0,0,1-.594.091,1.583,1.583,0,0,1-1.3-.48,2.475,2.475,0,0,1-.411-1.623V28.831Z" transform="translate(-129.293 -15.506)"/>
  <path id="Path_5214" data-name="Path 5214" d="M0,0H14.011V14.011H0Z" fill="#f25022"/>
  <path id="Path_5215" data-name="Path 5215" d="M67.7,0H81.711V14.011H67.7Z" transform="translate(-52.226)" fill="#7fba00"/>
  <path id="Path_5216" data-name="Path 5216" d="M0,67.7H14.011V81.711H0Z" transform="translate(0 -52.226)" fill="#00a4ef"/>
  <path id="Path_5217" data-name="Path 5217" d="M67.7,67.7H81.711V81.711H67.7Z" transform="translate(-52.226 -52.226)" fill="#ffb900"/>
</svg>
