<svg xmlns="http://www.w3.org/2000/svg" width="140.838" height="42.24" viewBox="0 0 140.838 42.24">
  <path id="Spotify-Logo.wine" d="M21.12,0A21.12,21.12,0,1,0,42.241,21.12,21.121,21.121,0,0,0,21.12,0Zm9.686,30.461A1.316,1.316,0,0,1,29,30.9c-4.959-3.029-11.2-3.715-18.553-2.035A1.317,1.317,0,1,1,9.856,26.3C17.9,24.457,24.8,25.248,30.37,28.651a1.316,1.316,0,0,1,.436,1.811Zm2.585-5.751a1.647,1.647,0,0,1-2.265.543c-5.677-3.49-14.331-4.5-21.046-2.462a1.646,1.646,0,1,1-.957-3.151c7.67-2.327,17.206-1.2,23.726,2.806a1.646,1.646,0,0,1,.542,2.264Zm.222-5.988c-6.807-4.043-18.038-4.415-24.537-2.442A1.975,1.975,0,1,1,7.93,12.5c7.461-2.265,19.863-1.827,27.7,2.825a1.975,1.975,0,1,1-2.015,3.4Zm23.849.775c-3.647-.87-4.3-1.48-4.3-2.762,0-1.212,1.14-2.027,2.837-2.027A8.289,8.289,0,0,1,60.988,16.6a.241.241,0,0,0,.338-.053l1.781-2.51a.24.24,0,0,0-.045-.325,10.774,10.774,0,0,0-7-2.426c-3.937,0-6.689,2.363-6.689,5.744,0,3.625,2.373,4.909,6.474,5.9,3.488.8,4.078,1.477,4.078,2.681,0,1.334-1.19,2.164-3.107,2.164a8.387,8.387,0,0,1-5.808-2.4.247.247,0,0,0-.174-.058.236.236,0,0,0-.164.083l-2,2.376a.24.24,0,0,0,.023.333,11.9,11.9,0,0,0,8.04,3.082c4.242,0,6.984-2.318,6.984-5.907.008-3.028-1.806-4.705-6.247-5.786Zm15.854-3.6a5.727,5.727,0,0,0-4.593,2.209V16.439a.238.238,0,0,0-.237-.239H65.22a.238.238,0,0,0-.237.239V35a.239.239,0,0,0,.237.24h3.266a.239.239,0,0,0,.237-.24V29.142a5.875,5.875,0,0,0,4.593,2.078c3.417,0,6.878-2.631,6.878-7.659S76.738,15.9,73.318,15.9Zm3.079,7.661c0,2.56-1.576,4.348-3.836,4.348a4.058,4.058,0,0,1-3.917-4.348,4.058,4.058,0,0,1,3.917-4.348c2.222,0,3.836,1.828,3.836,4.347ZM89.058,15.9a7.676,7.676,0,1,0,7.821,7.661A7.7,7.7,0,0,0,89.058,15.9Zm0,12.034a4.154,4.154,0,0,1-4.106-4.374,4.056,4.056,0,0,1,4.053-4.321,4.165,4.165,0,0,1,4.131,4.376A4.065,4.065,0,0,1,89.058,27.934ZM106.276,16.2h-3.594V12.526a.238.238,0,0,0-.237-.239H99.179a.24.24,0,0,0-.24.239V16.2H97.371a.238.238,0,0,0-.237.239v2.806a.238.238,0,0,0,.237.239H98.94v7.262c0,2.933,1.46,4.421,4.343,4.421a5.949,5.949,0,0,0,3.057-.762.234.234,0,0,0,.121-.207V27.526a.238.238,0,0,0-.114-.2.232.232,0,0,0-.232-.01,4.122,4.122,0,0,1-1.917.462c-1.047,0-1.516-.477-1.516-1.541V19.485h3.594a.238.238,0,0,0,.237-.239V16.44a.232.232,0,0,0-.235-.239Zm12.52.014v-.451c0-1.327.509-1.919,1.649-1.919a5.518,5.518,0,0,1,1.841.339.238.238,0,0,0,.313-.227V11.2a.236.236,0,0,0-.169-.229,8.946,8.946,0,0,0-2.714-.39c-3.014,0-4.61,1.7-4.61,4.91v.691h-1.569a.24.24,0,0,0-.24.239v2.821a.241.241,0,0,0,.24.239h1.569v11.2a.239.239,0,0,0,.24.24h3.264a.238.238,0,0,0,.24-.24v-11.2H121.9l4.671,11.2c-.53,1.175-1.052,1.41-1.763,1.41a3.749,3.749,0,0,1-1.8-.512.26.26,0,0,0-.189-.018.238.238,0,0,0-.141.129l-1.107,2.429a.238.238,0,0,0,.1.31,6.872,6.872,0,0,0,3.485.893c2.411,0,3.745-1.125,4.918-4.146l5.665-14.637a.239.239,0,0,0-.219-.326h-3.4a.239.239,0,0,0-.227.16L128.41,26.32,124.6,16.368a.238.238,0,0,0-.222-.154H118.8Zm-7.258-.014h-3.266a.24.24,0,0,0-.24.239V30.683a.239.239,0,0,0,.24.24h3.266a.239.239,0,0,0,.24-.24V16.44a.239.239,0,0,0-.24-.239Zm-1.614-6.486a2.342,2.342,0,1,0,2.34,2.341A2.341,2.341,0,0,0,109.923,9.713ZM138.528,20.78a2.3,2.3,0,1,1,2.31-2.311,2.289,2.289,0,0,1-2.31,2.311Zm.013-4.38a2.075,2.075,0,1,0,2.055,2.068,2.055,2.055,0,0,0-2.055-2.068Zm.509,2.3.651.91h-.55l-.585-.835h-.5v.835h-.459V17.2h1.074c.562,0,.931.287.931.769a.716.716,0,0,1-.557.733Zm-.388-1.088h-.6v.763h.6c.3,0,.477-.146.477-.382S138.96,17.616,138.662,17.616Z" fill="#1ed760"/>
</svg>
